G04 #@! TF.GenerationSoftware,KiCad,Pcbnew,(5.1.5)-3*
G04 #@! TF.CreationDate,2020-06-24T22:18:20+03:00*
G04 #@! TF.ProjectId,Hardwareproject,48617264-7761-4726-9570-726f6a656374,rev?*
G04 #@! TF.SameCoordinates,Original*
G04 #@! TF.FileFunction,Legend,Top*
G04 #@! TF.FilePolarity,Positive*
%FSLAX46Y46*%
G04 Gerber Fmt 4.6, Leading zero omitted, Abs format (unit mm)*
G04 Created by KiCad (PCBNEW (5.1.5)-3) date 2020-06-24 22:18:20*
%MOMM*%
%LPD*%
G04 APERTURE LIST*
%ADD10C,0.300000*%
%ADD11C,0.750000*%
%ADD12C,0.120000*%
%ADD13C,0.150000*%
G04 APERTURE END LIST*
D10*
X30222857Y-75521428D02*
X30294285Y-75450000D01*
X30437142Y-75378571D01*
X30794285Y-75378571D01*
X30937142Y-75450000D01*
X31008571Y-75521428D01*
X31080000Y-75664285D01*
X31080000Y-75807142D01*
X31008571Y-76021428D01*
X30151428Y-76878571D01*
X31080000Y-76878571D01*
X32365714Y-75878571D02*
X32365714Y-76878571D01*
X32008571Y-75307142D02*
X31651428Y-76378571D01*
X32580000Y-76378571D01*
X33151428Y-76307142D02*
X34294285Y-76307142D01*
X35651428Y-75878571D02*
X35651428Y-76878571D01*
X35294285Y-75307142D02*
X34937142Y-76378571D01*
X35865714Y-76378571D01*
X36651428Y-76021428D02*
X36508571Y-75950000D01*
X36437142Y-75878571D01*
X36365714Y-75735714D01*
X36365714Y-75664285D01*
X36437142Y-75521428D01*
X36508571Y-75450000D01*
X36651428Y-75378571D01*
X36937142Y-75378571D01*
X37080000Y-75450000D01*
X37151428Y-75521428D01*
X37222857Y-75664285D01*
X37222857Y-75735714D01*
X37151428Y-75878571D01*
X37080000Y-75950000D01*
X36937142Y-76021428D01*
X36651428Y-76021428D01*
X36508571Y-76092857D01*
X36437142Y-76164285D01*
X36365714Y-76307142D01*
X36365714Y-76592857D01*
X36437142Y-76735714D01*
X36508571Y-76807142D01*
X36651428Y-76878571D01*
X36937142Y-76878571D01*
X37080000Y-76807142D01*
X37151428Y-76735714D01*
X37222857Y-76592857D01*
X37222857Y-76307142D01*
X37151428Y-76164285D01*
X37080000Y-76092857D01*
X36937142Y-76021428D01*
X38794285Y-75378571D02*
X39294285Y-76878571D01*
X39794285Y-75378571D01*
X40937142Y-76878571D02*
X40937142Y-75378571D01*
X40937142Y-76807142D02*
X40794285Y-76878571D01*
X40508571Y-76878571D01*
X40365714Y-76807142D01*
X40294285Y-76735714D01*
X40222857Y-76592857D01*
X40222857Y-76164285D01*
X40294285Y-76021428D01*
X40365714Y-75950000D01*
X40508571Y-75878571D01*
X40794285Y-75878571D01*
X40937142Y-75950000D01*
X42294285Y-76807142D02*
X42151428Y-76878571D01*
X41865714Y-76878571D01*
X41722857Y-76807142D01*
X41651428Y-76735714D01*
X41580000Y-76592857D01*
X41580000Y-76164285D01*
X41651428Y-76021428D01*
X41722857Y-75950000D01*
X41865714Y-75878571D01*
X42151428Y-75878571D01*
X42294285Y-75950000D01*
D11*
X152218571Y-100544285D02*
X154504285Y-100544285D01*
X157504285Y-101687142D02*
X155790000Y-101687142D01*
X156647142Y-101687142D02*
X156647142Y-98687142D01*
X156361428Y-99115714D01*
X156075714Y-99401428D01*
X155790000Y-99544285D01*
X160218571Y-98687142D02*
X158790000Y-98687142D01*
X158647142Y-100115714D01*
X158790000Y-99972857D01*
X159075714Y-99830000D01*
X159790000Y-99830000D01*
X160075714Y-99972857D01*
X160218571Y-100115714D01*
X160361428Y-100401428D01*
X160361428Y-101115714D01*
X160218571Y-101401428D01*
X160075714Y-101544285D01*
X159790000Y-101687142D01*
X159075714Y-101687142D01*
X158790000Y-101544285D01*
X158647142Y-101401428D01*
X163504285Y-98687142D02*
X164504285Y-101687142D01*
X165504285Y-98687142D01*
X167790000Y-101687142D02*
X167790000Y-98687142D01*
X167790000Y-101544285D02*
X167504285Y-101687142D01*
X166932857Y-101687142D01*
X166647142Y-101544285D01*
X166504285Y-101401428D01*
X166361428Y-101115714D01*
X166361428Y-100258571D01*
X166504285Y-99972857D01*
X166647142Y-99830000D01*
X166932857Y-99687142D01*
X167504285Y-99687142D01*
X167790000Y-99830000D01*
X170504285Y-101544285D02*
X170218571Y-101687142D01*
X169647142Y-101687142D01*
X169361428Y-101544285D01*
X169218571Y-101401428D01*
X169075714Y-101115714D01*
X169075714Y-100258571D01*
X169218571Y-99972857D01*
X169361428Y-99830000D01*
X169647142Y-99687142D01*
X170218571Y-99687142D01*
X170504285Y-99830000D01*
X153488571Y-54824285D02*
X155774285Y-54824285D01*
X154631428Y-55967142D02*
X154631428Y-53681428D01*
X158774285Y-55967142D02*
X157060000Y-55967142D01*
X157917142Y-55967142D02*
X157917142Y-52967142D01*
X157631428Y-53395714D01*
X157345714Y-53681428D01*
X157060000Y-53824285D01*
X161488571Y-52967142D02*
X160060000Y-52967142D01*
X159917142Y-54395714D01*
X160060000Y-54252857D01*
X160345714Y-54110000D01*
X161060000Y-54110000D01*
X161345714Y-54252857D01*
X161488571Y-54395714D01*
X161631428Y-54681428D01*
X161631428Y-55395714D01*
X161488571Y-55681428D01*
X161345714Y-55824285D01*
X161060000Y-55967142D01*
X160345714Y-55967142D01*
X160060000Y-55824285D01*
X159917142Y-55681428D01*
X164774285Y-52967142D02*
X165774285Y-55967142D01*
X166774285Y-52967142D01*
X169060000Y-55967142D02*
X169060000Y-52967142D01*
X169060000Y-55824285D02*
X168774285Y-55967142D01*
X168202857Y-55967142D01*
X167917142Y-55824285D01*
X167774285Y-55681428D01*
X167631428Y-55395714D01*
X167631428Y-54538571D01*
X167774285Y-54252857D01*
X167917142Y-54110000D01*
X168202857Y-53967142D01*
X168774285Y-53967142D01*
X169060000Y-54110000D01*
X171774285Y-55824285D02*
X171488571Y-55967142D01*
X170917142Y-55967142D01*
X170631428Y-55824285D01*
X170488571Y-55681428D01*
X170345714Y-55395714D01*
X170345714Y-54538571D01*
X170488571Y-54252857D01*
X170631428Y-54110000D01*
X170917142Y-53967142D01*
X171488571Y-53967142D01*
X171774285Y-54110000D01*
D10*
X30774285Y-105858571D02*
X31274285Y-107358571D01*
X31774285Y-105858571D01*
X32917142Y-107287142D02*
X32774285Y-107358571D01*
X32488571Y-107358571D01*
X32345714Y-107287142D01*
X32274285Y-107215714D01*
X32202857Y-107072857D01*
X32202857Y-106644285D01*
X32274285Y-106501428D01*
X32345714Y-106430000D01*
X32488571Y-106358571D01*
X32774285Y-106358571D01*
X32917142Y-106430000D01*
X34202857Y-107287142D02*
X34060000Y-107358571D01*
X33774285Y-107358571D01*
X33631428Y-107287142D01*
X33560000Y-107215714D01*
X33488571Y-107072857D01*
X33488571Y-106644285D01*
X33560000Y-106501428D01*
X33631428Y-106430000D01*
X33774285Y-106358571D01*
X34060000Y-106358571D01*
X34202857Y-106430000D01*
X34845714Y-106572857D02*
X35988571Y-106572857D01*
X35988571Y-107001428D02*
X34845714Y-107001428D01*
X36631428Y-106001428D02*
X36702857Y-105930000D01*
X36845714Y-105858571D01*
X37202857Y-105858571D01*
X37345714Y-105930000D01*
X37417142Y-106001428D01*
X37488571Y-106144285D01*
X37488571Y-106287142D01*
X37417142Y-106501428D01*
X36560000Y-107358571D01*
X37488571Y-107358571D01*
X38845714Y-105858571D02*
X38131428Y-105858571D01*
X38060000Y-106572857D01*
X38131428Y-106501428D01*
X38274285Y-106430000D01*
X38631428Y-106430000D01*
X38774285Y-106501428D01*
X38845714Y-106572857D01*
X38917142Y-106715714D01*
X38917142Y-107072857D01*
X38845714Y-107215714D01*
X38774285Y-107287142D01*
X38631428Y-107358571D01*
X38274285Y-107358571D01*
X38131428Y-107287142D01*
X38060000Y-107215714D01*
X39345714Y-105858571D02*
X39845714Y-107358571D01*
X40345714Y-105858571D01*
D12*
X25400000Y-25400000D02*
X177800000Y-25400000D01*
X177800000Y-139700000D02*
X177800000Y-25400000D01*
X25400000Y-139700000D02*
X177800000Y-139700000D01*
X25400000Y-25400000D02*
X25400000Y-139700000D01*
X119036400Y-89015200D02*
X71796400Y-89015200D01*
X119036400Y-89015200D02*
X119036400Y-32775200D01*
X71796400Y-32775200D02*
X71796400Y-89015200D01*
X71796400Y-32775200D02*
X119036400Y-32775200D01*
X98957000Y-117556000D02*
X95047000Y-117556000D01*
X98957000Y-119426000D02*
X98957000Y-117556000D01*
X95047000Y-119426000D02*
X98957000Y-119426000D01*
X127786000Y-111206000D02*
X123876000Y-111206000D01*
X127786000Y-113076000D02*
X127786000Y-111206000D01*
X123876000Y-113076000D02*
X127786000Y-113076000D01*
X102513000Y-113365000D02*
X98603000Y-113365000D01*
X102513000Y-115235000D02*
X102513000Y-113365000D01*
X98603000Y-115235000D02*
X102513000Y-115235000D01*
X54945000Y-120880000D02*
X54945000Y-124790000D01*
X56815000Y-120880000D02*
X54945000Y-120880000D01*
X56815000Y-124790000D02*
X56815000Y-120880000D01*
D13*
X78660000Y-90680000D02*
X78660000Y-122680000D01*
X75660000Y-99180000D02*
X75660000Y-114180000D01*
X64660000Y-99180000D02*
X64660000Y-90680000D01*
X64660000Y-114180000D02*
X64660000Y-122680000D01*
X75660000Y-114180000D02*
X74660000Y-114180000D01*
X75660000Y-99180000D02*
X74660000Y-99180000D01*
X72660000Y-99180000D02*
X64660000Y-99180000D01*
X72660000Y-114180000D02*
X64660000Y-114180000D01*
X74660000Y-96180000D02*
X74660000Y-90680000D01*
X72660000Y-90680000D02*
X72660000Y-96180000D01*
X74660000Y-117180000D02*
X74660000Y-122680000D01*
X72660000Y-117180000D02*
X72660000Y-122680000D01*
X76910000Y-117180000D02*
X76910000Y-122680000D01*
X66660000Y-117180000D02*
X66660000Y-122680000D01*
X70660000Y-117180000D02*
X70660000Y-122680000D01*
X68660000Y-117180000D02*
X68660000Y-122680000D01*
X66660000Y-96180000D02*
X66660000Y-90680000D01*
X68660000Y-90680000D02*
X68660000Y-96180000D01*
X70660000Y-96180000D02*
X70660000Y-90680000D01*
X76910000Y-96180000D02*
X76910000Y-90680000D01*
X78660000Y-122680000D02*
X76910000Y-122680000D01*
X76910000Y-90680000D02*
X78660000Y-90680000D01*
X76910000Y-96180000D02*
X74660000Y-96180000D01*
X72660000Y-96180000D02*
X70660000Y-96180000D01*
X74660000Y-90680000D02*
X72660000Y-90680000D01*
X70660000Y-90680000D02*
X68660000Y-90680000D01*
X68660000Y-96180000D02*
X66660000Y-96180000D01*
X66660000Y-90680000D02*
X64660000Y-90680000D01*
X68660000Y-117180000D02*
X66660000Y-117180000D01*
X72660000Y-117180000D02*
X70660000Y-117180000D01*
X76910000Y-117180000D02*
X74660000Y-117180000D01*
X74660000Y-122680000D02*
X72660000Y-122680000D01*
X70660000Y-122680000D02*
X68660000Y-122680000D01*
X66660000Y-122680000D02*
X64660000Y-122680000D01*
X77910000Y-104930000D02*
X77410000Y-104930000D01*
X76910000Y-104930000D02*
X76410000Y-104930000D01*
X77910000Y-108430000D02*
X77410000Y-108430000D01*
X76910000Y-108430000D02*
X76410000Y-108430000D01*
X75910000Y-108430000D02*
X75660000Y-108430000D01*
X75910000Y-104930000D02*
X75660000Y-104930000D01*
X78410000Y-104930000D02*
X78660000Y-104930000D01*
X78410000Y-108430000D02*
X78660000Y-108430000D01*
X155700000Y-51990000D02*
X123700000Y-51990000D01*
X147200000Y-48990000D02*
X132200000Y-48990000D01*
X147200000Y-37990000D02*
X155700000Y-37990000D01*
X132200000Y-37990000D02*
X123700000Y-37990000D01*
X132200000Y-48990000D02*
X132200000Y-47990000D01*
X147200000Y-48990000D02*
X147200000Y-47990000D01*
X147200000Y-45990000D02*
X147200000Y-37990000D01*
X132200000Y-45990000D02*
X132200000Y-37990000D01*
X150200000Y-47990000D02*
X155700000Y-47990000D01*
X155700000Y-45990000D02*
X150200000Y-45990000D01*
X129200000Y-47990000D02*
X123700000Y-47990000D01*
X129200000Y-45990000D02*
X123700000Y-45990000D01*
X129200000Y-50240000D02*
X123700000Y-50240000D01*
X129200000Y-39990000D02*
X123700000Y-39990000D01*
X129200000Y-43990000D02*
X123700000Y-43990000D01*
X129200000Y-41990000D02*
X123700000Y-41990000D01*
X150200000Y-39990000D02*
X155700000Y-39990000D01*
X155700000Y-41990000D02*
X150200000Y-41990000D01*
X150200000Y-43990000D02*
X155700000Y-43990000D01*
X150200000Y-50240000D02*
X155700000Y-50240000D01*
X123700000Y-51990000D02*
X123700000Y-50240000D01*
X155700000Y-50240000D02*
X155700000Y-51990000D01*
X150200000Y-50240000D02*
X150200000Y-47990000D01*
X150200000Y-45990000D02*
X150200000Y-43990000D01*
X155700000Y-47990000D02*
X155700000Y-45990000D01*
X155700000Y-43990000D02*
X155700000Y-41990000D01*
X150200000Y-41990000D02*
X150200000Y-39990000D01*
X155700000Y-39990000D02*
X155700000Y-37990000D01*
X129200000Y-41990000D02*
X129200000Y-39990000D01*
X129200000Y-45990000D02*
X129200000Y-43990000D01*
X129200000Y-50240000D02*
X129200000Y-47990000D01*
X123700000Y-47990000D02*
X123700000Y-45990000D01*
X123700000Y-43990000D02*
X123700000Y-41990000D01*
X123700000Y-39990000D02*
X123700000Y-37990000D01*
X141450000Y-51240000D02*
X141450000Y-50740000D01*
X141450000Y-50240000D02*
X141450000Y-49740000D01*
X137950000Y-51240000D02*
X137950000Y-50740000D01*
X137950000Y-50240000D02*
X137950000Y-49740000D01*
X137950000Y-49240000D02*
X137950000Y-48990000D01*
X141450000Y-49240000D02*
X141450000Y-48990000D01*
X141450000Y-51740000D02*
X141450000Y-51990000D01*
X137950000Y-51740000D02*
X137950000Y-51990000D01*
D12*
X62734800Y-86299600D02*
X59794800Y-86299600D01*
X62734800Y-86539600D02*
X59794800Y-86539600D01*
X62734800Y-86419600D02*
X59794800Y-86419600D01*
X59794800Y-90959600D02*
X60124800Y-90959600D01*
X59794800Y-85519600D02*
X59794800Y-90959600D01*
X60124800Y-85519600D02*
X59794800Y-85519600D01*
X62734800Y-90959600D02*
X62404800Y-90959600D01*
X62734800Y-85519600D02*
X62734800Y-90959600D01*
X62404800Y-85519600D02*
X62734800Y-85519600D01*
X147710000Y-68697918D02*
X146460000Y-68697918D01*
X147085000Y-68072918D02*
X147085000Y-69322918D01*
X143827000Y-81251000D02*
X143193000Y-81251000D01*
X144267000Y-81211000D02*
X142753000Y-81211000D01*
X144538000Y-81171000D02*
X142482000Y-81171000D01*
X144751000Y-81131000D02*
X142269000Y-81131000D01*
X144932000Y-81091000D02*
X142088000Y-81091000D01*
X145093000Y-81051000D02*
X141927000Y-81051000D01*
X145238000Y-81011000D02*
X141782000Y-81011000D01*
X145371000Y-80971000D02*
X141649000Y-80971000D01*
X145494000Y-80931000D02*
X141526000Y-80931000D01*
X145610000Y-80891000D02*
X141410000Y-80891000D01*
X145719000Y-80851000D02*
X141301000Y-80851000D01*
X145822000Y-80811000D02*
X141198000Y-80811000D01*
X145920000Y-80771000D02*
X141100000Y-80771000D01*
X146014000Y-80731000D02*
X141006000Y-80731000D01*
X146104000Y-80691000D02*
X140916000Y-80691000D01*
X146191000Y-80651000D02*
X140829000Y-80651000D01*
X146274000Y-80611000D02*
X140746000Y-80611000D01*
X146354000Y-80571000D02*
X140666000Y-80571000D01*
X146431000Y-80531000D02*
X140589000Y-80531000D01*
X146506000Y-80491000D02*
X140514000Y-80491000D01*
X146579000Y-80451000D02*
X140441000Y-80451000D01*
X146650000Y-80411000D02*
X140370000Y-80411000D01*
X146718000Y-80371000D02*
X140302000Y-80371000D01*
X146785000Y-80331000D02*
X140235000Y-80331000D01*
X146849000Y-80291000D02*
X140171000Y-80291000D01*
X146912000Y-80251000D02*
X140108000Y-80251000D01*
X146974000Y-80211000D02*
X140046000Y-80211000D01*
X147034000Y-80171000D02*
X139986000Y-80171000D01*
X147093000Y-80131000D02*
X139927000Y-80131000D01*
X147150000Y-80091000D02*
X139870000Y-80091000D01*
X147206000Y-80051000D02*
X139814000Y-80051000D01*
X147260000Y-80011000D02*
X139760000Y-80011000D01*
X147314000Y-79971000D02*
X139706000Y-79971000D01*
X147366000Y-79931000D02*
X139654000Y-79931000D01*
X147417000Y-79891000D02*
X139603000Y-79891000D01*
X147467000Y-79851000D02*
X139553000Y-79851000D01*
X147517000Y-79811000D02*
X139503000Y-79811000D01*
X147565000Y-79771000D02*
X139455000Y-79771000D01*
X147612000Y-79731000D02*
X139408000Y-79731000D01*
X147658000Y-79691000D02*
X139362000Y-79691000D01*
X147704000Y-79651000D02*
X139316000Y-79651000D01*
X147748000Y-79611000D02*
X139272000Y-79611000D01*
X147792000Y-79571000D02*
X139228000Y-79571000D01*
X147835000Y-79531000D02*
X139185000Y-79531000D01*
X147877000Y-79491000D02*
X139143000Y-79491000D01*
X147918000Y-79451000D02*
X139102000Y-79451000D01*
X147959000Y-79411000D02*
X139061000Y-79411000D01*
X147999000Y-79371000D02*
X139021000Y-79371000D01*
X148038000Y-79331000D02*
X138982000Y-79331000D01*
X148077000Y-79291000D02*
X138943000Y-79291000D01*
X148115000Y-79251000D02*
X138905000Y-79251000D01*
X148152000Y-79211000D02*
X138868000Y-79211000D01*
X148188000Y-79171000D02*
X138832000Y-79171000D01*
X148224000Y-79131000D02*
X138796000Y-79131000D01*
X148260000Y-79091000D02*
X138760000Y-79091000D01*
X148295000Y-79051000D02*
X138725000Y-79051000D01*
X148329000Y-79011000D02*
X138691000Y-79011000D01*
X148362000Y-78971000D02*
X138658000Y-78971000D01*
X148395000Y-78931000D02*
X138625000Y-78931000D01*
X148428000Y-78891000D02*
X138592000Y-78891000D01*
X148460000Y-78851000D02*
X138560000Y-78851000D01*
X142070000Y-78811000D02*
X138528000Y-78811000D01*
X148492000Y-78811000D02*
X144950000Y-78811000D01*
X142070000Y-78771000D02*
X138498000Y-78771000D01*
X148522000Y-78771000D02*
X144950000Y-78771000D01*
X142070000Y-78731000D02*
X138467000Y-78731000D01*
X148553000Y-78731000D02*
X144950000Y-78731000D01*
X142070000Y-78691000D02*
X138437000Y-78691000D01*
X148583000Y-78691000D02*
X144950000Y-78691000D01*
X142070000Y-78651000D02*
X138408000Y-78651000D01*
X148612000Y-78651000D02*
X144950000Y-78651000D01*
X142070000Y-78611000D02*
X138379000Y-78611000D01*
X148641000Y-78611000D02*
X144950000Y-78611000D01*
X142070000Y-78571000D02*
X138350000Y-78571000D01*
X148670000Y-78571000D02*
X144950000Y-78571000D01*
X142070000Y-78531000D02*
X138322000Y-78531000D01*
X148698000Y-78531000D02*
X144950000Y-78531000D01*
X142070000Y-78491000D02*
X138294000Y-78491000D01*
X148726000Y-78491000D02*
X144950000Y-78491000D01*
X142070000Y-78451000D02*
X138267000Y-78451000D01*
X148753000Y-78451000D02*
X144950000Y-78451000D01*
X142070000Y-78411000D02*
X138240000Y-78411000D01*
X148780000Y-78411000D02*
X144950000Y-78411000D01*
X142070000Y-78371000D02*
X138214000Y-78371000D01*
X148806000Y-78371000D02*
X144950000Y-78371000D01*
X142070000Y-78331000D02*
X138188000Y-78331000D01*
X148832000Y-78331000D02*
X144950000Y-78331000D01*
X142070000Y-78291000D02*
X138163000Y-78291000D01*
X148857000Y-78291000D02*
X144950000Y-78291000D01*
X142070000Y-78251000D02*
X138138000Y-78251000D01*
X148882000Y-78251000D02*
X144950000Y-78251000D01*
X142070000Y-78211000D02*
X138113000Y-78211000D01*
X148907000Y-78211000D02*
X144950000Y-78211000D01*
X142070000Y-78171000D02*
X138089000Y-78171000D01*
X148931000Y-78171000D02*
X144950000Y-78171000D01*
X142070000Y-78131000D02*
X138065000Y-78131000D01*
X148955000Y-78131000D02*
X144950000Y-78131000D01*
X142070000Y-78091000D02*
X138042000Y-78091000D01*
X148978000Y-78091000D02*
X144950000Y-78091000D01*
X142070000Y-78051000D02*
X138019000Y-78051000D01*
X149001000Y-78051000D02*
X144950000Y-78051000D01*
X142070000Y-78011000D02*
X137996000Y-78011000D01*
X149024000Y-78011000D02*
X144950000Y-78011000D01*
X142070000Y-77971000D02*
X137974000Y-77971000D01*
X149046000Y-77971000D02*
X144950000Y-77971000D01*
X142070000Y-77931000D02*
X137952000Y-77931000D01*
X149068000Y-77931000D02*
X144950000Y-77931000D01*
X142070000Y-77891000D02*
X137930000Y-77891000D01*
X149090000Y-77891000D02*
X144950000Y-77891000D01*
X142070000Y-77851000D02*
X137909000Y-77851000D01*
X149111000Y-77851000D02*
X144950000Y-77851000D01*
X142070000Y-77811000D02*
X137888000Y-77811000D01*
X149132000Y-77811000D02*
X144950000Y-77811000D01*
X142070000Y-77771000D02*
X137868000Y-77771000D01*
X149152000Y-77771000D02*
X144950000Y-77771000D01*
X142070000Y-77731000D02*
X137848000Y-77731000D01*
X149172000Y-77731000D02*
X144950000Y-77731000D01*
X142070000Y-77691000D02*
X137828000Y-77691000D01*
X149192000Y-77691000D02*
X144950000Y-77691000D01*
X142070000Y-77651000D02*
X137808000Y-77651000D01*
X149212000Y-77651000D02*
X144950000Y-77651000D01*
X142070000Y-77611000D02*
X137789000Y-77611000D01*
X149231000Y-77611000D02*
X144950000Y-77611000D01*
X142070000Y-77571000D02*
X137771000Y-77571000D01*
X149249000Y-77571000D02*
X144950000Y-77571000D01*
X142070000Y-77531000D02*
X137752000Y-77531000D01*
X149268000Y-77531000D02*
X144950000Y-77531000D01*
X142070000Y-77491000D02*
X137734000Y-77491000D01*
X149286000Y-77491000D02*
X144950000Y-77491000D01*
X142070000Y-77451000D02*
X137717000Y-77451000D01*
X149303000Y-77451000D02*
X144950000Y-77451000D01*
X142070000Y-77411000D02*
X137699000Y-77411000D01*
X149321000Y-77411000D02*
X144950000Y-77411000D01*
X142070000Y-77371000D02*
X137682000Y-77371000D01*
X149338000Y-77371000D02*
X144950000Y-77371000D01*
X142070000Y-77331000D02*
X137665000Y-77331000D01*
X149355000Y-77331000D02*
X144950000Y-77331000D01*
X142070000Y-77291000D02*
X137649000Y-77291000D01*
X149371000Y-77291000D02*
X144950000Y-77291000D01*
X142070000Y-77251000D02*
X137633000Y-77251000D01*
X149387000Y-77251000D02*
X144950000Y-77251000D01*
X142070000Y-77211000D02*
X137617000Y-77211000D01*
X149403000Y-77211000D02*
X144950000Y-77211000D01*
X142070000Y-77171000D02*
X137602000Y-77171000D01*
X149418000Y-77171000D02*
X144950000Y-77171000D01*
X142070000Y-77131000D02*
X137586000Y-77131000D01*
X149434000Y-77131000D02*
X144950000Y-77131000D01*
X142070000Y-77091000D02*
X137571000Y-77091000D01*
X149449000Y-77091000D02*
X144950000Y-77091000D01*
X142070000Y-77051000D02*
X137557000Y-77051000D01*
X149463000Y-77051000D02*
X144950000Y-77051000D01*
X142070000Y-77011000D02*
X137543000Y-77011000D01*
X149477000Y-77011000D02*
X144950000Y-77011000D01*
X142070000Y-76971000D02*
X137529000Y-76971000D01*
X149491000Y-76971000D02*
X144950000Y-76971000D01*
X142070000Y-76931000D02*
X137515000Y-76931000D01*
X149505000Y-76931000D02*
X144950000Y-76931000D01*
X142070000Y-76891000D02*
X137502000Y-76891000D01*
X149518000Y-76891000D02*
X144950000Y-76891000D01*
X142070000Y-76851000D02*
X137489000Y-76851000D01*
X149531000Y-76851000D02*
X144950000Y-76851000D01*
X142070000Y-76811000D02*
X137476000Y-76811000D01*
X149544000Y-76811000D02*
X144950000Y-76811000D01*
X142070000Y-76771000D02*
X137463000Y-76771000D01*
X149557000Y-76771000D02*
X144950000Y-76771000D01*
X142070000Y-76731000D02*
X137451000Y-76731000D01*
X149569000Y-76731000D02*
X144950000Y-76731000D01*
X142070000Y-76691000D02*
X137439000Y-76691000D01*
X149581000Y-76691000D02*
X144950000Y-76691000D01*
X142070000Y-76651000D02*
X137427000Y-76651000D01*
X149593000Y-76651000D02*
X144950000Y-76651000D01*
X142070000Y-76611000D02*
X137416000Y-76611000D01*
X149604000Y-76611000D02*
X144950000Y-76611000D01*
X142070000Y-76571000D02*
X137405000Y-76571000D01*
X149615000Y-76571000D02*
X144950000Y-76571000D01*
X142070000Y-76531000D02*
X137394000Y-76531000D01*
X149626000Y-76531000D02*
X144950000Y-76531000D01*
X142070000Y-76491000D02*
X137384000Y-76491000D01*
X149636000Y-76491000D02*
X144950000Y-76491000D01*
X142070000Y-76451000D02*
X137373000Y-76451000D01*
X149647000Y-76451000D02*
X144950000Y-76451000D01*
X142070000Y-76411000D02*
X137364000Y-76411000D01*
X149656000Y-76411000D02*
X144950000Y-76411000D01*
X142070000Y-76371000D02*
X137354000Y-76371000D01*
X149666000Y-76371000D02*
X144950000Y-76371000D01*
X142070000Y-76331000D02*
X137344000Y-76331000D01*
X149676000Y-76331000D02*
X144950000Y-76331000D01*
X142070000Y-76291000D02*
X137335000Y-76291000D01*
X149685000Y-76291000D02*
X144950000Y-76291000D01*
X142070000Y-76251000D02*
X137326000Y-76251000D01*
X149694000Y-76251000D02*
X144950000Y-76251000D01*
X142070000Y-76211000D02*
X137318000Y-76211000D01*
X149702000Y-76211000D02*
X144950000Y-76211000D01*
X142070000Y-76171000D02*
X137309000Y-76171000D01*
X149711000Y-76171000D02*
X144950000Y-76171000D01*
X142070000Y-76131000D02*
X137301000Y-76131000D01*
X149719000Y-76131000D02*
X144950000Y-76131000D01*
X142070000Y-76091000D02*
X137294000Y-76091000D01*
X149726000Y-76091000D02*
X144950000Y-76091000D01*
X142070000Y-76051000D02*
X137286000Y-76051000D01*
X149734000Y-76051000D02*
X144950000Y-76051000D01*
X142070000Y-76011000D02*
X137279000Y-76011000D01*
X149741000Y-76011000D02*
X144950000Y-76011000D01*
X142070000Y-75971000D02*
X137272000Y-75971000D01*
X149748000Y-75971000D02*
X144950000Y-75971000D01*
X149755000Y-75931000D02*
X137265000Y-75931000D01*
X149762000Y-75891000D02*
X137258000Y-75891000D01*
X149768000Y-75851000D02*
X137252000Y-75851000D01*
X149774000Y-75811000D02*
X137246000Y-75811000D01*
X149779000Y-75771000D02*
X137241000Y-75771000D01*
X149785000Y-75731000D02*
X137235000Y-75731000D01*
X149790000Y-75691000D02*
X137230000Y-75691000D01*
X149795000Y-75651000D02*
X137225000Y-75651000D01*
X149800000Y-75611000D02*
X137220000Y-75611000D01*
X149804000Y-75570000D02*
X137216000Y-75570000D01*
X149808000Y-75530000D02*
X137212000Y-75530000D01*
X149812000Y-75490000D02*
X137208000Y-75490000D01*
X149816000Y-75450000D02*
X137204000Y-75450000D01*
X149819000Y-75410000D02*
X137201000Y-75410000D01*
X149822000Y-75370000D02*
X137198000Y-75370000D01*
X149825000Y-75330000D02*
X137195000Y-75330000D01*
X149828000Y-75290000D02*
X137192000Y-75290000D01*
X149830000Y-75250000D02*
X137190000Y-75250000D01*
X149832000Y-75210000D02*
X137188000Y-75210000D01*
X149834000Y-75170000D02*
X137186000Y-75170000D01*
X149836000Y-75130000D02*
X137184000Y-75130000D01*
X149837000Y-75090000D02*
X137183000Y-75090000D01*
X149838000Y-75050000D02*
X137182000Y-75050000D01*
X149839000Y-75010000D02*
X137181000Y-75010000D01*
X149840000Y-74970000D02*
X137180000Y-74970000D01*
X149840000Y-74930000D02*
X137180000Y-74930000D01*
X149840000Y-74890000D02*
X137180000Y-74890000D01*
X149880000Y-74890000D02*
G75*
G03X149880000Y-74890000I-6370000J0D01*
G01*
X65389600Y-71955589D02*
X64639600Y-71955589D01*
X65014600Y-71580589D02*
X65014600Y-72330589D01*
X63280600Y-79563800D02*
X62398600Y-79563800D01*
X63532600Y-79523800D02*
X62146600Y-79523800D01*
X63716600Y-79483800D02*
X61962600Y-79483800D01*
X63867600Y-79443800D02*
X61811600Y-79443800D01*
X63997600Y-79403800D02*
X61681600Y-79403800D01*
X64114600Y-79363800D02*
X61564600Y-79363800D01*
X64220600Y-79323800D02*
X61458600Y-79323800D01*
X64317600Y-79283800D02*
X61361600Y-79283800D01*
X64408600Y-79243800D02*
X61270600Y-79243800D01*
X64493600Y-79203800D02*
X61185600Y-79203800D01*
X64572600Y-79163800D02*
X61106600Y-79163800D01*
X64648600Y-79123800D02*
X61030600Y-79123800D01*
X64720600Y-79083800D02*
X60958600Y-79083800D01*
X64788600Y-79043800D02*
X60890600Y-79043800D01*
X64853600Y-79003800D02*
X60825600Y-79003800D01*
X64916600Y-78963800D02*
X60762600Y-78963800D01*
X64976600Y-78923800D02*
X60702600Y-78923800D01*
X65034600Y-78883800D02*
X60644600Y-78883800D01*
X65089600Y-78843800D02*
X60589600Y-78843800D01*
X65143600Y-78803800D02*
X60535600Y-78803800D01*
X65194600Y-78763800D02*
X60484600Y-78763800D01*
X65244600Y-78723800D02*
X60434600Y-78723800D01*
X65293600Y-78683800D02*
X60385600Y-78683800D01*
X65339600Y-78643800D02*
X60339600Y-78643800D01*
X65385600Y-78603800D02*
X60293600Y-78603800D01*
X65428600Y-78563800D02*
X60250600Y-78563800D01*
X65471600Y-78523800D02*
X60207600Y-78523800D01*
X65512600Y-78483800D02*
X60166600Y-78483800D01*
X65552600Y-78443800D02*
X60126600Y-78443800D01*
X65591600Y-78403800D02*
X60087600Y-78403800D01*
X65629600Y-78363800D02*
X60049600Y-78363800D01*
X65666600Y-78323800D02*
X60012600Y-78323800D01*
X65702600Y-78283800D02*
X59976600Y-78283800D01*
X65737600Y-78243800D02*
X59941600Y-78243800D01*
X65770600Y-78203800D02*
X59908600Y-78203800D01*
X65803600Y-78163800D02*
X59875600Y-78163800D01*
X65835600Y-78123800D02*
X59843600Y-78123800D01*
X65867600Y-78083800D02*
X59811600Y-78083800D01*
X65897600Y-78043800D02*
X59781600Y-78043800D01*
X61799600Y-78003800D02*
X59751600Y-78003800D01*
X65927600Y-78003800D02*
X63879600Y-78003800D01*
X61799600Y-77963800D02*
X59723600Y-77963800D01*
X65955600Y-77963800D02*
X63879600Y-77963800D01*
X61799600Y-77923800D02*
X59695600Y-77923800D01*
X65983600Y-77923800D02*
X63879600Y-77923800D01*
X61799600Y-77883800D02*
X59667600Y-77883800D01*
X66011600Y-77883800D02*
X63879600Y-77883800D01*
X61799600Y-77843800D02*
X59641600Y-77843800D01*
X66037600Y-77843800D02*
X63879600Y-77843800D01*
X61799600Y-77803800D02*
X59615600Y-77803800D01*
X66063600Y-77803800D02*
X63879600Y-77803800D01*
X61799600Y-77763800D02*
X59590600Y-77763800D01*
X66088600Y-77763800D02*
X63879600Y-77763800D01*
X61799600Y-77723800D02*
X59565600Y-77723800D01*
X66113600Y-77723800D02*
X63879600Y-77723800D01*
X61799600Y-77683800D02*
X59542600Y-77683800D01*
X66136600Y-77683800D02*
X63879600Y-77683800D01*
X61799600Y-77643800D02*
X59518600Y-77643800D01*
X66160600Y-77643800D02*
X63879600Y-77643800D01*
X61799600Y-77603800D02*
X59496600Y-77603800D01*
X66182600Y-77603800D02*
X63879600Y-77603800D01*
X61799600Y-77563800D02*
X59474600Y-77563800D01*
X66204600Y-77563800D02*
X63879600Y-77563800D01*
X61799600Y-77523800D02*
X59453600Y-77523800D01*
X66225600Y-77523800D02*
X63879600Y-77523800D01*
X61799600Y-77483800D02*
X59432600Y-77483800D01*
X66246600Y-77483800D02*
X63879600Y-77483800D01*
X61799600Y-77443800D02*
X59412600Y-77443800D01*
X66266600Y-77443800D02*
X63879600Y-77443800D01*
X61799600Y-77403800D02*
X59392600Y-77403800D01*
X66286600Y-77403800D02*
X63879600Y-77403800D01*
X61799600Y-77363800D02*
X59373600Y-77363800D01*
X66305600Y-77363800D02*
X63879600Y-77363800D01*
X61799600Y-77323800D02*
X59355600Y-77323800D01*
X66323600Y-77323800D02*
X63879600Y-77323800D01*
X61799600Y-77283800D02*
X59337600Y-77283800D01*
X66341600Y-77283800D02*
X63879600Y-77283800D01*
X61799600Y-77243800D02*
X59319600Y-77243800D01*
X66359600Y-77243800D02*
X63879600Y-77243800D01*
X61799600Y-77203800D02*
X59303600Y-77203800D01*
X66375600Y-77203800D02*
X63879600Y-77203800D01*
X61799600Y-77163800D02*
X59286600Y-77163800D01*
X66392600Y-77163800D02*
X63879600Y-77163800D01*
X61799600Y-77123800D02*
X59271600Y-77123800D01*
X66407600Y-77123800D02*
X63879600Y-77123800D01*
X61799600Y-77083800D02*
X59255600Y-77083800D01*
X66423600Y-77083800D02*
X63879600Y-77083800D01*
X61799600Y-77043800D02*
X59241600Y-77043800D01*
X66437600Y-77043800D02*
X63879600Y-77043800D01*
X61799600Y-77003800D02*
X59226600Y-77003800D01*
X66452600Y-77003800D02*
X63879600Y-77003800D01*
X61799600Y-76963800D02*
X59213600Y-76963800D01*
X66465600Y-76963800D02*
X63879600Y-76963800D01*
X61799600Y-76923800D02*
X59199600Y-76923800D01*
X66479600Y-76923800D02*
X63879600Y-76923800D01*
X61799600Y-76883800D02*
X59186600Y-76883800D01*
X66492600Y-76883800D02*
X63879600Y-76883800D01*
X61799600Y-76843800D02*
X59174600Y-76843800D01*
X66504600Y-76843800D02*
X63879600Y-76843800D01*
X61799600Y-76803800D02*
X59162600Y-76803800D01*
X66516600Y-76803800D02*
X63879600Y-76803800D01*
X61799600Y-76763800D02*
X59151600Y-76763800D01*
X66527600Y-76763800D02*
X63879600Y-76763800D01*
X61799600Y-76723800D02*
X59140600Y-76723800D01*
X66538600Y-76723800D02*
X63879600Y-76723800D01*
X61799600Y-76683800D02*
X59129600Y-76683800D01*
X66549600Y-76683800D02*
X63879600Y-76683800D01*
X61799600Y-76643800D02*
X59119600Y-76643800D01*
X66559600Y-76643800D02*
X63879600Y-76643800D01*
X61799600Y-76603800D02*
X59110600Y-76603800D01*
X66568600Y-76603800D02*
X63879600Y-76603800D01*
X61799600Y-76563800D02*
X59101600Y-76563800D01*
X66577600Y-76563800D02*
X63879600Y-76563800D01*
X61799600Y-76523800D02*
X59092600Y-76523800D01*
X66586600Y-76523800D02*
X63879600Y-76523800D01*
X61799600Y-76483800D02*
X59084600Y-76483800D01*
X66594600Y-76483800D02*
X63879600Y-76483800D01*
X61799600Y-76443800D02*
X59076600Y-76443800D01*
X66602600Y-76443800D02*
X63879600Y-76443800D01*
X61799600Y-76402800D02*
X59069600Y-76402800D01*
X66609600Y-76402800D02*
X63879600Y-76402800D01*
X61799600Y-76362800D02*
X59062600Y-76362800D01*
X66616600Y-76362800D02*
X63879600Y-76362800D01*
X61799600Y-76322800D02*
X59055600Y-76322800D01*
X66623600Y-76322800D02*
X63879600Y-76322800D01*
X61799600Y-76282800D02*
X59049600Y-76282800D01*
X66629600Y-76282800D02*
X63879600Y-76282800D01*
X61799600Y-76242800D02*
X59044600Y-76242800D01*
X66634600Y-76242800D02*
X63879600Y-76242800D01*
X61799600Y-76202800D02*
X59038600Y-76202800D01*
X66640600Y-76202800D02*
X63879600Y-76202800D01*
X61799600Y-76162800D02*
X59034600Y-76162800D01*
X66644600Y-76162800D02*
X63879600Y-76162800D01*
X61799600Y-76122800D02*
X59029600Y-76122800D01*
X66649600Y-76122800D02*
X63879600Y-76122800D01*
X61799600Y-76082800D02*
X59025600Y-76082800D01*
X66653600Y-76082800D02*
X63879600Y-76082800D01*
X61799600Y-76042800D02*
X59022600Y-76042800D01*
X66656600Y-76042800D02*
X63879600Y-76042800D01*
X61799600Y-76002800D02*
X59019600Y-76002800D01*
X66659600Y-76002800D02*
X63879600Y-76002800D01*
X61799600Y-75962800D02*
X59016600Y-75962800D01*
X66662600Y-75962800D02*
X63879600Y-75962800D01*
X66664600Y-75922800D02*
X59014600Y-75922800D01*
X66666600Y-75882800D02*
X59012600Y-75882800D01*
X66668600Y-75842800D02*
X59010600Y-75842800D01*
X66669600Y-75802800D02*
X59009600Y-75802800D01*
X66669600Y-75762800D02*
X59009600Y-75762800D01*
X66669600Y-75722800D02*
X59009600Y-75722800D01*
X66709600Y-75722800D02*
G75*
G03X66709600Y-75722800I-3870000J0D01*
G01*
X106903000Y-118603000D02*
X106903000Y-122443000D01*
X108743000Y-118603000D02*
X108743000Y-122443000D01*
X117109000Y-111475000D02*
X113269000Y-111475000D01*
X117109000Y-113315000D02*
X113269000Y-113315000D01*
X93614000Y-113380000D02*
X89774000Y-113380000D01*
X93614000Y-115220000D02*
X89774000Y-115220000D01*
X54960000Y-114920000D02*
X54960000Y-118760000D01*
X56800000Y-114920000D02*
X56800000Y-118760000D01*
X121300000Y-106776000D02*
X117460000Y-106776000D01*
X121300000Y-108616000D02*
X117460000Y-108616000D01*
X52623200Y-74280000D02*
X52623200Y-78120000D01*
X54463200Y-74280000D02*
X54463200Y-78120000D01*
X41940000Y-95520000D02*
X41940000Y-97520000D01*
X28530000Y-91410000D02*
X31590000Y-91410000D01*
X28530000Y-101630000D02*
X28530000Y-91410000D01*
X31590000Y-101630000D02*
X28530000Y-101630000D01*
X41750000Y-101630000D02*
X35690000Y-101630000D01*
X41750000Y-98820000D02*
X41750000Y-101630000D01*
X41750000Y-91410000D02*
X41750000Y-94220000D01*
X35690000Y-91410000D02*
X41750000Y-91410000D01*
X41940000Y-63770000D02*
X41940000Y-65770000D01*
X28530000Y-59660000D02*
X31590000Y-59660000D01*
X28530000Y-69880000D02*
X28530000Y-59660000D01*
X31590000Y-69880000D02*
X28530000Y-69880000D01*
X41750000Y-69880000D02*
X35690000Y-69880000D01*
X41750000Y-67070000D02*
X41750000Y-69880000D01*
X41750000Y-59660000D02*
X41750000Y-62470000D01*
X35690000Y-59660000D02*
X41750000Y-59660000D01*
X54246000Y-110296000D02*
X55896000Y-110296000D01*
X54246000Y-100016000D02*
X54246000Y-110296000D01*
X59546000Y-100016000D02*
X54246000Y-100016000D01*
X59546000Y-110296000D02*
X59546000Y-100016000D01*
X57896000Y-110296000D02*
X59546000Y-110296000D01*
X55896000Y-110296000D02*
G75*
G02X57896000Y-110296000I1000000J0D01*
G01*
X76930000Y-107261000D02*
X75420000Y-107261000D01*
X76930000Y-103560000D02*
X75420000Y-103560000D01*
X75420000Y-100290000D02*
X75420000Y-110530000D01*
X76930000Y-110530000D02*
X72289000Y-110530000D01*
X76930000Y-100290000D02*
X72289000Y-100290000D01*
X72289000Y-100290000D02*
X72289000Y-110530000D01*
X76930000Y-100290000D02*
X76930000Y-110530000D01*
X166637600Y-86512400D02*
G75*
G03X166637600Y-86512400I-5500000J0D01*
G01*
X166231200Y-65125600D02*
G75*
G03X166231200Y-65125600I-5500000J0D01*
G01*
X137849000Y-50260000D02*
X137849000Y-48750000D01*
X141550000Y-50260000D02*
X141550000Y-48750000D01*
X144820000Y-48750000D02*
X134580000Y-48750000D01*
X134580000Y-50260000D02*
X134580000Y-45619000D01*
X144820000Y-50260000D02*
X144820000Y-45619000D01*
X144820000Y-45619000D02*
X134580000Y-45619000D01*
X144820000Y-50260000D02*
X134580000Y-50260000D01*
D13*
X83702114Y-76347580D02*
X83130685Y-76347580D01*
X83416400Y-76347580D02*
X83416400Y-75347580D01*
X83321161Y-75490438D01*
X83225923Y-75585676D01*
X83130685Y-75633295D01*
X84868780Y-61704723D02*
X83868780Y-61704723D01*
X83868780Y-61323771D01*
X83916400Y-61228533D01*
X83964019Y-61180914D01*
X84059257Y-61133295D01*
X84202114Y-61133295D01*
X84297352Y-61180914D01*
X84344971Y-61228533D01*
X84392590Y-61323771D01*
X84392590Y-61704723D01*
X84868780Y-60704723D02*
X84202114Y-60704723D01*
X84392590Y-60704723D02*
X84297352Y-60657104D01*
X84249733Y-60609485D01*
X84202114Y-60514247D01*
X84202114Y-60419009D01*
X84868780Y-60085676D02*
X84202114Y-60085676D01*
X83868780Y-60085676D02*
X83916400Y-60133295D01*
X83964019Y-60085676D01*
X83916400Y-60038057D01*
X83868780Y-60085676D01*
X83964019Y-60085676D01*
X106821161Y-62038057D02*
X106868780Y-61895200D01*
X106868780Y-61657104D01*
X106821161Y-61561866D01*
X106773542Y-61514247D01*
X106678304Y-61466628D01*
X106583066Y-61466628D01*
X106487828Y-61514247D01*
X106440209Y-61561866D01*
X106392590Y-61657104D01*
X106344971Y-61847580D01*
X106297352Y-61942819D01*
X106249733Y-61990438D01*
X106154495Y-62038057D01*
X106059257Y-62038057D01*
X105964019Y-61990438D01*
X105916400Y-61942819D01*
X105868780Y-61847580D01*
X105868780Y-61609485D01*
X105916400Y-61466628D01*
X106821161Y-60657104D02*
X106868780Y-60752342D01*
X106868780Y-60942819D01*
X106821161Y-61038057D01*
X106725923Y-61085676D01*
X106344971Y-61085676D01*
X106249733Y-61038057D01*
X106202114Y-60942819D01*
X106202114Y-60752342D01*
X106249733Y-60657104D01*
X106344971Y-60609485D01*
X106440209Y-60609485D01*
X106535447Y-61085676D01*
X106821161Y-59752342D02*
X106868780Y-59847580D01*
X106868780Y-60038057D01*
X106821161Y-60133295D01*
X106773542Y-60180914D01*
X106678304Y-60228533D01*
X106392590Y-60228533D01*
X106297352Y-60180914D01*
X106249733Y-60133295D01*
X106202114Y-60038057D01*
X106202114Y-59847580D01*
X106249733Y-59752342D01*
X63617180Y-84691504D02*
X62617180Y-84691504D01*
X63617180Y-84120076D02*
X63045752Y-84548647D01*
X62617180Y-84120076D02*
X63188609Y-84691504D01*
M02*
