G04 #@! TF.GenerationSoftware,KiCad,Pcbnew,(5.1.5)-3*
G04 #@! TF.CreationDate,2020-06-24T22:18:20+03:00*
G04 #@! TF.ProjectId,Hardwareproject,48617264-7761-4726-9570-726f6a656374,rev?*
G04 #@! TF.SameCoordinates,Original*
G04 #@! TF.FileFunction,Copper,L1,Top*
G04 #@! TF.FilePolarity,Positive*
%FSLAX46Y46*%
G04 Gerber Fmt 4.6, Leading zero omitted, Abs format (unit mm)*
G04 Created by KiCad (PCBNEW (5.1.5)-3) date 2020-06-24 22:18:20*
%MOMM*%
%LPD*%
G04 APERTURE LIST*
%ADD10C,3.000000*%
%ADD11C,2.999999*%
%ADD12C,0.100000*%
%ADD13O,1.800000X1.800000*%
%ADD14R,1.800000X1.800000*%
%ADD15C,2.400000*%
%ADD16R,2.400000X2.400000*%
%ADD17C,1.600000*%
%ADD18R,1.600000X1.600000*%
%ADD19O,1.400000X1.400000*%
%ADD20C,1.400000*%
%ADD21O,3.500000X2.000000*%
%ADD22O,2.000000X3.300000*%
%ADD23R,2.000000X4.000000*%
%ADD24O,1.600000X1.600000*%
%ADD25O,2.000000X1.905000*%
%ADD26R,2.000000X1.905000*%
%ADD27C,10.160000*%
%ADD28O,2.000000X2.000000*%
%ADD29R,2.000000X2.000000*%
%ADD30C,2.390000*%
%ADD31C,0.250000*%
%ADD32C,3.560000*%
%ADD33C,0.300000*%
%ADD34C,0.254000*%
G04 APERTURE END LIST*
D10*
X110416400Y-75895200D03*
D11*
X110416400Y-70895200D03*
D10*
X110416400Y-65895200D03*
X110416400Y-60895200D03*
X110416400Y-55895200D03*
D11*
X110416400Y-50895200D03*
X110416400Y-45895200D03*
X80416400Y-45895200D03*
D10*
X80416400Y-50895200D03*
D11*
X80416400Y-55895200D03*
X80416400Y-60895200D03*
D10*
X80416400Y-65895200D03*
X80416400Y-70895200D03*
D11*
X80416400Y-75895200D03*
G04 #@! TA.AperFunction,SMDPad,CuDef*
D12*
G36*
X95771505Y-117817204D02*
G01*
X95795773Y-117820804D01*
X95819572Y-117826765D01*
X95842671Y-117835030D01*
X95864850Y-117845520D01*
X95885893Y-117858132D01*
X95905599Y-117872747D01*
X95923777Y-117889223D01*
X95940253Y-117907401D01*
X95954868Y-117927107D01*
X95967480Y-117948150D01*
X95977970Y-117970329D01*
X95986235Y-117993428D01*
X95992196Y-118017227D01*
X95995796Y-118041495D01*
X95997000Y-118065999D01*
X95997000Y-118916001D01*
X95995796Y-118940505D01*
X95992196Y-118964773D01*
X95986235Y-118988572D01*
X95977970Y-119011671D01*
X95967480Y-119033850D01*
X95954868Y-119054893D01*
X95940253Y-119074599D01*
X95923777Y-119092777D01*
X95905599Y-119109253D01*
X95885893Y-119123868D01*
X95864850Y-119136480D01*
X95842671Y-119146970D01*
X95819572Y-119155235D01*
X95795773Y-119161196D01*
X95771505Y-119164796D01*
X95747001Y-119166000D01*
X94846999Y-119166000D01*
X94822495Y-119164796D01*
X94798227Y-119161196D01*
X94774428Y-119155235D01*
X94751329Y-119146970D01*
X94729150Y-119136480D01*
X94708107Y-119123868D01*
X94688401Y-119109253D01*
X94670223Y-119092777D01*
X94653747Y-119074599D01*
X94639132Y-119054893D01*
X94626520Y-119033850D01*
X94616030Y-119011671D01*
X94607765Y-118988572D01*
X94601804Y-118964773D01*
X94598204Y-118940505D01*
X94597000Y-118916001D01*
X94597000Y-118065999D01*
X94598204Y-118041495D01*
X94601804Y-118017227D01*
X94607765Y-117993428D01*
X94616030Y-117970329D01*
X94626520Y-117948150D01*
X94639132Y-117927107D01*
X94653747Y-117907401D01*
X94670223Y-117889223D01*
X94688401Y-117872747D01*
X94708107Y-117858132D01*
X94729150Y-117845520D01*
X94751329Y-117835030D01*
X94774428Y-117826765D01*
X94798227Y-117820804D01*
X94822495Y-117817204D01*
X94846999Y-117816000D01*
X95747001Y-117816000D01*
X95771505Y-117817204D01*
G37*
G04 #@! TD.AperFunction*
G04 #@! TA.AperFunction,SMDPad,CuDef*
G36*
X98471505Y-117817204D02*
G01*
X98495773Y-117820804D01*
X98519572Y-117826765D01*
X98542671Y-117835030D01*
X98564850Y-117845520D01*
X98585893Y-117858132D01*
X98605599Y-117872747D01*
X98623777Y-117889223D01*
X98640253Y-117907401D01*
X98654868Y-117927107D01*
X98667480Y-117948150D01*
X98677970Y-117970329D01*
X98686235Y-117993428D01*
X98692196Y-118017227D01*
X98695796Y-118041495D01*
X98697000Y-118065999D01*
X98697000Y-118916001D01*
X98695796Y-118940505D01*
X98692196Y-118964773D01*
X98686235Y-118988572D01*
X98677970Y-119011671D01*
X98667480Y-119033850D01*
X98654868Y-119054893D01*
X98640253Y-119074599D01*
X98623777Y-119092777D01*
X98605599Y-119109253D01*
X98585893Y-119123868D01*
X98564850Y-119136480D01*
X98542671Y-119146970D01*
X98519572Y-119155235D01*
X98495773Y-119161196D01*
X98471505Y-119164796D01*
X98447001Y-119166000D01*
X97546999Y-119166000D01*
X97522495Y-119164796D01*
X97498227Y-119161196D01*
X97474428Y-119155235D01*
X97451329Y-119146970D01*
X97429150Y-119136480D01*
X97408107Y-119123868D01*
X97388401Y-119109253D01*
X97370223Y-119092777D01*
X97353747Y-119074599D01*
X97339132Y-119054893D01*
X97326520Y-119033850D01*
X97316030Y-119011671D01*
X97307765Y-118988572D01*
X97301804Y-118964773D01*
X97298204Y-118940505D01*
X97297000Y-118916001D01*
X97297000Y-118065999D01*
X97298204Y-118041495D01*
X97301804Y-118017227D01*
X97307765Y-117993428D01*
X97316030Y-117970329D01*
X97326520Y-117948150D01*
X97339132Y-117927107D01*
X97353747Y-117907401D01*
X97370223Y-117889223D01*
X97388401Y-117872747D01*
X97408107Y-117858132D01*
X97429150Y-117845520D01*
X97451329Y-117835030D01*
X97474428Y-117826765D01*
X97498227Y-117820804D01*
X97522495Y-117817204D01*
X97546999Y-117816000D01*
X98447001Y-117816000D01*
X98471505Y-117817204D01*
G37*
G04 #@! TD.AperFunction*
G04 #@! TA.AperFunction,SMDPad,CuDef*
G36*
X124600505Y-111467204D02*
G01*
X124624773Y-111470804D01*
X124648572Y-111476765D01*
X124671671Y-111485030D01*
X124693850Y-111495520D01*
X124714893Y-111508132D01*
X124734599Y-111522747D01*
X124752777Y-111539223D01*
X124769253Y-111557401D01*
X124783868Y-111577107D01*
X124796480Y-111598150D01*
X124806970Y-111620329D01*
X124815235Y-111643428D01*
X124821196Y-111667227D01*
X124824796Y-111691495D01*
X124826000Y-111715999D01*
X124826000Y-112566001D01*
X124824796Y-112590505D01*
X124821196Y-112614773D01*
X124815235Y-112638572D01*
X124806970Y-112661671D01*
X124796480Y-112683850D01*
X124783868Y-112704893D01*
X124769253Y-112724599D01*
X124752777Y-112742777D01*
X124734599Y-112759253D01*
X124714893Y-112773868D01*
X124693850Y-112786480D01*
X124671671Y-112796970D01*
X124648572Y-112805235D01*
X124624773Y-112811196D01*
X124600505Y-112814796D01*
X124576001Y-112816000D01*
X123675999Y-112816000D01*
X123651495Y-112814796D01*
X123627227Y-112811196D01*
X123603428Y-112805235D01*
X123580329Y-112796970D01*
X123558150Y-112786480D01*
X123537107Y-112773868D01*
X123517401Y-112759253D01*
X123499223Y-112742777D01*
X123482747Y-112724599D01*
X123468132Y-112704893D01*
X123455520Y-112683850D01*
X123445030Y-112661671D01*
X123436765Y-112638572D01*
X123430804Y-112614773D01*
X123427204Y-112590505D01*
X123426000Y-112566001D01*
X123426000Y-111715999D01*
X123427204Y-111691495D01*
X123430804Y-111667227D01*
X123436765Y-111643428D01*
X123445030Y-111620329D01*
X123455520Y-111598150D01*
X123468132Y-111577107D01*
X123482747Y-111557401D01*
X123499223Y-111539223D01*
X123517401Y-111522747D01*
X123537107Y-111508132D01*
X123558150Y-111495520D01*
X123580329Y-111485030D01*
X123603428Y-111476765D01*
X123627227Y-111470804D01*
X123651495Y-111467204D01*
X123675999Y-111466000D01*
X124576001Y-111466000D01*
X124600505Y-111467204D01*
G37*
G04 #@! TD.AperFunction*
G04 #@! TA.AperFunction,SMDPad,CuDef*
G36*
X127300505Y-111467204D02*
G01*
X127324773Y-111470804D01*
X127348572Y-111476765D01*
X127371671Y-111485030D01*
X127393850Y-111495520D01*
X127414893Y-111508132D01*
X127434599Y-111522747D01*
X127452777Y-111539223D01*
X127469253Y-111557401D01*
X127483868Y-111577107D01*
X127496480Y-111598150D01*
X127506970Y-111620329D01*
X127515235Y-111643428D01*
X127521196Y-111667227D01*
X127524796Y-111691495D01*
X127526000Y-111715999D01*
X127526000Y-112566001D01*
X127524796Y-112590505D01*
X127521196Y-112614773D01*
X127515235Y-112638572D01*
X127506970Y-112661671D01*
X127496480Y-112683850D01*
X127483868Y-112704893D01*
X127469253Y-112724599D01*
X127452777Y-112742777D01*
X127434599Y-112759253D01*
X127414893Y-112773868D01*
X127393850Y-112786480D01*
X127371671Y-112796970D01*
X127348572Y-112805235D01*
X127324773Y-112811196D01*
X127300505Y-112814796D01*
X127276001Y-112816000D01*
X126375999Y-112816000D01*
X126351495Y-112814796D01*
X126327227Y-112811196D01*
X126303428Y-112805235D01*
X126280329Y-112796970D01*
X126258150Y-112786480D01*
X126237107Y-112773868D01*
X126217401Y-112759253D01*
X126199223Y-112742777D01*
X126182747Y-112724599D01*
X126168132Y-112704893D01*
X126155520Y-112683850D01*
X126145030Y-112661671D01*
X126136765Y-112638572D01*
X126130804Y-112614773D01*
X126127204Y-112590505D01*
X126126000Y-112566001D01*
X126126000Y-111715999D01*
X126127204Y-111691495D01*
X126130804Y-111667227D01*
X126136765Y-111643428D01*
X126145030Y-111620329D01*
X126155520Y-111598150D01*
X126168132Y-111577107D01*
X126182747Y-111557401D01*
X126199223Y-111539223D01*
X126217401Y-111522747D01*
X126237107Y-111508132D01*
X126258150Y-111495520D01*
X126280329Y-111485030D01*
X126303428Y-111476765D01*
X126327227Y-111470804D01*
X126351495Y-111467204D01*
X126375999Y-111466000D01*
X127276001Y-111466000D01*
X127300505Y-111467204D01*
G37*
G04 #@! TD.AperFunction*
G04 #@! TA.AperFunction,SMDPad,CuDef*
G36*
X99327505Y-113626204D02*
G01*
X99351773Y-113629804D01*
X99375572Y-113635765D01*
X99398671Y-113644030D01*
X99420850Y-113654520D01*
X99441893Y-113667132D01*
X99461599Y-113681747D01*
X99479777Y-113698223D01*
X99496253Y-113716401D01*
X99510868Y-113736107D01*
X99523480Y-113757150D01*
X99533970Y-113779329D01*
X99542235Y-113802428D01*
X99548196Y-113826227D01*
X99551796Y-113850495D01*
X99553000Y-113874999D01*
X99553000Y-114725001D01*
X99551796Y-114749505D01*
X99548196Y-114773773D01*
X99542235Y-114797572D01*
X99533970Y-114820671D01*
X99523480Y-114842850D01*
X99510868Y-114863893D01*
X99496253Y-114883599D01*
X99479777Y-114901777D01*
X99461599Y-114918253D01*
X99441893Y-114932868D01*
X99420850Y-114945480D01*
X99398671Y-114955970D01*
X99375572Y-114964235D01*
X99351773Y-114970196D01*
X99327505Y-114973796D01*
X99303001Y-114975000D01*
X98402999Y-114975000D01*
X98378495Y-114973796D01*
X98354227Y-114970196D01*
X98330428Y-114964235D01*
X98307329Y-114955970D01*
X98285150Y-114945480D01*
X98264107Y-114932868D01*
X98244401Y-114918253D01*
X98226223Y-114901777D01*
X98209747Y-114883599D01*
X98195132Y-114863893D01*
X98182520Y-114842850D01*
X98172030Y-114820671D01*
X98163765Y-114797572D01*
X98157804Y-114773773D01*
X98154204Y-114749505D01*
X98153000Y-114725001D01*
X98153000Y-113874999D01*
X98154204Y-113850495D01*
X98157804Y-113826227D01*
X98163765Y-113802428D01*
X98172030Y-113779329D01*
X98182520Y-113757150D01*
X98195132Y-113736107D01*
X98209747Y-113716401D01*
X98226223Y-113698223D01*
X98244401Y-113681747D01*
X98264107Y-113667132D01*
X98285150Y-113654520D01*
X98307329Y-113644030D01*
X98330428Y-113635765D01*
X98354227Y-113629804D01*
X98378495Y-113626204D01*
X98402999Y-113625000D01*
X99303001Y-113625000D01*
X99327505Y-113626204D01*
G37*
G04 #@! TD.AperFunction*
G04 #@! TA.AperFunction,SMDPad,CuDef*
G36*
X102027505Y-113626204D02*
G01*
X102051773Y-113629804D01*
X102075572Y-113635765D01*
X102098671Y-113644030D01*
X102120850Y-113654520D01*
X102141893Y-113667132D01*
X102161599Y-113681747D01*
X102179777Y-113698223D01*
X102196253Y-113716401D01*
X102210868Y-113736107D01*
X102223480Y-113757150D01*
X102233970Y-113779329D01*
X102242235Y-113802428D01*
X102248196Y-113826227D01*
X102251796Y-113850495D01*
X102253000Y-113874999D01*
X102253000Y-114725001D01*
X102251796Y-114749505D01*
X102248196Y-114773773D01*
X102242235Y-114797572D01*
X102233970Y-114820671D01*
X102223480Y-114842850D01*
X102210868Y-114863893D01*
X102196253Y-114883599D01*
X102179777Y-114901777D01*
X102161599Y-114918253D01*
X102141893Y-114932868D01*
X102120850Y-114945480D01*
X102098671Y-114955970D01*
X102075572Y-114964235D01*
X102051773Y-114970196D01*
X102027505Y-114973796D01*
X102003001Y-114975000D01*
X101102999Y-114975000D01*
X101078495Y-114973796D01*
X101054227Y-114970196D01*
X101030428Y-114964235D01*
X101007329Y-114955970D01*
X100985150Y-114945480D01*
X100964107Y-114932868D01*
X100944401Y-114918253D01*
X100926223Y-114901777D01*
X100909747Y-114883599D01*
X100895132Y-114863893D01*
X100882520Y-114842850D01*
X100872030Y-114820671D01*
X100863765Y-114797572D01*
X100857804Y-114773773D01*
X100854204Y-114749505D01*
X100853000Y-114725001D01*
X100853000Y-113874999D01*
X100854204Y-113850495D01*
X100857804Y-113826227D01*
X100863765Y-113802428D01*
X100872030Y-113779329D01*
X100882520Y-113757150D01*
X100895132Y-113736107D01*
X100909747Y-113716401D01*
X100926223Y-113698223D01*
X100944401Y-113681747D01*
X100964107Y-113667132D01*
X100985150Y-113654520D01*
X101007329Y-113644030D01*
X101030428Y-113635765D01*
X101054227Y-113629804D01*
X101078495Y-113626204D01*
X101102999Y-113625000D01*
X102003001Y-113625000D01*
X102027505Y-113626204D01*
G37*
G04 #@! TD.AperFunction*
G04 #@! TA.AperFunction,SMDPad,CuDef*
G36*
X56329505Y-123841204D02*
G01*
X56353773Y-123844804D01*
X56377572Y-123850765D01*
X56400671Y-123859030D01*
X56422850Y-123869520D01*
X56443893Y-123882132D01*
X56463599Y-123896747D01*
X56481777Y-123913223D01*
X56498253Y-123931401D01*
X56512868Y-123951107D01*
X56525480Y-123972150D01*
X56535970Y-123994329D01*
X56544235Y-124017428D01*
X56550196Y-124041227D01*
X56553796Y-124065495D01*
X56555000Y-124089999D01*
X56555000Y-124990001D01*
X56553796Y-125014505D01*
X56550196Y-125038773D01*
X56544235Y-125062572D01*
X56535970Y-125085671D01*
X56525480Y-125107850D01*
X56512868Y-125128893D01*
X56498253Y-125148599D01*
X56481777Y-125166777D01*
X56463599Y-125183253D01*
X56443893Y-125197868D01*
X56422850Y-125210480D01*
X56400671Y-125220970D01*
X56377572Y-125229235D01*
X56353773Y-125235196D01*
X56329505Y-125238796D01*
X56305001Y-125240000D01*
X55454999Y-125240000D01*
X55430495Y-125238796D01*
X55406227Y-125235196D01*
X55382428Y-125229235D01*
X55359329Y-125220970D01*
X55337150Y-125210480D01*
X55316107Y-125197868D01*
X55296401Y-125183253D01*
X55278223Y-125166777D01*
X55261747Y-125148599D01*
X55247132Y-125128893D01*
X55234520Y-125107850D01*
X55224030Y-125085671D01*
X55215765Y-125062572D01*
X55209804Y-125038773D01*
X55206204Y-125014505D01*
X55205000Y-124990001D01*
X55205000Y-124089999D01*
X55206204Y-124065495D01*
X55209804Y-124041227D01*
X55215765Y-124017428D01*
X55224030Y-123994329D01*
X55234520Y-123972150D01*
X55247132Y-123951107D01*
X55261747Y-123931401D01*
X55278223Y-123913223D01*
X55296401Y-123896747D01*
X55316107Y-123882132D01*
X55337150Y-123869520D01*
X55359329Y-123859030D01*
X55382428Y-123850765D01*
X55406227Y-123844804D01*
X55430495Y-123841204D01*
X55454999Y-123840000D01*
X56305001Y-123840000D01*
X56329505Y-123841204D01*
G37*
G04 #@! TD.AperFunction*
G04 #@! TA.AperFunction,SMDPad,CuDef*
G36*
X56329505Y-121141204D02*
G01*
X56353773Y-121144804D01*
X56377572Y-121150765D01*
X56400671Y-121159030D01*
X56422850Y-121169520D01*
X56443893Y-121182132D01*
X56463599Y-121196747D01*
X56481777Y-121213223D01*
X56498253Y-121231401D01*
X56512868Y-121251107D01*
X56525480Y-121272150D01*
X56535970Y-121294329D01*
X56544235Y-121317428D01*
X56550196Y-121341227D01*
X56553796Y-121365495D01*
X56555000Y-121389999D01*
X56555000Y-122290001D01*
X56553796Y-122314505D01*
X56550196Y-122338773D01*
X56544235Y-122362572D01*
X56535970Y-122385671D01*
X56525480Y-122407850D01*
X56512868Y-122428893D01*
X56498253Y-122448599D01*
X56481777Y-122466777D01*
X56463599Y-122483253D01*
X56443893Y-122497868D01*
X56422850Y-122510480D01*
X56400671Y-122520970D01*
X56377572Y-122529235D01*
X56353773Y-122535196D01*
X56329505Y-122538796D01*
X56305001Y-122540000D01*
X55454999Y-122540000D01*
X55430495Y-122538796D01*
X55406227Y-122535196D01*
X55382428Y-122529235D01*
X55359329Y-122520970D01*
X55337150Y-122510480D01*
X55316107Y-122497868D01*
X55296401Y-122483253D01*
X55278223Y-122466777D01*
X55261747Y-122448599D01*
X55247132Y-122428893D01*
X55234520Y-122407850D01*
X55224030Y-122385671D01*
X55215765Y-122362572D01*
X55209804Y-122338773D01*
X55206204Y-122314505D01*
X55205000Y-122290001D01*
X55205000Y-121389999D01*
X55206204Y-121365495D01*
X55209804Y-121341227D01*
X55215765Y-121317428D01*
X55224030Y-121294329D01*
X55234520Y-121272150D01*
X55247132Y-121251107D01*
X55261747Y-121231401D01*
X55278223Y-121213223D01*
X55296401Y-121196747D01*
X55316107Y-121182132D01*
X55337150Y-121169520D01*
X55359329Y-121159030D01*
X55382428Y-121150765D01*
X55406227Y-121144804D01*
X55430495Y-121141204D01*
X55454999Y-121140000D01*
X56305001Y-121140000D01*
X56329505Y-121141204D01*
G37*
G04 #@! TD.AperFunction*
D10*
X73660000Y-115580000D03*
X73660000Y-97780000D03*
X130800000Y-46990000D03*
X148600000Y-46990000D03*
D13*
X61264800Y-92049600D03*
D14*
X61264800Y-84429600D03*
D15*
X143510000Y-77390000D03*
D16*
X143510000Y-72390000D03*
D17*
X62839600Y-76972800D03*
D18*
X62839600Y-74472800D03*
D19*
X107823000Y-123063000D03*
D20*
X107823000Y-117983000D03*
D19*
X112649000Y-112395000D03*
D20*
X117729000Y-112395000D03*
D19*
X89154000Y-114300000D03*
D20*
X94234000Y-114300000D03*
D19*
X55880000Y-119380000D03*
D20*
X55880000Y-114300000D03*
D19*
X116840000Y-107696000D03*
D20*
X121920000Y-107696000D03*
D19*
X53543200Y-78740000D03*
D20*
X53543200Y-73660000D03*
D21*
X33640000Y-101020000D03*
X33640000Y-92020000D03*
D22*
X34640000Y-96520000D03*
D23*
X40640000Y-96520000D03*
D21*
X33640000Y-69270000D03*
X33640000Y-60270000D03*
D22*
X34640000Y-64770000D03*
D23*
X40640000Y-64770000D03*
D24*
X53086000Y-108966000D03*
X60706000Y-101346000D03*
X53086000Y-106426000D03*
X60706000Y-103886000D03*
X53086000Y-103886000D03*
X60706000Y-106426000D03*
X53086000Y-101346000D03*
D18*
X60706000Y-108966000D03*
D25*
X73660000Y-107950000D03*
X73660000Y-105410000D03*
D26*
X73660000Y-102870000D03*
D27*
X161137600Y-86512400D03*
X160731200Y-65125600D03*
D28*
X137160000Y-46990000D03*
D29*
X142240000Y-46990000D03*
D30*
X78295082Y-45895200D02*
X80416400Y-45895200D01*
X55124800Y-45895200D02*
X78295082Y-45895200D01*
X40640000Y-64770000D02*
X40640000Y-60380000D01*
X48260000Y-53340000D02*
X55124800Y-45895200D01*
D31*
X62026800Y-73660000D02*
X62839600Y-74472800D01*
X56896000Y-69088000D02*
X44577000Y-56769000D01*
X53543200Y-73660000D02*
X56896000Y-73660000D01*
X56896000Y-73660000D02*
X56896000Y-69088000D01*
D30*
X44577000Y-56769000D02*
X48260000Y-53340000D01*
D31*
X56896000Y-73660000D02*
X62026800Y-73660000D01*
D30*
X40640000Y-60380000D02*
X44577000Y-56769000D01*
D31*
X61264800Y-78547600D02*
X62839600Y-76972800D01*
X61264800Y-84429600D02*
X61264800Y-78547600D01*
X53543200Y-78740000D02*
X61087000Y-78740000D01*
X61087000Y-78725400D02*
X61264800Y-78547600D01*
X61087000Y-78740000D02*
X61087000Y-78725400D01*
D32*
X153466800Y-72390000D02*
X160731200Y-65125600D01*
X143510000Y-72390000D02*
X153466800Y-72390000D01*
D31*
X122909949Y-107696000D02*
X125476000Y-110262051D01*
X121920000Y-107696000D02*
X122909949Y-107696000D01*
X155014602Y-72390000D02*
X153466800Y-72390000D01*
D32*
X142240000Y-71120000D02*
X143510000Y-72390000D01*
X142240000Y-46990000D02*
X142240000Y-71120000D01*
D31*
X126126000Y-112141000D02*
X126826000Y-112141000D01*
X125476000Y-111491000D02*
X126126000Y-112141000D01*
X125476000Y-110262051D02*
X125476000Y-111491000D01*
D32*
X133254800Y-50895200D02*
X110416400Y-50895200D01*
X137160000Y-46990000D02*
X133254800Y-50895200D01*
X116911200Y-77390000D02*
X143510000Y-77390000D01*
X110416400Y-70895200D02*
X116911200Y-77390000D01*
X152015200Y-77390000D02*
X161137600Y-86512400D01*
X143510000Y-77390000D02*
X152015200Y-77390000D01*
D30*
X77050000Y-105410000D02*
X73660000Y-105410000D01*
X80416400Y-102043600D02*
X77050000Y-105410000D01*
X80416400Y-75895200D02*
X80416400Y-102043600D01*
D33*
X53885999Y-103086001D02*
X53086000Y-103886000D01*
X56776001Y-100195999D02*
X53885999Y-103086001D01*
X69685999Y-100195999D02*
X56776001Y-100195999D01*
X72360000Y-102870000D02*
X69685999Y-100195999D01*
X73660000Y-102870000D02*
X72360000Y-102870000D01*
D31*
X56134000Y-119634000D02*
X55880000Y-119380000D01*
X56134000Y-121920000D02*
X56134000Y-119634000D01*
X59906001Y-102145999D02*
X60706000Y-101346000D01*
X56905001Y-105146999D02*
X59906001Y-102145999D01*
X56905001Y-118354999D02*
X56905001Y-105146999D01*
X55880000Y-119380000D02*
X56905001Y-118354999D01*
X97703000Y-114300000D02*
X98853000Y-114300000D01*
X94234000Y-114300000D02*
X97703000Y-114300000D01*
X112649000Y-110897051D02*
X112649000Y-111405051D01*
X115850051Y-107696000D02*
X112649000Y-110897051D01*
X112649000Y-111405051D02*
X112649000Y-112395000D01*
X116840000Y-107696000D02*
X115850051Y-107696000D01*
X107823000Y-116993051D02*
X107823000Y-117983000D01*
X111659051Y-112395000D02*
X107823000Y-116231051D01*
X107823000Y-116231051D02*
X107823000Y-116993051D01*
X112649000Y-112395000D02*
X111659051Y-112395000D01*
X104013000Y-117435000D02*
X104013000Y-117983000D01*
X107823000Y-117983000D02*
X104013000Y-117983000D01*
X104013000Y-117983000D02*
X103886000Y-117983000D01*
X98697000Y-118491000D02*
X99205000Y-117983000D01*
X99205000Y-117983000D02*
X103886000Y-117983000D01*
X97997000Y-118491000D02*
X98697000Y-118491000D01*
X101640000Y-115062000D02*
X101727000Y-115062000D01*
X101553000Y-114975000D02*
X101640000Y-115062000D01*
X101553000Y-114300000D02*
X101553000Y-114975000D01*
X101727000Y-115062000D02*
X104013000Y-117435000D01*
X97671990Y-119491010D02*
X86090010Y-119491010D01*
X97997000Y-118491000D02*
X97997000Y-119166000D01*
X97997000Y-119166000D02*
X97671990Y-119491010D01*
X86090010Y-119491010D02*
X78359000Y-111760000D01*
X66040000Y-111760000D02*
X60706000Y-106426000D01*
X78359000Y-111760000D02*
X66040000Y-111760000D01*
X117983000Y-112141000D02*
X117729000Y-112395000D01*
X122976000Y-112141000D02*
X117983000Y-112141000D01*
X122976000Y-112141000D02*
X124126000Y-112141000D01*
X89956000Y-114300000D02*
X89154000Y-114300000D01*
X94147000Y-118491000D02*
X89956000Y-114300000D01*
X94147000Y-118491000D02*
X95297000Y-118491000D01*
X43180000Y-96520000D02*
X53086000Y-106426000D01*
X40640000Y-96520000D02*
X43180000Y-96520000D01*
X55880000Y-111760000D02*
X53086000Y-108966000D01*
X55880000Y-114300000D02*
X55880000Y-111760000D01*
D34*
G36*
X177140001Y-139040000D02*
G01*
X26060000Y-139040000D01*
X26060000Y-125240000D01*
X54566928Y-125240000D01*
X54579188Y-125364482D01*
X54615498Y-125484180D01*
X54674463Y-125594494D01*
X54753815Y-125691185D01*
X54850506Y-125770537D01*
X54960820Y-125829502D01*
X55080518Y-125865812D01*
X55205000Y-125878072D01*
X55594250Y-125875000D01*
X55753000Y-125716250D01*
X55753000Y-124667000D01*
X56007000Y-124667000D01*
X56007000Y-125716250D01*
X56165750Y-125875000D01*
X56555000Y-125878072D01*
X56679482Y-125865812D01*
X56799180Y-125829502D01*
X56909494Y-125770537D01*
X57006185Y-125691185D01*
X57085537Y-125594494D01*
X57144502Y-125484180D01*
X57180812Y-125364482D01*
X57193072Y-125240000D01*
X57190000Y-124825750D01*
X57031250Y-124667000D01*
X56007000Y-124667000D01*
X55753000Y-124667000D01*
X54728750Y-124667000D01*
X54570000Y-124825750D01*
X54566928Y-125240000D01*
X26060000Y-125240000D01*
X26060000Y-123840000D01*
X54566928Y-123840000D01*
X54570000Y-124254250D01*
X54728750Y-124413000D01*
X55753000Y-124413000D01*
X55753000Y-123363750D01*
X56007000Y-123363750D01*
X56007000Y-124413000D01*
X57031250Y-124413000D01*
X57190000Y-124254250D01*
X57193072Y-123840000D01*
X57180812Y-123715518D01*
X57144502Y-123595820D01*
X57085537Y-123485506D01*
X57012353Y-123396330D01*
X106530278Y-123396330D01*
X106620147Y-123642123D01*
X106756241Y-123865660D01*
X106933330Y-124058351D01*
X107144608Y-124212792D01*
X107381956Y-124323047D01*
X107489671Y-124355716D01*
X107696000Y-124232374D01*
X107696000Y-123190000D01*
X107950000Y-123190000D01*
X107950000Y-124232374D01*
X108156329Y-124355716D01*
X108264044Y-124323047D01*
X108501392Y-124212792D01*
X108712670Y-124058351D01*
X108889759Y-123865660D01*
X109025853Y-123642123D01*
X109115722Y-123396330D01*
X108993201Y-123190000D01*
X107950000Y-123190000D01*
X107696000Y-123190000D01*
X106652799Y-123190000D01*
X106530278Y-123396330D01*
X57012353Y-123396330D01*
X57006185Y-123388815D01*
X56909494Y-123309463D01*
X56799180Y-123250498D01*
X56679482Y-123214188D01*
X56555000Y-123201928D01*
X56165750Y-123205000D01*
X56007000Y-123363750D01*
X55753000Y-123363750D01*
X55594250Y-123205000D01*
X55205000Y-123201928D01*
X55080518Y-123214188D01*
X54960820Y-123250498D01*
X54850506Y-123309463D01*
X54753815Y-123388815D01*
X54674463Y-123485506D01*
X54615498Y-123595820D01*
X54579188Y-123715518D01*
X54566928Y-123840000D01*
X26060000Y-123840000D01*
X26060000Y-101020000D01*
X31247089Y-101020000D01*
X31278657Y-101340516D01*
X31372148Y-101648715D01*
X31523969Y-101932752D01*
X31728286Y-102181714D01*
X31977248Y-102386031D01*
X32261285Y-102537852D01*
X32569484Y-102631343D01*
X32809678Y-102655000D01*
X34470322Y-102655000D01*
X34710516Y-102631343D01*
X35018715Y-102537852D01*
X35302752Y-102386031D01*
X35551714Y-102181714D01*
X35756031Y-101932752D01*
X35907852Y-101648715D01*
X36001343Y-101340516D01*
X36032911Y-101020000D01*
X36001343Y-100699484D01*
X35907852Y-100391285D01*
X35756031Y-100107248D01*
X35551714Y-99858286D01*
X35302752Y-99653969D01*
X35018715Y-99502148D01*
X34710516Y-99408657D01*
X34470322Y-99385000D01*
X32809678Y-99385000D01*
X32569484Y-99408657D01*
X32261285Y-99502148D01*
X31977248Y-99653969D01*
X31728286Y-99858286D01*
X31523969Y-100107248D01*
X31372148Y-100391285D01*
X31278657Y-100699484D01*
X31247089Y-101020000D01*
X26060000Y-101020000D01*
X26060000Y-96378665D01*
X30205000Y-96378665D01*
X30205000Y-96661335D01*
X30260147Y-96938574D01*
X30368320Y-97199727D01*
X30525363Y-97434759D01*
X30725241Y-97634637D01*
X30960273Y-97791680D01*
X31221426Y-97899853D01*
X31498665Y-97955000D01*
X31781335Y-97955000D01*
X32058574Y-97899853D01*
X32319727Y-97791680D01*
X32554759Y-97634637D01*
X32754637Y-97434759D01*
X32911680Y-97199727D01*
X33005000Y-96974432D01*
X33005000Y-97297000D01*
X33061193Y-97613532D01*
X33178058Y-97913020D01*
X33351105Y-98183954D01*
X33573683Y-98415922D01*
X33837239Y-98600010D01*
X34131645Y-98729144D01*
X34259566Y-98760124D01*
X34513000Y-98640777D01*
X34513000Y-96647000D01*
X34767000Y-96647000D01*
X34767000Y-98640777D01*
X35020434Y-98760124D01*
X35148355Y-98729144D01*
X35442761Y-98600010D01*
X35706317Y-98415922D01*
X35928895Y-98183954D01*
X36101942Y-97913020D01*
X36218807Y-97613532D01*
X36275000Y-97297000D01*
X36275000Y-96647000D01*
X34767000Y-96647000D01*
X34513000Y-96647000D01*
X34493000Y-96647000D01*
X34493000Y-96393000D01*
X34513000Y-96393000D01*
X34513000Y-94399223D01*
X34767000Y-94399223D01*
X34767000Y-96393000D01*
X36275000Y-96393000D01*
X36275000Y-95743000D01*
X36218807Y-95426468D01*
X36101942Y-95126980D01*
X35928895Y-94856046D01*
X35706317Y-94624078D01*
X35557311Y-94520000D01*
X39001928Y-94520000D01*
X39001928Y-98520000D01*
X39014188Y-98644482D01*
X39050498Y-98764180D01*
X39109463Y-98874494D01*
X39188815Y-98971185D01*
X39285506Y-99050537D01*
X39395820Y-99109502D01*
X39515518Y-99145812D01*
X39640000Y-99158072D01*
X41640000Y-99158072D01*
X41764482Y-99145812D01*
X41884180Y-99109502D01*
X41994494Y-99050537D01*
X42091185Y-98971185D01*
X42170537Y-98874494D01*
X42229502Y-98764180D01*
X42265812Y-98644482D01*
X42278072Y-98520000D01*
X42278072Y-97280000D01*
X42865199Y-97280000D01*
X51687312Y-106102114D01*
X51651000Y-106284665D01*
X51651000Y-106567335D01*
X51706147Y-106844574D01*
X51814320Y-107105727D01*
X51971363Y-107340759D01*
X52171241Y-107540637D01*
X52403759Y-107696000D01*
X52171241Y-107851363D01*
X51971363Y-108051241D01*
X51814320Y-108286273D01*
X51706147Y-108547426D01*
X51651000Y-108824665D01*
X51651000Y-109107335D01*
X51706147Y-109384574D01*
X51814320Y-109645727D01*
X51971363Y-109880759D01*
X52171241Y-110080637D01*
X52406273Y-110237680D01*
X52667426Y-110345853D01*
X52944665Y-110401000D01*
X53227335Y-110401000D01*
X53409886Y-110364688D01*
X55120001Y-112074803D01*
X55120000Y-113202225D01*
X55028987Y-113263038D01*
X54843038Y-113448987D01*
X54696939Y-113667641D01*
X54596304Y-113910595D01*
X54545000Y-114168514D01*
X54545000Y-114431486D01*
X54596304Y-114689405D01*
X54696939Y-114932359D01*
X54843038Y-115151013D01*
X55028987Y-115336962D01*
X55247641Y-115483061D01*
X55490595Y-115583696D01*
X55748514Y-115635000D01*
X56011486Y-115635000D01*
X56145001Y-115608442D01*
X56145001Y-118040197D01*
X56118843Y-118066355D01*
X56011486Y-118045000D01*
X55748514Y-118045000D01*
X55490595Y-118096304D01*
X55247641Y-118196939D01*
X55028987Y-118343038D01*
X54843038Y-118528987D01*
X54696939Y-118747641D01*
X54596304Y-118990595D01*
X54545000Y-119248514D01*
X54545000Y-119511486D01*
X54596304Y-119769405D01*
X54696939Y-120012359D01*
X54843038Y-120231013D01*
X55028987Y-120416962D01*
X55212929Y-120539867D01*
X55115149Y-120569528D01*
X54961613Y-120651595D01*
X54827038Y-120762038D01*
X54716595Y-120896613D01*
X54634528Y-121050149D01*
X54583992Y-121216745D01*
X54566928Y-121389999D01*
X54566928Y-122290001D01*
X54583992Y-122463255D01*
X54634528Y-122629851D01*
X54716595Y-122783387D01*
X54827038Y-122917962D01*
X54961613Y-123028405D01*
X55115149Y-123110472D01*
X55281745Y-123161008D01*
X55454999Y-123178072D01*
X56305001Y-123178072D01*
X56478255Y-123161008D01*
X56644851Y-123110472D01*
X56798387Y-123028405D01*
X56932962Y-122917962D01*
X57043405Y-122783387D01*
X57072117Y-122729670D01*
X106530278Y-122729670D01*
X106652799Y-122936000D01*
X107696000Y-122936000D01*
X107696000Y-121893626D01*
X107950000Y-121893626D01*
X107950000Y-122936000D01*
X108993201Y-122936000D01*
X109115722Y-122729670D01*
X109025853Y-122483877D01*
X108889759Y-122260340D01*
X108712670Y-122067649D01*
X108501392Y-121913208D01*
X108264044Y-121802953D01*
X108156329Y-121770284D01*
X107950000Y-121893626D01*
X107696000Y-121893626D01*
X107489671Y-121770284D01*
X107381956Y-121802953D01*
X107144608Y-121913208D01*
X106933330Y-122067649D01*
X106756241Y-122260340D01*
X106620147Y-122483877D01*
X106530278Y-122729670D01*
X57072117Y-122729670D01*
X57125472Y-122629851D01*
X57176008Y-122463255D01*
X57193072Y-122290001D01*
X57193072Y-121389999D01*
X57176008Y-121216745D01*
X57125472Y-121050149D01*
X57043405Y-120896613D01*
X56932962Y-120762038D01*
X56894000Y-120730063D01*
X56894000Y-120253975D01*
X56916962Y-120231013D01*
X57063061Y-120012359D01*
X57163696Y-119769405D01*
X57215000Y-119511486D01*
X57215000Y-119248514D01*
X57193645Y-119141157D01*
X57416005Y-118918797D01*
X57445002Y-118895000D01*
X57539975Y-118779275D01*
X57610547Y-118647246D01*
X57654004Y-118503985D01*
X57665001Y-118392332D01*
X57665001Y-118392323D01*
X57668677Y-118355000D01*
X57665001Y-118317677D01*
X57665001Y-115369721D01*
X71525000Y-115369721D01*
X71525000Y-115790279D01*
X71607047Y-116202756D01*
X71767988Y-116591302D01*
X72001637Y-116940983D01*
X72299017Y-117238363D01*
X72648698Y-117472012D01*
X73037244Y-117632953D01*
X73449721Y-117715000D01*
X73870279Y-117715000D01*
X74282756Y-117632953D01*
X74671302Y-117472012D01*
X75020983Y-117238363D01*
X75318363Y-116940983D01*
X75552012Y-116591302D01*
X75712953Y-116202756D01*
X75795000Y-115790279D01*
X75795000Y-115369721D01*
X75712953Y-114957244D01*
X75552012Y-114568698D01*
X75318363Y-114219017D01*
X75020983Y-113921637D01*
X74671302Y-113687988D01*
X74282756Y-113527047D01*
X73870279Y-113445000D01*
X73449721Y-113445000D01*
X73037244Y-113527047D01*
X72648698Y-113687988D01*
X72299017Y-113921637D01*
X72001637Y-114219017D01*
X71767988Y-114568698D01*
X71607047Y-114957244D01*
X71525000Y-115369721D01*
X57665001Y-115369721D01*
X57665001Y-108166000D01*
X59267928Y-108166000D01*
X59267928Y-109766000D01*
X59280188Y-109890482D01*
X59316498Y-110010180D01*
X59375463Y-110120494D01*
X59454815Y-110217185D01*
X59551506Y-110296537D01*
X59661820Y-110355502D01*
X59781518Y-110391812D01*
X59906000Y-110404072D01*
X61506000Y-110404072D01*
X61630482Y-110391812D01*
X61750180Y-110355502D01*
X61860494Y-110296537D01*
X61957185Y-110217185D01*
X62036537Y-110120494D01*
X62095502Y-110010180D01*
X62131812Y-109890482D01*
X62144072Y-109766000D01*
X62144072Y-108938873D01*
X65476200Y-112271002D01*
X65499999Y-112300001D01*
X65528997Y-112323799D01*
X65615723Y-112394974D01*
X65747753Y-112465546D01*
X65891014Y-112509003D01*
X66002667Y-112520000D01*
X66002676Y-112520000D01*
X66039999Y-112523676D01*
X66077322Y-112520000D01*
X78044199Y-112520000D01*
X85526211Y-120002013D01*
X85550009Y-120031011D01*
X85665734Y-120125984D01*
X85797763Y-120196556D01*
X85941024Y-120240013D01*
X86052677Y-120251010D01*
X86052686Y-120251010D01*
X86090009Y-120254686D01*
X86127332Y-120251010D01*
X97634668Y-120251010D01*
X97671990Y-120254686D01*
X97709312Y-120251010D01*
X97709323Y-120251010D01*
X97820976Y-120240013D01*
X97964237Y-120196556D01*
X98096266Y-120125984D01*
X98211991Y-120031011D01*
X98235794Y-120002007D01*
X98433729Y-119804072D01*
X98447001Y-119804072D01*
X98620255Y-119787008D01*
X98786851Y-119736472D01*
X98940387Y-119654405D01*
X99074962Y-119543962D01*
X99185405Y-119409387D01*
X99267472Y-119255851D01*
X99318008Y-119089255D01*
X99333791Y-118929011D01*
X99519802Y-118743000D01*
X103975667Y-118743000D01*
X104013000Y-118746677D01*
X104050333Y-118743000D01*
X106725225Y-118743000D01*
X106786038Y-118834013D01*
X106971987Y-119019962D01*
X107190641Y-119166061D01*
X107433595Y-119266696D01*
X107691514Y-119318000D01*
X107954486Y-119318000D01*
X108212405Y-119266696D01*
X108455359Y-119166061D01*
X108674013Y-119019962D01*
X108859962Y-118834013D01*
X109006061Y-118615359D01*
X109106696Y-118372405D01*
X109158000Y-118114486D01*
X109158000Y-117851514D01*
X109106696Y-117593595D01*
X109006061Y-117350641D01*
X108859962Y-117131987D01*
X108674013Y-116946038D01*
X108583000Y-116885225D01*
X108583000Y-116545852D01*
X111747439Y-113381414D01*
X111797987Y-113431962D01*
X112016641Y-113578061D01*
X112259595Y-113678696D01*
X112517514Y-113730000D01*
X112780486Y-113730000D01*
X113038405Y-113678696D01*
X113281359Y-113578061D01*
X113500013Y-113431962D01*
X113685962Y-113246013D01*
X113832061Y-113027359D01*
X113932696Y-112784405D01*
X113984000Y-112526486D01*
X113984000Y-112263514D01*
X116394000Y-112263514D01*
X116394000Y-112526486D01*
X116445304Y-112784405D01*
X116545939Y-113027359D01*
X116692038Y-113246013D01*
X116877987Y-113431962D01*
X117096641Y-113578061D01*
X117339595Y-113678696D01*
X117597514Y-113730000D01*
X117860486Y-113730000D01*
X118118405Y-113678696D01*
X118361359Y-113578061D01*
X118580013Y-113431962D01*
X118765962Y-113246013D01*
X118912061Y-113027359D01*
X118964401Y-112901000D01*
X122854056Y-112901000D01*
X122855528Y-112905851D01*
X122937595Y-113059387D01*
X123048038Y-113193962D01*
X123182613Y-113304405D01*
X123336149Y-113386472D01*
X123502745Y-113437008D01*
X123675999Y-113454072D01*
X124576001Y-113454072D01*
X124749255Y-113437008D01*
X124915851Y-113386472D01*
X125069387Y-113304405D01*
X125203962Y-113193962D01*
X125314405Y-113059387D01*
X125396472Y-112905851D01*
X125447008Y-112739255D01*
X125464072Y-112566001D01*
X125464072Y-112553874D01*
X125489209Y-112579011D01*
X125504992Y-112739255D01*
X125555528Y-112905851D01*
X125637595Y-113059387D01*
X125748038Y-113193962D01*
X125882613Y-113304405D01*
X126036149Y-113386472D01*
X126202745Y-113437008D01*
X126375999Y-113454072D01*
X127276001Y-113454072D01*
X127449255Y-113437008D01*
X127615851Y-113386472D01*
X127769387Y-113304405D01*
X127903962Y-113193962D01*
X128014405Y-113059387D01*
X128096472Y-112905851D01*
X128147008Y-112739255D01*
X128164072Y-112566001D01*
X128164072Y-111715999D01*
X128147008Y-111542745D01*
X128096472Y-111376149D01*
X128014405Y-111222613D01*
X127903962Y-111088038D01*
X127769387Y-110977595D01*
X127615851Y-110895528D01*
X127449255Y-110844992D01*
X127276001Y-110827928D01*
X126375999Y-110827928D01*
X126236000Y-110841717D01*
X126236000Y-110299373D01*
X126239676Y-110262050D01*
X126236000Y-110224727D01*
X126236000Y-110224718D01*
X126225003Y-110113065D01*
X126181546Y-109969804D01*
X126110975Y-109837776D01*
X126110974Y-109837774D01*
X126039799Y-109751048D01*
X126016001Y-109722050D01*
X125987004Y-109698253D01*
X123473753Y-107185003D01*
X123449950Y-107155999D01*
X123334225Y-107061026D01*
X123202196Y-106990454D01*
X123058935Y-106946997D01*
X123022740Y-106943432D01*
X122956962Y-106844987D01*
X122771013Y-106659038D01*
X122552359Y-106512939D01*
X122309405Y-106412304D01*
X122051486Y-106361000D01*
X121788514Y-106361000D01*
X121530595Y-106412304D01*
X121287641Y-106512939D01*
X121068987Y-106659038D01*
X120883038Y-106844987D01*
X120736939Y-107063641D01*
X120636304Y-107306595D01*
X120585000Y-107564514D01*
X120585000Y-107827486D01*
X120636304Y-108085405D01*
X120736939Y-108328359D01*
X120883038Y-108547013D01*
X121068987Y-108732962D01*
X121287641Y-108879061D01*
X121530595Y-108979696D01*
X121788514Y-109031000D01*
X122051486Y-109031000D01*
X122309405Y-108979696D01*
X122552359Y-108879061D01*
X122771013Y-108732962D01*
X122821561Y-108682414D01*
X124716000Y-110576853D01*
X124716000Y-110841717D01*
X124576001Y-110827928D01*
X123675999Y-110827928D01*
X123502745Y-110844992D01*
X123336149Y-110895528D01*
X123182613Y-110977595D01*
X123048038Y-111088038D01*
X122937595Y-111222613D01*
X122855528Y-111376149D01*
X122854056Y-111381000D01*
X118602975Y-111381000D01*
X118580013Y-111358038D01*
X118361359Y-111211939D01*
X118118405Y-111111304D01*
X117860486Y-111060000D01*
X117597514Y-111060000D01*
X117339595Y-111111304D01*
X117096641Y-111211939D01*
X116877987Y-111358038D01*
X116692038Y-111543987D01*
X116545939Y-111762641D01*
X116445304Y-112005595D01*
X116394000Y-112263514D01*
X113984000Y-112263514D01*
X113932696Y-112005595D01*
X113832061Y-111762641D01*
X113685962Y-111543987D01*
X113500013Y-111358038D01*
X113409000Y-111297225D01*
X113409000Y-111211852D01*
X115938439Y-108682414D01*
X115988987Y-108732962D01*
X116207641Y-108879061D01*
X116450595Y-108979696D01*
X116708514Y-109031000D01*
X116971486Y-109031000D01*
X117229405Y-108979696D01*
X117472359Y-108879061D01*
X117691013Y-108732962D01*
X117876962Y-108547013D01*
X118023061Y-108328359D01*
X118123696Y-108085405D01*
X118175000Y-107827486D01*
X118175000Y-107564514D01*
X118123696Y-107306595D01*
X118023061Y-107063641D01*
X117876962Y-106844987D01*
X117691013Y-106659038D01*
X117472359Y-106512939D01*
X117229405Y-106412304D01*
X116971486Y-106361000D01*
X116708514Y-106361000D01*
X116450595Y-106412304D01*
X116207641Y-106512939D01*
X115988987Y-106659038D01*
X115803038Y-106844987D01*
X115737260Y-106943432D01*
X115701065Y-106946997D01*
X115557804Y-106990454D01*
X115425775Y-107061026D01*
X115310050Y-107155999D01*
X115286252Y-107184997D01*
X112138003Y-110333247D01*
X112108999Y-110357050D01*
X112064694Y-110411036D01*
X112014026Y-110472775D01*
X111970451Y-110554297D01*
X111943454Y-110604805D01*
X111899997Y-110748066D01*
X111889000Y-110859719D01*
X111889000Y-110859729D01*
X111885324Y-110897051D01*
X111889000Y-110934373D01*
X111889000Y-111297225D01*
X111797987Y-111358038D01*
X111612038Y-111543987D01*
X111546260Y-111642432D01*
X111510065Y-111645997D01*
X111366804Y-111689454D01*
X111234775Y-111760026D01*
X111119050Y-111854999D01*
X111095252Y-111883997D01*
X107312003Y-115667247D01*
X107282999Y-115691050D01*
X107243913Y-115738677D01*
X107188026Y-115806775D01*
X107179888Y-115822000D01*
X107117454Y-115938805D01*
X107073997Y-116082066D01*
X107063000Y-116193719D01*
X107063000Y-116193729D01*
X107059324Y-116231051D01*
X107063000Y-116268373D01*
X107063000Y-116885225D01*
X106971987Y-116946038D01*
X106786038Y-117131987D01*
X106725225Y-117223000D01*
X104742888Y-117223000D01*
X104742331Y-117221164D01*
X104723879Y-117155977D01*
X104720624Y-117149605D01*
X104718546Y-117142753D01*
X104686590Y-117082968D01*
X104655784Y-117022653D01*
X104651349Y-117017039D01*
X104647974Y-117010724D01*
X104604984Y-116958340D01*
X104586241Y-116934612D01*
X104581308Y-116929492D01*
X104553001Y-116894999D01*
X104529504Y-116875715D01*
X102809753Y-115090516D01*
X102823472Y-115064851D01*
X102874008Y-114898255D01*
X102891072Y-114725001D01*
X102891072Y-113874999D01*
X102874008Y-113701745D01*
X102823472Y-113535149D01*
X102741405Y-113381613D01*
X102630962Y-113247038D01*
X102496387Y-113136595D01*
X102342851Y-113054528D01*
X102176255Y-113003992D01*
X102003001Y-112986928D01*
X101102999Y-112986928D01*
X100929745Y-113003992D01*
X100763149Y-113054528D01*
X100609613Y-113136595D01*
X100475038Y-113247038D01*
X100364595Y-113381613D01*
X100282528Y-113535149D01*
X100231992Y-113701745D01*
X100214928Y-113874999D01*
X100214928Y-114725001D01*
X100231992Y-114898255D01*
X100282528Y-115064851D01*
X100364595Y-115218387D01*
X100475038Y-115352962D01*
X100609613Y-115463405D01*
X100763149Y-115545472D01*
X100929745Y-115596008D01*
X101102999Y-115613072D01*
X101113489Y-115613072D01*
X101215724Y-115696974D01*
X101347753Y-115767546D01*
X101352901Y-115769107D01*
X102753489Y-117223000D01*
X99242322Y-117223000D01*
X99204999Y-117219324D01*
X99167676Y-117223000D01*
X99167667Y-117223000D01*
X99056014Y-117233997D01*
X98912753Y-117277454D01*
X98879667Y-117295139D01*
X98786851Y-117245528D01*
X98620255Y-117194992D01*
X98447001Y-117177928D01*
X97546999Y-117177928D01*
X97373745Y-117194992D01*
X97207149Y-117245528D01*
X97053613Y-117327595D01*
X96919038Y-117438038D01*
X96808595Y-117572613D01*
X96726528Y-117726149D01*
X96675992Y-117892745D01*
X96658928Y-118065999D01*
X96658928Y-118731010D01*
X96635072Y-118731010D01*
X96635072Y-118065999D01*
X96618008Y-117892745D01*
X96567472Y-117726149D01*
X96485405Y-117572613D01*
X96374962Y-117438038D01*
X96240387Y-117327595D01*
X96086851Y-117245528D01*
X95920255Y-117194992D01*
X95747001Y-117177928D01*
X94846999Y-117177928D01*
X94673745Y-117194992D01*
X94507149Y-117245528D01*
X94353613Y-117327595D01*
X94219038Y-117438038D01*
X94196411Y-117465609D01*
X90899316Y-114168514D01*
X92899000Y-114168514D01*
X92899000Y-114431486D01*
X92950304Y-114689405D01*
X93050939Y-114932359D01*
X93197038Y-115151013D01*
X93382987Y-115336962D01*
X93601641Y-115483061D01*
X93844595Y-115583696D01*
X94102514Y-115635000D01*
X94365486Y-115635000D01*
X94623405Y-115583696D01*
X94866359Y-115483061D01*
X95085013Y-115336962D01*
X95270962Y-115151013D01*
X95331775Y-115060000D01*
X97581056Y-115060000D01*
X97582528Y-115064851D01*
X97664595Y-115218387D01*
X97775038Y-115352962D01*
X97909613Y-115463405D01*
X98063149Y-115545472D01*
X98229745Y-115596008D01*
X98402999Y-115613072D01*
X99303001Y-115613072D01*
X99476255Y-115596008D01*
X99642851Y-115545472D01*
X99796387Y-115463405D01*
X99930962Y-115352962D01*
X100041405Y-115218387D01*
X100123472Y-115064851D01*
X100174008Y-114898255D01*
X100191072Y-114725001D01*
X100191072Y-113874999D01*
X100174008Y-113701745D01*
X100123472Y-113535149D01*
X100041405Y-113381613D01*
X99930962Y-113247038D01*
X99796387Y-113136595D01*
X99642851Y-113054528D01*
X99476255Y-113003992D01*
X99303001Y-112986928D01*
X98402999Y-112986928D01*
X98229745Y-113003992D01*
X98063149Y-113054528D01*
X97909613Y-113136595D01*
X97775038Y-113247038D01*
X97664595Y-113381613D01*
X97582528Y-113535149D01*
X97581056Y-113540000D01*
X95331775Y-113540000D01*
X95270962Y-113448987D01*
X95085013Y-113263038D01*
X94866359Y-113116939D01*
X94623405Y-113016304D01*
X94365486Y-112965000D01*
X94102514Y-112965000D01*
X93844595Y-113016304D01*
X93601641Y-113116939D01*
X93382987Y-113263038D01*
X93197038Y-113448987D01*
X93050939Y-113667641D01*
X92950304Y-113910595D01*
X92899000Y-114168514D01*
X90899316Y-114168514D01*
X90519804Y-113789003D01*
X90496001Y-113759999D01*
X90380276Y-113665026D01*
X90310334Y-113627641D01*
X90190962Y-113448987D01*
X90005013Y-113263038D01*
X89786359Y-113116939D01*
X89543405Y-113016304D01*
X89285486Y-112965000D01*
X89022514Y-112965000D01*
X88764595Y-113016304D01*
X88521641Y-113116939D01*
X88302987Y-113263038D01*
X88117038Y-113448987D01*
X87970939Y-113667641D01*
X87870304Y-113910595D01*
X87819000Y-114168514D01*
X87819000Y-114431486D01*
X87870304Y-114689405D01*
X87970939Y-114932359D01*
X88117038Y-115151013D01*
X88302987Y-115336962D01*
X88521641Y-115483061D01*
X88764595Y-115583696D01*
X89022514Y-115635000D01*
X89285486Y-115635000D01*
X89543405Y-115583696D01*
X89786359Y-115483061D01*
X89952949Y-115371750D01*
X93312208Y-118731010D01*
X86404812Y-118731010D01*
X78922804Y-111249003D01*
X78899001Y-111219999D01*
X78783276Y-111125026D01*
X78651247Y-111054454D01*
X78507986Y-111010997D01*
X78396333Y-111000000D01*
X78396322Y-111000000D01*
X78359000Y-110996324D01*
X78321678Y-111000000D01*
X66354802Y-111000000D01*
X63677782Y-108322980D01*
X72069437Y-108322980D01*
X72140429Y-108541094D01*
X72284031Y-108816923D01*
X72478685Y-109059437D01*
X72716911Y-109259316D01*
X72989554Y-109408879D01*
X73286137Y-109502378D01*
X73533000Y-109375570D01*
X73533000Y-108077000D01*
X73787000Y-108077000D01*
X73787000Y-109375570D01*
X74033863Y-109502378D01*
X74330446Y-109408879D01*
X74603089Y-109259316D01*
X74841315Y-109059437D01*
X75035969Y-108816923D01*
X75179571Y-108541094D01*
X75250563Y-108322980D01*
X75130594Y-108077000D01*
X73787000Y-108077000D01*
X73533000Y-108077000D01*
X72189406Y-108077000D01*
X72069437Y-108322980D01*
X63677782Y-108322980D01*
X62104688Y-106749887D01*
X62141000Y-106567335D01*
X62141000Y-106284665D01*
X62085853Y-106007426D01*
X61977680Y-105746273D01*
X61820637Y-105511241D01*
X61620759Y-105311363D01*
X61385727Y-105154320D01*
X61375135Y-105149933D01*
X61561131Y-105038385D01*
X61769519Y-104849414D01*
X61937037Y-104623420D01*
X62057246Y-104369087D01*
X62097904Y-104235039D01*
X61975915Y-104013000D01*
X60833000Y-104013000D01*
X60833000Y-104033000D01*
X60579000Y-104033000D01*
X60579000Y-104013000D01*
X59436085Y-104013000D01*
X59314096Y-104235039D01*
X59354754Y-104369087D01*
X59474963Y-104623420D01*
X59642481Y-104849414D01*
X59850869Y-105038385D01*
X60036865Y-105149933D01*
X60026273Y-105154320D01*
X59791241Y-105311363D01*
X59591363Y-105511241D01*
X59434320Y-105746273D01*
X59326147Y-106007426D01*
X59271000Y-106284665D01*
X59271000Y-106567335D01*
X59326147Y-106844574D01*
X59434320Y-107105727D01*
X59591363Y-107340759D01*
X59789961Y-107539357D01*
X59781518Y-107540188D01*
X59661820Y-107576498D01*
X59551506Y-107635463D01*
X59454815Y-107714815D01*
X59375463Y-107811506D01*
X59316498Y-107921820D01*
X59280188Y-108041518D01*
X59267928Y-108166000D01*
X57665001Y-108166000D01*
X57665001Y-105461800D01*
X59411872Y-103714929D01*
X59436085Y-103759000D01*
X60579000Y-103759000D01*
X60579000Y-103739000D01*
X60833000Y-103739000D01*
X60833000Y-103759000D01*
X61975915Y-103759000D01*
X62097904Y-103536961D01*
X62057246Y-103402913D01*
X61937037Y-103148580D01*
X61769519Y-102922586D01*
X61561131Y-102733615D01*
X61375135Y-102622067D01*
X61385727Y-102617680D01*
X61620759Y-102460637D01*
X61820637Y-102260759D01*
X61977680Y-102025727D01*
X62085853Y-101764574D01*
X62141000Y-101487335D01*
X62141000Y-101204665D01*
X62096509Y-100980999D01*
X69360842Y-100980999D01*
X71777658Y-103397816D01*
X71802236Y-103427764D01*
X71832184Y-103452342D01*
X71832187Y-103452345D01*
X71849753Y-103466761D01*
X71921767Y-103525862D01*
X72021928Y-103579399D01*
X72021928Y-103822500D01*
X72034188Y-103946982D01*
X72070498Y-104066680D01*
X72129463Y-104176994D01*
X72208815Y-104273685D01*
X72218595Y-104281712D01*
X72131049Y-104388387D01*
X71961120Y-104706301D01*
X71856479Y-105051257D01*
X71821146Y-105410000D01*
X71856479Y-105768743D01*
X71961120Y-106113699D01*
X72131049Y-106431613D01*
X72359734Y-106710266D01*
X72498373Y-106824044D01*
X72478685Y-106840563D01*
X72284031Y-107083077D01*
X72140429Y-107358906D01*
X72069437Y-107577020D01*
X72189406Y-107823000D01*
X73533000Y-107823000D01*
X73533000Y-107803000D01*
X73787000Y-107803000D01*
X73787000Y-107823000D01*
X75130594Y-107823000D01*
X75250563Y-107577020D01*
X75179571Y-107358906D01*
X75117666Y-107240000D01*
X76960111Y-107240000D01*
X77050000Y-107248853D01*
X77139889Y-107240000D01*
X77139896Y-107240000D01*
X77408743Y-107213521D01*
X77753699Y-107108880D01*
X78071613Y-106938951D01*
X78350266Y-106710266D01*
X78407574Y-106640436D01*
X81646841Y-103401170D01*
X81716666Y-103343866D01*
X81945351Y-103065213D01*
X82115280Y-102747299D01*
X82219921Y-102402343D01*
X82246400Y-102133496D01*
X82255254Y-102043600D01*
X82246400Y-101953704D01*
X82246400Y-90549596D01*
X157280009Y-90549596D01*
X157865724Y-91231816D01*
X158849304Y-91779445D01*
X159920823Y-92124665D01*
X161039101Y-92254208D01*
X162161165Y-92163097D01*
X163243894Y-91854833D01*
X164245679Y-91341263D01*
X164409476Y-91231816D01*
X164995191Y-90549596D01*
X161137600Y-86692005D01*
X157280009Y-90549596D01*
X82246400Y-90549596D01*
X82246400Y-86413901D01*
X155395792Y-86413901D01*
X155486903Y-87535965D01*
X155795167Y-88618694D01*
X156308737Y-89620479D01*
X156418184Y-89784276D01*
X157100404Y-90369991D01*
X160957995Y-86512400D01*
X161317205Y-86512400D01*
X165174796Y-90369991D01*
X165857016Y-89784276D01*
X166404645Y-88800696D01*
X166749865Y-87729177D01*
X166879408Y-86610899D01*
X166788297Y-85488835D01*
X166480033Y-84406106D01*
X165966463Y-83404321D01*
X165857016Y-83240524D01*
X165174796Y-82654809D01*
X161317205Y-86512400D01*
X160957995Y-86512400D01*
X157100404Y-82654809D01*
X156418184Y-83240524D01*
X155870555Y-84224104D01*
X155525335Y-85295623D01*
X155395792Y-86413901D01*
X82246400Y-86413901D01*
X82246400Y-82475204D01*
X157280009Y-82475204D01*
X161137600Y-86332795D01*
X164995191Y-82475204D01*
X164409476Y-81792984D01*
X163425896Y-81245355D01*
X162354377Y-80900135D01*
X161236099Y-80770592D01*
X160114035Y-80861703D01*
X159031306Y-81169967D01*
X158029521Y-81683537D01*
X157865724Y-81792984D01*
X157280009Y-82475204D01*
X82246400Y-82475204D01*
X82246400Y-78667980D01*
X142411626Y-78667980D01*
X142531514Y-78952836D01*
X142855210Y-79113699D01*
X143204069Y-79208322D01*
X143564684Y-79233067D01*
X143923198Y-79186985D01*
X144265833Y-79071846D01*
X144488486Y-78952836D01*
X144608374Y-78667980D01*
X143510000Y-77569605D01*
X142411626Y-78667980D01*
X82246400Y-78667980D01*
X82246400Y-76999307D01*
X82308411Y-76906501D01*
X82469352Y-76517956D01*
X82551399Y-76105479D01*
X82551399Y-75684921D01*
X108281400Y-75684921D01*
X108281400Y-76105479D01*
X108363447Y-76517956D01*
X108524388Y-76906502D01*
X108758037Y-77256183D01*
X109055417Y-77553563D01*
X109405098Y-77787212D01*
X109793644Y-77948153D01*
X110206121Y-78030200D01*
X110626679Y-78030200D01*
X111039156Y-77948153D01*
X111427702Y-77787212D01*
X111777383Y-77553563D01*
X111886262Y-77444684D01*
X141666933Y-77444684D01*
X141713015Y-77803198D01*
X141828154Y-78145833D01*
X141947164Y-78368486D01*
X142232020Y-78488374D01*
X143330395Y-77390000D01*
X143689605Y-77390000D01*
X144787980Y-78488374D01*
X145072836Y-78368486D01*
X145233699Y-78044790D01*
X145328322Y-77695931D01*
X145353067Y-77335316D01*
X145306985Y-76976802D01*
X145191846Y-76634167D01*
X145072836Y-76411514D01*
X144787980Y-76291626D01*
X143689605Y-77390000D01*
X143330395Y-77390000D01*
X142232020Y-76291626D01*
X141947164Y-76411514D01*
X141786301Y-76735210D01*
X141691678Y-77084069D01*
X141666933Y-77444684D01*
X111886262Y-77444684D01*
X112074763Y-77256183D01*
X112308412Y-76906502D01*
X112469353Y-76517956D01*
X112550098Y-76112020D01*
X142411626Y-76112020D01*
X143510000Y-77210395D01*
X144608374Y-76112020D01*
X144488486Y-75827164D01*
X144164790Y-75666301D01*
X143815931Y-75571678D01*
X143455316Y-75546933D01*
X143096802Y-75593015D01*
X142754167Y-75708154D01*
X142531514Y-75827164D01*
X142411626Y-76112020D01*
X112550098Y-76112020D01*
X112551400Y-76105479D01*
X112551400Y-75684921D01*
X112469353Y-75272444D01*
X112308412Y-74883898D01*
X112074763Y-74534217D01*
X111777383Y-74236837D01*
X111427702Y-74003188D01*
X111039156Y-73842247D01*
X110626679Y-73760200D01*
X110206121Y-73760200D01*
X109793644Y-73842247D01*
X109405098Y-74003188D01*
X109055417Y-74236837D01*
X108758037Y-74534217D01*
X108524388Y-74883898D01*
X108363447Y-75272444D01*
X108281400Y-75684921D01*
X82551399Y-75684921D01*
X82469352Y-75272444D01*
X82308411Y-74883899D01*
X82074762Y-74534218D01*
X81777382Y-74236838D01*
X81427701Y-74003189D01*
X81039156Y-73842248D01*
X80626679Y-73760201D01*
X80206121Y-73760201D01*
X79793644Y-73842248D01*
X79405099Y-74003189D01*
X79055418Y-74236838D01*
X78758038Y-74534218D01*
X78524389Y-74883899D01*
X78363448Y-75272444D01*
X78281401Y-75684921D01*
X78281401Y-76105479D01*
X78363448Y-76517956D01*
X78524389Y-76906501D01*
X78586400Y-76999307D01*
X78586401Y-101285588D01*
X76291990Y-103580000D01*
X75298072Y-103580000D01*
X75298072Y-101917500D01*
X75285812Y-101793018D01*
X75249502Y-101673320D01*
X75190537Y-101563006D01*
X75111185Y-101466315D01*
X75014494Y-101386963D01*
X74904180Y-101327998D01*
X74784482Y-101291688D01*
X74660000Y-101279428D01*
X72660000Y-101279428D01*
X72535518Y-101291688D01*
X72415820Y-101327998D01*
X72305506Y-101386963D01*
X72208815Y-101466315D01*
X72144654Y-101544496D01*
X70268346Y-99668189D01*
X70243763Y-99638235D01*
X70124232Y-99540137D01*
X69987859Y-99467245D01*
X69839886Y-99422358D01*
X69724560Y-99410999D01*
X69724552Y-99410999D01*
X69685999Y-99407202D01*
X69647446Y-99410999D01*
X56814553Y-99410999D01*
X56776000Y-99407202D01*
X56737447Y-99410999D01*
X56737440Y-99410999D01*
X56622114Y-99422358D01*
X56474141Y-99467245D01*
X56337768Y-99540137D01*
X56277560Y-99589549D01*
X56248188Y-99613654D01*
X56248185Y-99613657D01*
X56218237Y-99638235D01*
X56193659Y-99668183D01*
X54521000Y-101340843D01*
X54521000Y-101218998D01*
X54355916Y-101218998D01*
X54477904Y-100996961D01*
X54437246Y-100862913D01*
X54317037Y-100608580D01*
X54149519Y-100382586D01*
X53941131Y-100193615D01*
X53699881Y-100048930D01*
X53435040Y-99954091D01*
X53213000Y-100075376D01*
X53213000Y-101219000D01*
X53233000Y-101219000D01*
X53233000Y-101473000D01*
X53213000Y-101473000D01*
X53213000Y-101493000D01*
X52959000Y-101493000D01*
X52959000Y-101473000D01*
X51816085Y-101473000D01*
X51694096Y-101695039D01*
X51734754Y-101829087D01*
X51854963Y-102083420D01*
X52022481Y-102309414D01*
X52230869Y-102498385D01*
X52416865Y-102609933D01*
X52406273Y-102614320D01*
X52171241Y-102771363D01*
X51971363Y-102971241D01*
X51814320Y-103206273D01*
X51706147Y-103467426D01*
X51651000Y-103744665D01*
X51651000Y-103916198D01*
X48731763Y-100996961D01*
X51694096Y-100996961D01*
X51816085Y-101219000D01*
X52959000Y-101219000D01*
X52959000Y-100075376D01*
X52736960Y-99954091D01*
X52472119Y-100048930D01*
X52230869Y-100193615D01*
X52022481Y-100382586D01*
X51854963Y-100608580D01*
X51734754Y-100862913D01*
X51694096Y-100996961D01*
X48731763Y-100996961D01*
X45304523Y-97569721D01*
X71525000Y-97569721D01*
X71525000Y-97990279D01*
X71607047Y-98402756D01*
X71767988Y-98791302D01*
X72001637Y-99140983D01*
X72299017Y-99438363D01*
X72648698Y-99672012D01*
X73037244Y-99832953D01*
X73449721Y-99915000D01*
X73870279Y-99915000D01*
X74282756Y-99832953D01*
X74671302Y-99672012D01*
X75020983Y-99438363D01*
X75318363Y-99140983D01*
X75552012Y-98791302D01*
X75712953Y-98402756D01*
X75795000Y-97990279D01*
X75795000Y-97569721D01*
X75712953Y-97157244D01*
X75552012Y-96768698D01*
X75318363Y-96419017D01*
X75020983Y-96121637D01*
X74671302Y-95887988D01*
X74282756Y-95727047D01*
X73870279Y-95645000D01*
X73449721Y-95645000D01*
X73037244Y-95727047D01*
X72648698Y-95887988D01*
X72299017Y-96121637D01*
X72001637Y-96419017D01*
X71767988Y-96768698D01*
X71607047Y-97157244D01*
X71525000Y-97569721D01*
X45304523Y-97569721D01*
X43743804Y-96009003D01*
X43720001Y-95979999D01*
X43604276Y-95885026D01*
X43472247Y-95814454D01*
X43328986Y-95770997D01*
X43217333Y-95760000D01*
X43217322Y-95760000D01*
X43180000Y-95756324D01*
X43142678Y-95760000D01*
X42278072Y-95760000D01*
X42278072Y-94520000D01*
X42265812Y-94395518D01*
X42229502Y-94275820D01*
X42170537Y-94165506D01*
X42091185Y-94068815D01*
X41994494Y-93989463D01*
X41884180Y-93930498D01*
X41764482Y-93894188D01*
X41640000Y-93881928D01*
X39640000Y-93881928D01*
X39515518Y-93894188D01*
X39395820Y-93930498D01*
X39285506Y-93989463D01*
X39188815Y-94068815D01*
X39109463Y-94165506D01*
X39050498Y-94275820D01*
X39014188Y-94395518D01*
X39001928Y-94520000D01*
X35557311Y-94520000D01*
X35442761Y-94439990D01*
X35148355Y-94310856D01*
X35020434Y-94279876D01*
X34767000Y-94399223D01*
X34513000Y-94399223D01*
X34259566Y-94279876D01*
X34131645Y-94310856D01*
X33837239Y-94439990D01*
X33573683Y-94624078D01*
X33351105Y-94856046D01*
X33178058Y-95126980D01*
X33061193Y-95426468D01*
X33005000Y-95743000D01*
X33005000Y-96065568D01*
X32911680Y-95840273D01*
X32754637Y-95605241D01*
X32554759Y-95405363D01*
X32319727Y-95248320D01*
X32058574Y-95140147D01*
X31781335Y-95085000D01*
X31498665Y-95085000D01*
X31221426Y-95140147D01*
X30960273Y-95248320D01*
X30725241Y-95405363D01*
X30525363Y-95605241D01*
X30368320Y-95840273D01*
X30260147Y-96101426D01*
X30205000Y-96378665D01*
X26060000Y-96378665D01*
X26060000Y-92020000D01*
X31247089Y-92020000D01*
X31278657Y-92340516D01*
X31372148Y-92648715D01*
X31523969Y-92932752D01*
X31728286Y-93181714D01*
X31977248Y-93386031D01*
X32261285Y-93537852D01*
X32569484Y-93631343D01*
X32809678Y-93655000D01*
X34470322Y-93655000D01*
X34710516Y-93631343D01*
X35018715Y-93537852D01*
X35302752Y-93386031D01*
X35551714Y-93181714D01*
X35756031Y-92932752D01*
X35907852Y-92648715D01*
X36001343Y-92340516D01*
X36032911Y-92020000D01*
X36020937Y-91898416D01*
X59729800Y-91898416D01*
X59729800Y-92200784D01*
X59788789Y-92497343D01*
X59904501Y-92776695D01*
X60072488Y-93028105D01*
X60286295Y-93241912D01*
X60537705Y-93409899D01*
X60817057Y-93525611D01*
X61113616Y-93584600D01*
X61415984Y-93584600D01*
X61712543Y-93525611D01*
X61991895Y-93409899D01*
X62243305Y-93241912D01*
X62457112Y-93028105D01*
X62625099Y-92776695D01*
X62740811Y-92497343D01*
X62799800Y-92200784D01*
X62799800Y-91898416D01*
X62740811Y-91601857D01*
X62625099Y-91322505D01*
X62457112Y-91071095D01*
X62243305Y-90857288D01*
X61991895Y-90689301D01*
X61712543Y-90573589D01*
X61415984Y-90514600D01*
X61113616Y-90514600D01*
X60817057Y-90573589D01*
X60537705Y-90689301D01*
X60286295Y-90857288D01*
X60072488Y-91071095D01*
X59904501Y-91322505D01*
X59788789Y-91601857D01*
X59729800Y-91898416D01*
X36020937Y-91898416D01*
X36001343Y-91699484D01*
X35907852Y-91391285D01*
X35756031Y-91107248D01*
X35551714Y-90858286D01*
X35302752Y-90653969D01*
X35018715Y-90502148D01*
X34710516Y-90408657D01*
X34470322Y-90385000D01*
X32809678Y-90385000D01*
X32569484Y-90408657D01*
X32261285Y-90502148D01*
X31977248Y-90653969D01*
X31728286Y-90858286D01*
X31523969Y-91107248D01*
X31372148Y-91391285D01*
X31278657Y-91699484D01*
X31247089Y-92020000D01*
X26060000Y-92020000D01*
X26060000Y-69270000D01*
X31247089Y-69270000D01*
X31278657Y-69590516D01*
X31372148Y-69898715D01*
X31523969Y-70182752D01*
X31728286Y-70431714D01*
X31977248Y-70636031D01*
X32261285Y-70787852D01*
X32569484Y-70881343D01*
X32809678Y-70905000D01*
X34470322Y-70905000D01*
X34710516Y-70881343D01*
X35018715Y-70787852D01*
X35302752Y-70636031D01*
X35551714Y-70431714D01*
X35756031Y-70182752D01*
X35907852Y-69898715D01*
X36001343Y-69590516D01*
X36032911Y-69270000D01*
X36001343Y-68949484D01*
X35907852Y-68641285D01*
X35756031Y-68357248D01*
X35551714Y-68108286D01*
X35302752Y-67903969D01*
X35018715Y-67752148D01*
X34710516Y-67658657D01*
X34470322Y-67635000D01*
X32809678Y-67635000D01*
X32569484Y-67658657D01*
X32261285Y-67752148D01*
X31977248Y-67903969D01*
X31728286Y-68108286D01*
X31523969Y-68357248D01*
X31372148Y-68641285D01*
X31278657Y-68949484D01*
X31247089Y-69270000D01*
X26060000Y-69270000D01*
X26060000Y-64628665D01*
X30205000Y-64628665D01*
X30205000Y-64911335D01*
X30260147Y-65188574D01*
X30368320Y-65449727D01*
X30525363Y-65684759D01*
X30725241Y-65884637D01*
X30960273Y-66041680D01*
X31221426Y-66149853D01*
X31498665Y-66205000D01*
X31781335Y-66205000D01*
X32058574Y-66149853D01*
X32319727Y-66041680D01*
X32554759Y-65884637D01*
X32754637Y-65684759D01*
X32911680Y-65449727D01*
X33005000Y-65224432D01*
X33005000Y-65547000D01*
X33061193Y-65863532D01*
X33178058Y-66163020D01*
X33351105Y-66433954D01*
X33573683Y-66665922D01*
X33837239Y-66850010D01*
X34131645Y-66979144D01*
X34259566Y-67010124D01*
X34513000Y-66890777D01*
X34513000Y-64897000D01*
X34767000Y-64897000D01*
X34767000Y-66890777D01*
X35020434Y-67010124D01*
X35148355Y-66979144D01*
X35442761Y-66850010D01*
X35706317Y-66665922D01*
X35928895Y-66433954D01*
X36101942Y-66163020D01*
X36218807Y-65863532D01*
X36275000Y-65547000D01*
X36275000Y-64897000D01*
X34767000Y-64897000D01*
X34513000Y-64897000D01*
X34493000Y-64897000D01*
X34493000Y-64643000D01*
X34513000Y-64643000D01*
X34513000Y-62649223D01*
X34767000Y-62649223D01*
X34767000Y-64643000D01*
X36275000Y-64643000D01*
X36275000Y-63993000D01*
X36218807Y-63676468D01*
X36101942Y-63376980D01*
X35928895Y-63106046D01*
X35706317Y-62874078D01*
X35442761Y-62689990D01*
X35148355Y-62560856D01*
X35020434Y-62529876D01*
X34767000Y-62649223D01*
X34513000Y-62649223D01*
X34259566Y-62529876D01*
X34131645Y-62560856D01*
X33837239Y-62689990D01*
X33573683Y-62874078D01*
X33351105Y-63106046D01*
X33178058Y-63376980D01*
X33061193Y-63676468D01*
X33005000Y-63993000D01*
X33005000Y-64315568D01*
X32911680Y-64090273D01*
X32754637Y-63855241D01*
X32554759Y-63655363D01*
X32319727Y-63498320D01*
X32058574Y-63390147D01*
X31781335Y-63335000D01*
X31498665Y-63335000D01*
X31221426Y-63390147D01*
X30960273Y-63498320D01*
X30725241Y-63655363D01*
X30525363Y-63855241D01*
X30368320Y-64090273D01*
X30260147Y-64351426D01*
X30205000Y-64628665D01*
X26060000Y-64628665D01*
X26060000Y-60270000D01*
X31247089Y-60270000D01*
X31278657Y-60590516D01*
X31372148Y-60898715D01*
X31523969Y-61182752D01*
X31728286Y-61431714D01*
X31977248Y-61636031D01*
X32261285Y-61787852D01*
X32569484Y-61881343D01*
X32809678Y-61905000D01*
X34470322Y-61905000D01*
X34710516Y-61881343D01*
X35018715Y-61787852D01*
X35302752Y-61636031D01*
X35551714Y-61431714D01*
X35756031Y-61182752D01*
X35907852Y-60898715D01*
X36001343Y-60590516D01*
X36029891Y-60300654D01*
X38802859Y-60300654D01*
X38810001Y-60430352D01*
X38810000Y-64859895D01*
X38836479Y-65128742D01*
X38941120Y-65473698D01*
X39001928Y-65587461D01*
X39001928Y-66770000D01*
X39014188Y-66894482D01*
X39050498Y-67014180D01*
X39109463Y-67124494D01*
X39188815Y-67221185D01*
X39285506Y-67300537D01*
X39395820Y-67359502D01*
X39515518Y-67395812D01*
X39640000Y-67408072D01*
X41640000Y-67408072D01*
X41764482Y-67395812D01*
X41884180Y-67359502D01*
X41994494Y-67300537D01*
X42091185Y-67221185D01*
X42170537Y-67124494D01*
X42229502Y-67014180D01*
X42265812Y-66894482D01*
X42278072Y-66770000D01*
X42278072Y-65587462D01*
X42338880Y-65473699D01*
X42443521Y-65128743D01*
X42470000Y-64859896D01*
X42470000Y-61184706D01*
X45311601Y-58578402D01*
X56136001Y-69402803D01*
X56136000Y-72900000D01*
X54640975Y-72900000D01*
X54580162Y-72808987D01*
X54394213Y-72623038D01*
X54175559Y-72476939D01*
X53932605Y-72376304D01*
X53674686Y-72325000D01*
X53411714Y-72325000D01*
X53153795Y-72376304D01*
X52910841Y-72476939D01*
X52692187Y-72623038D01*
X52506238Y-72808987D01*
X52360139Y-73027641D01*
X52259504Y-73270595D01*
X52208200Y-73528514D01*
X52208200Y-73791486D01*
X52259504Y-74049405D01*
X52360139Y-74292359D01*
X52506238Y-74511013D01*
X52692187Y-74696962D01*
X52910841Y-74843061D01*
X53153795Y-74943696D01*
X53411714Y-74995000D01*
X53674686Y-74995000D01*
X53932605Y-74943696D01*
X54175559Y-74843061D01*
X54394213Y-74696962D01*
X54580162Y-74511013D01*
X54640975Y-74420000D01*
X56858667Y-74420000D01*
X56896000Y-74423677D01*
X56933333Y-74420000D01*
X61401528Y-74420000D01*
X61401528Y-75272800D01*
X61413788Y-75397282D01*
X61450098Y-75516980D01*
X61509063Y-75627294D01*
X61588415Y-75723985D01*
X61685106Y-75803337D01*
X61795420Y-75862302D01*
X61891543Y-75891461D01*
X61724963Y-76058041D01*
X61567920Y-76293073D01*
X61459747Y-76554226D01*
X61404600Y-76831465D01*
X61404600Y-77114135D01*
X61440912Y-77296686D01*
X60757599Y-77980000D01*
X54640975Y-77980000D01*
X54580162Y-77888987D01*
X54394213Y-77703038D01*
X54175559Y-77556939D01*
X53932605Y-77456304D01*
X53674686Y-77405000D01*
X53411714Y-77405000D01*
X53153795Y-77456304D01*
X52910841Y-77556939D01*
X52692187Y-77703038D01*
X52506238Y-77888987D01*
X52360139Y-78107641D01*
X52259504Y-78350595D01*
X52208200Y-78608514D01*
X52208200Y-78871486D01*
X52259504Y-79129405D01*
X52360139Y-79372359D01*
X52506238Y-79591013D01*
X52692187Y-79776962D01*
X52910841Y-79923061D01*
X53153795Y-80023696D01*
X53411714Y-80075000D01*
X53674686Y-80075000D01*
X53932605Y-80023696D01*
X54175559Y-79923061D01*
X54394213Y-79776962D01*
X54580162Y-79591013D01*
X54640975Y-79500000D01*
X60504801Y-79500000D01*
X60504800Y-82891528D01*
X60364800Y-82891528D01*
X60240318Y-82903788D01*
X60120620Y-82940098D01*
X60010306Y-82999063D01*
X59913615Y-83078415D01*
X59834263Y-83175106D01*
X59775298Y-83285420D01*
X59738988Y-83405118D01*
X59726728Y-83529600D01*
X59726728Y-85329600D01*
X59738988Y-85454082D01*
X59775298Y-85573780D01*
X59834263Y-85684094D01*
X59913615Y-85780785D01*
X60010306Y-85860137D01*
X60120620Y-85919102D01*
X60240318Y-85955412D01*
X60364800Y-85967672D01*
X62164800Y-85967672D01*
X62289282Y-85955412D01*
X62408980Y-85919102D01*
X62519294Y-85860137D01*
X62615985Y-85780785D01*
X62695337Y-85684094D01*
X62754302Y-85573780D01*
X62790612Y-85454082D01*
X62802872Y-85329600D01*
X62802872Y-83529600D01*
X62790612Y-83405118D01*
X62754302Y-83285420D01*
X62695337Y-83175106D01*
X62615985Y-83078415D01*
X62519294Y-82999063D01*
X62408980Y-82940098D01*
X62289282Y-82903788D01*
X62164800Y-82891528D01*
X62024800Y-82891528D01*
X62024800Y-78862401D01*
X62515714Y-78371488D01*
X62698265Y-78407800D01*
X62980935Y-78407800D01*
X63258174Y-78352653D01*
X63519327Y-78244480D01*
X63754359Y-78087437D01*
X63954237Y-77887559D01*
X64111280Y-77652527D01*
X64219453Y-77391374D01*
X64274600Y-77114135D01*
X64274600Y-76831465D01*
X64219453Y-76554226D01*
X64111280Y-76293073D01*
X63954237Y-76058041D01*
X63787657Y-75891461D01*
X63883780Y-75862302D01*
X63994094Y-75803337D01*
X64090785Y-75723985D01*
X64170137Y-75627294D01*
X64229102Y-75516980D01*
X64265412Y-75397282D01*
X64277672Y-75272800D01*
X64277672Y-73672800D01*
X64265412Y-73548318D01*
X64229102Y-73428620D01*
X64170137Y-73318306D01*
X64090785Y-73221615D01*
X63994094Y-73142263D01*
X63883780Y-73083298D01*
X63764082Y-73046988D01*
X63639600Y-73034728D01*
X62462898Y-73034728D01*
X62451076Y-73025026D01*
X62319047Y-72954454D01*
X62175786Y-72910997D01*
X62064133Y-72900000D01*
X62064122Y-72900000D01*
X62026800Y-72896324D01*
X61989478Y-72900000D01*
X57656000Y-72900000D01*
X57656000Y-70684921D01*
X78281400Y-70684921D01*
X78281400Y-71105479D01*
X78363447Y-71517956D01*
X78524388Y-71906502D01*
X78758037Y-72256183D01*
X79055417Y-72553563D01*
X79405098Y-72787212D01*
X79793644Y-72948153D01*
X80206121Y-73030200D01*
X80626679Y-73030200D01*
X81039156Y-72948153D01*
X81427702Y-72787212D01*
X81777383Y-72553563D01*
X81944094Y-72386852D01*
X109104353Y-72386852D01*
X109260363Y-72702413D01*
X109635146Y-72893219D01*
X110039952Y-73007243D01*
X110459225Y-73040102D01*
X110876852Y-72990533D01*
X111276783Y-72860442D01*
X111572437Y-72702413D01*
X111728447Y-72386852D01*
X110416400Y-71074805D01*
X109104353Y-72386852D01*
X81944094Y-72386852D01*
X82074763Y-72256183D01*
X82308412Y-71906502D01*
X82469353Y-71517956D01*
X82551400Y-71105479D01*
X82551400Y-70938025D01*
X108271498Y-70938025D01*
X108321067Y-71355652D01*
X108451158Y-71755583D01*
X108609187Y-72051237D01*
X108924748Y-72207247D01*
X110236795Y-70895200D01*
X110596005Y-70895200D01*
X111908052Y-72207247D01*
X112223613Y-72051237D01*
X112414419Y-71676454D01*
X112528443Y-71271648D01*
X112540327Y-71120000D01*
X139813316Y-71120000D01*
X139859943Y-71593422D01*
X139998036Y-72048652D01*
X140222285Y-72468193D01*
X140448446Y-72743771D01*
X140448451Y-72743776D01*
X140524076Y-72835925D01*
X140616225Y-72911550D01*
X141718442Y-74013766D01*
X141794075Y-74105925D01*
X142161806Y-74407715D01*
X142581348Y-74631965D01*
X143036577Y-74770057D01*
X143391360Y-74805000D01*
X143391369Y-74805000D01*
X143509999Y-74816684D01*
X143628629Y-74805000D01*
X153348168Y-74805000D01*
X153466800Y-74816684D01*
X153585432Y-74805000D01*
X153585440Y-74805000D01*
X153940223Y-74770057D01*
X154395452Y-74631965D01*
X154814994Y-74407715D01*
X155182725Y-74105925D01*
X155258354Y-74013771D01*
X158772129Y-70499997D01*
X159064196Y-70620975D01*
X160168322Y-70840600D01*
X161294078Y-70840600D01*
X162398204Y-70620975D01*
X163438267Y-70190167D01*
X164374300Y-69564730D01*
X165170330Y-68768700D01*
X165795767Y-67832667D01*
X166226575Y-66792604D01*
X166446200Y-65688478D01*
X166446200Y-64562722D01*
X166226575Y-63458596D01*
X165795767Y-62418533D01*
X165170330Y-61482500D01*
X164374300Y-60686470D01*
X163438267Y-60061033D01*
X162398204Y-59630225D01*
X161294078Y-59410600D01*
X160168322Y-59410600D01*
X159064196Y-59630225D01*
X158024133Y-60061033D01*
X157088100Y-60686470D01*
X156292070Y-61482500D01*
X155666633Y-62418533D01*
X155235825Y-63458596D01*
X155016200Y-64562722D01*
X155016200Y-65688478D01*
X155235825Y-66792604D01*
X155356803Y-67084671D01*
X152466475Y-69975000D01*
X144655000Y-69975000D01*
X144655000Y-46871360D01*
X144645975Y-46779721D01*
X146465000Y-46779721D01*
X146465000Y-47200279D01*
X146547047Y-47612756D01*
X146707988Y-48001302D01*
X146941637Y-48350983D01*
X147239017Y-48648363D01*
X147588698Y-48882012D01*
X147977244Y-49042953D01*
X148389721Y-49125000D01*
X148810279Y-49125000D01*
X149222756Y-49042953D01*
X149611302Y-48882012D01*
X149960983Y-48648363D01*
X150258363Y-48350983D01*
X150492012Y-48001302D01*
X150652953Y-47612756D01*
X150735000Y-47200279D01*
X150735000Y-46779721D01*
X150652953Y-46367244D01*
X150492012Y-45978698D01*
X150258363Y-45629017D01*
X149960983Y-45331637D01*
X149611302Y-45097988D01*
X149222756Y-44937047D01*
X148810279Y-44855000D01*
X148389721Y-44855000D01*
X147977244Y-44937047D01*
X147588698Y-45097988D01*
X147239017Y-45331637D01*
X146941637Y-45629017D01*
X146707988Y-45978698D01*
X146547047Y-46367244D01*
X146465000Y-46779721D01*
X144645975Y-46779721D01*
X144620057Y-46516577D01*
X144481965Y-46061348D01*
X144257715Y-45641806D01*
X143955925Y-45274075D01*
X143588193Y-44972285D01*
X143168651Y-44748035D01*
X142713422Y-44609943D01*
X142240000Y-44563315D01*
X141766577Y-44609943D01*
X141311348Y-44748035D01*
X140891806Y-44972285D01*
X140524075Y-45274075D01*
X140222285Y-45641807D01*
X139998035Y-46061349D01*
X139859943Y-46516578D01*
X139825000Y-46871361D01*
X139825001Y-71001358D01*
X139813316Y-71120000D01*
X112540327Y-71120000D01*
X112561302Y-70852375D01*
X112511733Y-70434748D01*
X112381642Y-70034817D01*
X112223613Y-69739163D01*
X111908052Y-69583153D01*
X110596005Y-70895200D01*
X110236795Y-70895200D01*
X108924748Y-69583153D01*
X108609187Y-69739163D01*
X108418381Y-70113946D01*
X108304357Y-70518752D01*
X108271498Y-70938025D01*
X82551400Y-70938025D01*
X82551400Y-70684921D01*
X82469353Y-70272444D01*
X82308412Y-69883898D01*
X82074763Y-69534217D01*
X81944094Y-69403548D01*
X109104353Y-69403548D01*
X110416400Y-70715595D01*
X111728447Y-69403548D01*
X111572437Y-69087987D01*
X111197654Y-68897181D01*
X110792848Y-68783157D01*
X110373575Y-68750298D01*
X109955948Y-68799867D01*
X109556017Y-68929958D01*
X109260363Y-69087987D01*
X109104353Y-69403548D01*
X81944094Y-69403548D01*
X81777383Y-69236837D01*
X81427702Y-69003188D01*
X81039156Y-68842247D01*
X80626679Y-68760200D01*
X80206121Y-68760200D01*
X79793644Y-68842247D01*
X79405098Y-69003188D01*
X79055417Y-69236837D01*
X78758037Y-69534217D01*
X78524388Y-69883898D01*
X78363447Y-70272444D01*
X78281400Y-70684921D01*
X57656000Y-70684921D01*
X57656000Y-69125323D01*
X57659676Y-69088000D01*
X57656000Y-69050677D01*
X57656000Y-69050667D01*
X57645003Y-68939014D01*
X57601546Y-68795753D01*
X57582542Y-68760200D01*
X57530974Y-68663723D01*
X57459799Y-68576997D01*
X57436001Y-68547999D01*
X57407003Y-68524201D01*
X54567723Y-65684921D01*
X78281400Y-65684921D01*
X78281400Y-66105479D01*
X78363447Y-66517956D01*
X78524388Y-66906502D01*
X78758037Y-67256183D01*
X79055417Y-67553563D01*
X79405098Y-67787212D01*
X79793644Y-67948153D01*
X80206121Y-68030200D01*
X80626679Y-68030200D01*
X81039156Y-67948153D01*
X81427702Y-67787212D01*
X81777383Y-67553563D01*
X82074763Y-67256183D01*
X82308412Y-66906502D01*
X82469353Y-66517956D01*
X82551400Y-66105479D01*
X82551400Y-65684921D01*
X108281400Y-65684921D01*
X108281400Y-66105479D01*
X108363447Y-66517956D01*
X108524388Y-66906502D01*
X108758037Y-67256183D01*
X109055417Y-67553563D01*
X109405098Y-67787212D01*
X109793644Y-67948153D01*
X110206121Y-68030200D01*
X110626679Y-68030200D01*
X111039156Y-67948153D01*
X111427702Y-67787212D01*
X111777383Y-67553563D01*
X112074763Y-67256183D01*
X112308412Y-66906502D01*
X112469353Y-66517956D01*
X112551400Y-66105479D01*
X112551400Y-65684921D01*
X112469353Y-65272444D01*
X112308412Y-64883898D01*
X112074763Y-64534217D01*
X111777383Y-64236837D01*
X111427702Y-64003188D01*
X111039156Y-63842247D01*
X110626679Y-63760200D01*
X110206121Y-63760200D01*
X109793644Y-63842247D01*
X109405098Y-64003188D01*
X109055417Y-64236837D01*
X108758037Y-64534217D01*
X108524388Y-64883898D01*
X108363447Y-65272444D01*
X108281400Y-65684921D01*
X82551400Y-65684921D01*
X82469353Y-65272444D01*
X82308412Y-64883898D01*
X82074763Y-64534217D01*
X81777383Y-64236837D01*
X81427702Y-64003188D01*
X81039156Y-63842247D01*
X80626679Y-63760200D01*
X80206121Y-63760200D01*
X79793644Y-63842247D01*
X79405098Y-64003188D01*
X79055417Y-64236837D01*
X78758037Y-64534217D01*
X78524388Y-64883898D01*
X78363447Y-65272444D01*
X78281400Y-65684921D01*
X54567723Y-65684921D01*
X49567723Y-60684921D01*
X78281401Y-60684921D01*
X78281401Y-61105479D01*
X78363448Y-61517956D01*
X78524389Y-61906501D01*
X78758038Y-62256182D01*
X79055418Y-62553562D01*
X79405099Y-62787211D01*
X79793644Y-62948152D01*
X80206121Y-63030199D01*
X80626679Y-63030199D01*
X81039156Y-62948152D01*
X81427701Y-62787211D01*
X81777382Y-62553562D01*
X82074762Y-62256182D01*
X82308411Y-61906501D01*
X82469352Y-61517956D01*
X82551399Y-61105479D01*
X82551399Y-60684921D01*
X108281400Y-60684921D01*
X108281400Y-61105479D01*
X108363447Y-61517956D01*
X108524388Y-61906502D01*
X108758037Y-62256183D01*
X109055417Y-62553563D01*
X109405098Y-62787212D01*
X109793644Y-62948153D01*
X110206121Y-63030200D01*
X110626679Y-63030200D01*
X111039156Y-62948153D01*
X111427702Y-62787212D01*
X111777383Y-62553563D01*
X112074763Y-62256183D01*
X112308412Y-61906502D01*
X112469353Y-61517956D01*
X112551400Y-61105479D01*
X112551400Y-60684921D01*
X112469353Y-60272444D01*
X112308412Y-59883898D01*
X112074763Y-59534217D01*
X111777383Y-59236837D01*
X111427702Y-59003188D01*
X111039156Y-58842247D01*
X110626679Y-58760200D01*
X110206121Y-58760200D01*
X109793644Y-58842247D01*
X109405098Y-59003188D01*
X109055417Y-59236837D01*
X108758037Y-59534217D01*
X108524388Y-59883898D01*
X108363447Y-60272444D01*
X108281400Y-60684921D01*
X82551399Y-60684921D01*
X82469352Y-60272444D01*
X82308411Y-59883899D01*
X82074762Y-59534218D01*
X81777382Y-59236838D01*
X81427701Y-59003189D01*
X81039156Y-58842248D01*
X80626679Y-58760201D01*
X80206121Y-58760201D01*
X79793644Y-58842248D01*
X79405099Y-59003189D01*
X79055418Y-59236838D01*
X78758038Y-59534218D01*
X78524389Y-59883899D01*
X78363448Y-60272444D01*
X78281401Y-60684921D01*
X49567723Y-60684921D01*
X46428423Y-57545622D01*
X48426954Y-55684921D01*
X78281401Y-55684921D01*
X78281401Y-56105479D01*
X78363448Y-56517956D01*
X78524389Y-56906501D01*
X78758038Y-57256182D01*
X79055418Y-57553562D01*
X79405099Y-57787211D01*
X79793644Y-57948152D01*
X80206121Y-58030199D01*
X80626679Y-58030199D01*
X81039156Y-57948152D01*
X81427701Y-57787211D01*
X81777382Y-57553562D01*
X82074762Y-57256182D01*
X82308411Y-56906501D01*
X82469352Y-56517956D01*
X82551399Y-56105479D01*
X82551399Y-55684921D01*
X108281400Y-55684921D01*
X108281400Y-56105479D01*
X108363447Y-56517956D01*
X108524388Y-56906502D01*
X108758037Y-57256183D01*
X109055417Y-57553563D01*
X109405098Y-57787212D01*
X109793644Y-57948153D01*
X110206121Y-58030200D01*
X110626679Y-58030200D01*
X111039156Y-57948153D01*
X111427702Y-57787212D01*
X111777383Y-57553563D01*
X112074763Y-57256183D01*
X112308412Y-56906502D01*
X112469353Y-56517956D01*
X112551400Y-56105479D01*
X112551400Y-55684921D01*
X112469353Y-55272444D01*
X112308412Y-54883898D01*
X112074763Y-54534217D01*
X111777383Y-54236837D01*
X111427702Y-54003188D01*
X111039156Y-53842247D01*
X110626679Y-53760200D01*
X110206121Y-53760200D01*
X109793644Y-53842247D01*
X109405098Y-54003188D01*
X109055417Y-54236837D01*
X108758037Y-54534217D01*
X108524388Y-54883898D01*
X108363447Y-55272444D01*
X108281400Y-55684921D01*
X82551399Y-55684921D01*
X82469352Y-55272444D01*
X82308411Y-54883899D01*
X82074762Y-54534218D01*
X81777382Y-54236838D01*
X81427701Y-54003189D01*
X81039156Y-53842248D01*
X80626679Y-53760201D01*
X80206121Y-53760201D01*
X79793644Y-53842248D01*
X79405099Y-54003189D01*
X79055418Y-54236838D01*
X78758038Y-54534218D01*
X78524389Y-54883899D01*
X78363448Y-55272444D01*
X78281401Y-55684921D01*
X48426954Y-55684921D01*
X49492305Y-54693043D01*
X49544410Y-54646626D01*
X49558057Y-54631826D01*
X49572790Y-54618109D01*
X49618954Y-54565784D01*
X53197471Y-50684921D01*
X78281400Y-50684921D01*
X78281400Y-51105479D01*
X78363447Y-51517956D01*
X78524388Y-51906502D01*
X78758037Y-52256183D01*
X79055417Y-52553563D01*
X79405098Y-52787212D01*
X79793644Y-52948153D01*
X80206121Y-53030200D01*
X80626679Y-53030200D01*
X81039156Y-52948153D01*
X81427702Y-52787212D01*
X81777383Y-52553563D01*
X82074763Y-52256183D01*
X82308412Y-51906502D01*
X82469353Y-51517956D01*
X82551400Y-51105479D01*
X82551400Y-50895200D01*
X107989715Y-50895200D01*
X108036343Y-51368623D01*
X108174435Y-51823852D01*
X108398685Y-52243394D01*
X108700475Y-52611125D01*
X109068206Y-52912915D01*
X109487748Y-53137165D01*
X109942977Y-53275257D01*
X110297760Y-53310200D01*
X133136168Y-53310200D01*
X133254800Y-53321884D01*
X133373432Y-53310200D01*
X133373440Y-53310200D01*
X133728223Y-53275257D01*
X134183452Y-53137165D01*
X134602994Y-52912915D01*
X134970725Y-52611125D01*
X135046354Y-52518971D01*
X138951554Y-48613772D01*
X139177715Y-48338194D01*
X139401964Y-47918653D01*
X139540057Y-47463423D01*
X139586684Y-46990000D01*
X139540057Y-46516578D01*
X139401964Y-46061348D01*
X139177715Y-45641807D01*
X138875925Y-45274075D01*
X138508193Y-44972285D01*
X138088652Y-44748036D01*
X137633422Y-44609943D01*
X137160000Y-44563316D01*
X136686577Y-44609943D01*
X136231347Y-44748036D01*
X135811806Y-44972285D01*
X135536228Y-45198446D01*
X132608726Y-48125949D01*
X132692012Y-48001302D01*
X132852953Y-47612756D01*
X132935000Y-47200279D01*
X132935000Y-46779721D01*
X132852953Y-46367244D01*
X132692012Y-45978698D01*
X132458363Y-45629017D01*
X132160983Y-45331637D01*
X131811302Y-45097988D01*
X131422756Y-44937047D01*
X131010279Y-44855000D01*
X130589721Y-44855000D01*
X130177244Y-44937047D01*
X129788698Y-45097988D01*
X129439017Y-45331637D01*
X129141637Y-45629017D01*
X128907988Y-45978698D01*
X128747047Y-46367244D01*
X128665000Y-46779721D01*
X128665000Y-47200279D01*
X128747047Y-47612756D01*
X128907988Y-48001302D01*
X129141637Y-48350983D01*
X129270854Y-48480200D01*
X110297760Y-48480200D01*
X109942977Y-48515143D01*
X109487748Y-48653235D01*
X109068206Y-48877485D01*
X108700475Y-49179275D01*
X108398685Y-49547006D01*
X108174435Y-49966548D01*
X108036343Y-50421777D01*
X107989715Y-50895200D01*
X82551400Y-50895200D01*
X82551400Y-50684921D01*
X82469353Y-50272444D01*
X82308412Y-49883898D01*
X82074763Y-49534217D01*
X81777383Y-49236837D01*
X81427702Y-49003188D01*
X81039156Y-48842247D01*
X80626679Y-48760200D01*
X80206121Y-48760200D01*
X79793644Y-48842247D01*
X79405098Y-49003188D01*
X79055417Y-49236837D01*
X78758037Y-49534217D01*
X78524388Y-49883898D01*
X78363447Y-50272444D01*
X78281400Y-50684921D01*
X53197471Y-50684921D01*
X55926610Y-47725200D01*
X79312293Y-47725200D01*
X79405099Y-47787211D01*
X79793644Y-47948152D01*
X80206121Y-48030199D01*
X80626679Y-48030199D01*
X81039156Y-47948152D01*
X81427701Y-47787211D01*
X81777382Y-47553562D01*
X82074762Y-47256182D01*
X82308411Y-46906501D01*
X82469352Y-46517956D01*
X82551399Y-46105479D01*
X82551399Y-45684921D01*
X108281401Y-45684921D01*
X108281401Y-46105479D01*
X108363448Y-46517956D01*
X108524389Y-46906501D01*
X108758038Y-47256182D01*
X109055418Y-47553562D01*
X109405099Y-47787211D01*
X109793644Y-47948152D01*
X110206121Y-48030199D01*
X110626679Y-48030199D01*
X111039156Y-47948152D01*
X111427701Y-47787211D01*
X111777382Y-47553562D01*
X112074762Y-47256182D01*
X112308411Y-46906501D01*
X112469352Y-46517956D01*
X112551399Y-46105479D01*
X112551399Y-45684921D01*
X112469352Y-45272444D01*
X112308411Y-44883899D01*
X112074762Y-44534218D01*
X111777382Y-44236838D01*
X111427701Y-44003189D01*
X111039156Y-43842248D01*
X110626679Y-43760201D01*
X110206121Y-43760201D01*
X109793644Y-43842248D01*
X109405099Y-44003189D01*
X109055418Y-44236838D01*
X108758038Y-44534218D01*
X108524389Y-44883899D01*
X108363448Y-45272444D01*
X108281401Y-45684921D01*
X82551399Y-45684921D01*
X82469352Y-45272444D01*
X82308411Y-44883899D01*
X82074762Y-44534218D01*
X81777382Y-44236838D01*
X81427701Y-44003189D01*
X81039156Y-43842248D01*
X80626679Y-43760201D01*
X80206121Y-43760201D01*
X79793644Y-43842248D01*
X79405099Y-44003189D01*
X79312293Y-44065200D01*
X55177546Y-44065200D01*
X55050328Y-44057856D01*
X54908562Y-44077644D01*
X54766057Y-44091679D01*
X54730304Y-44102525D01*
X54693311Y-44107688D01*
X54558121Y-44154756D01*
X54421101Y-44196320D01*
X54388152Y-44213932D01*
X54352874Y-44226214D01*
X54229453Y-44298758D01*
X54103187Y-44366249D01*
X54074309Y-44389949D01*
X54042104Y-44408878D01*
X53935206Y-44504108D01*
X53824534Y-44594934D01*
X53743679Y-44693456D01*
X46961953Y-52048164D01*
X43334987Y-55424995D01*
X39440134Y-58997338D01*
X39339735Y-59079734D01*
X39250453Y-59188524D01*
X39156556Y-59293365D01*
X39136297Y-59327623D01*
X39111050Y-59358387D01*
X39044707Y-59482507D01*
X38973068Y-59603650D01*
X38959883Y-59641201D01*
X38941121Y-59676301D01*
X38900266Y-59810983D01*
X38853639Y-59943771D01*
X38848033Y-59983173D01*
X38836480Y-60021257D01*
X38822686Y-60161307D01*
X38802859Y-60300654D01*
X36029891Y-60300654D01*
X36032911Y-60270000D01*
X36001343Y-59949484D01*
X35907852Y-59641285D01*
X35756031Y-59357248D01*
X35551714Y-59108286D01*
X35302752Y-58903969D01*
X35018715Y-58752148D01*
X34710516Y-58658657D01*
X34470322Y-58635000D01*
X32809678Y-58635000D01*
X32569484Y-58658657D01*
X32261285Y-58752148D01*
X31977248Y-58903969D01*
X31728286Y-59108286D01*
X31523969Y-59357248D01*
X31372148Y-59641285D01*
X31278657Y-59949484D01*
X31247089Y-60270000D01*
X26060000Y-60270000D01*
X26060000Y-26060000D01*
X177140000Y-26060000D01*
X177140001Y-139040000D01*
G37*
X177140001Y-139040000D02*
X26060000Y-139040000D01*
X26060000Y-125240000D01*
X54566928Y-125240000D01*
X54579188Y-125364482D01*
X54615498Y-125484180D01*
X54674463Y-125594494D01*
X54753815Y-125691185D01*
X54850506Y-125770537D01*
X54960820Y-125829502D01*
X55080518Y-125865812D01*
X55205000Y-125878072D01*
X55594250Y-125875000D01*
X55753000Y-125716250D01*
X55753000Y-124667000D01*
X56007000Y-124667000D01*
X56007000Y-125716250D01*
X56165750Y-125875000D01*
X56555000Y-125878072D01*
X56679482Y-125865812D01*
X56799180Y-125829502D01*
X56909494Y-125770537D01*
X57006185Y-125691185D01*
X57085537Y-125594494D01*
X57144502Y-125484180D01*
X57180812Y-125364482D01*
X57193072Y-125240000D01*
X57190000Y-124825750D01*
X57031250Y-124667000D01*
X56007000Y-124667000D01*
X55753000Y-124667000D01*
X54728750Y-124667000D01*
X54570000Y-124825750D01*
X54566928Y-125240000D01*
X26060000Y-125240000D01*
X26060000Y-123840000D01*
X54566928Y-123840000D01*
X54570000Y-124254250D01*
X54728750Y-124413000D01*
X55753000Y-124413000D01*
X55753000Y-123363750D01*
X56007000Y-123363750D01*
X56007000Y-124413000D01*
X57031250Y-124413000D01*
X57190000Y-124254250D01*
X57193072Y-123840000D01*
X57180812Y-123715518D01*
X57144502Y-123595820D01*
X57085537Y-123485506D01*
X57012353Y-123396330D01*
X106530278Y-123396330D01*
X106620147Y-123642123D01*
X106756241Y-123865660D01*
X106933330Y-124058351D01*
X107144608Y-124212792D01*
X107381956Y-124323047D01*
X107489671Y-124355716D01*
X107696000Y-124232374D01*
X107696000Y-123190000D01*
X107950000Y-123190000D01*
X107950000Y-124232374D01*
X108156329Y-124355716D01*
X108264044Y-124323047D01*
X108501392Y-124212792D01*
X108712670Y-124058351D01*
X108889759Y-123865660D01*
X109025853Y-123642123D01*
X109115722Y-123396330D01*
X108993201Y-123190000D01*
X107950000Y-123190000D01*
X107696000Y-123190000D01*
X106652799Y-123190000D01*
X106530278Y-123396330D01*
X57012353Y-123396330D01*
X57006185Y-123388815D01*
X56909494Y-123309463D01*
X56799180Y-123250498D01*
X56679482Y-123214188D01*
X56555000Y-123201928D01*
X56165750Y-123205000D01*
X56007000Y-123363750D01*
X55753000Y-123363750D01*
X55594250Y-123205000D01*
X55205000Y-123201928D01*
X55080518Y-123214188D01*
X54960820Y-123250498D01*
X54850506Y-123309463D01*
X54753815Y-123388815D01*
X54674463Y-123485506D01*
X54615498Y-123595820D01*
X54579188Y-123715518D01*
X54566928Y-123840000D01*
X26060000Y-123840000D01*
X26060000Y-101020000D01*
X31247089Y-101020000D01*
X31278657Y-101340516D01*
X31372148Y-101648715D01*
X31523969Y-101932752D01*
X31728286Y-102181714D01*
X31977248Y-102386031D01*
X32261285Y-102537852D01*
X32569484Y-102631343D01*
X32809678Y-102655000D01*
X34470322Y-102655000D01*
X34710516Y-102631343D01*
X35018715Y-102537852D01*
X35302752Y-102386031D01*
X35551714Y-102181714D01*
X35756031Y-101932752D01*
X35907852Y-101648715D01*
X36001343Y-101340516D01*
X36032911Y-101020000D01*
X36001343Y-100699484D01*
X35907852Y-100391285D01*
X35756031Y-100107248D01*
X35551714Y-99858286D01*
X35302752Y-99653969D01*
X35018715Y-99502148D01*
X34710516Y-99408657D01*
X34470322Y-99385000D01*
X32809678Y-99385000D01*
X32569484Y-99408657D01*
X32261285Y-99502148D01*
X31977248Y-99653969D01*
X31728286Y-99858286D01*
X31523969Y-100107248D01*
X31372148Y-100391285D01*
X31278657Y-100699484D01*
X31247089Y-101020000D01*
X26060000Y-101020000D01*
X26060000Y-96378665D01*
X30205000Y-96378665D01*
X30205000Y-96661335D01*
X30260147Y-96938574D01*
X30368320Y-97199727D01*
X30525363Y-97434759D01*
X30725241Y-97634637D01*
X30960273Y-97791680D01*
X31221426Y-97899853D01*
X31498665Y-97955000D01*
X31781335Y-97955000D01*
X32058574Y-97899853D01*
X32319727Y-97791680D01*
X32554759Y-97634637D01*
X32754637Y-97434759D01*
X32911680Y-97199727D01*
X33005000Y-96974432D01*
X33005000Y-97297000D01*
X33061193Y-97613532D01*
X33178058Y-97913020D01*
X33351105Y-98183954D01*
X33573683Y-98415922D01*
X33837239Y-98600010D01*
X34131645Y-98729144D01*
X34259566Y-98760124D01*
X34513000Y-98640777D01*
X34513000Y-96647000D01*
X34767000Y-96647000D01*
X34767000Y-98640777D01*
X35020434Y-98760124D01*
X35148355Y-98729144D01*
X35442761Y-98600010D01*
X35706317Y-98415922D01*
X35928895Y-98183954D01*
X36101942Y-97913020D01*
X36218807Y-97613532D01*
X36275000Y-97297000D01*
X36275000Y-96647000D01*
X34767000Y-96647000D01*
X34513000Y-96647000D01*
X34493000Y-96647000D01*
X34493000Y-96393000D01*
X34513000Y-96393000D01*
X34513000Y-94399223D01*
X34767000Y-94399223D01*
X34767000Y-96393000D01*
X36275000Y-96393000D01*
X36275000Y-95743000D01*
X36218807Y-95426468D01*
X36101942Y-95126980D01*
X35928895Y-94856046D01*
X35706317Y-94624078D01*
X35557311Y-94520000D01*
X39001928Y-94520000D01*
X39001928Y-98520000D01*
X39014188Y-98644482D01*
X39050498Y-98764180D01*
X39109463Y-98874494D01*
X39188815Y-98971185D01*
X39285506Y-99050537D01*
X39395820Y-99109502D01*
X39515518Y-99145812D01*
X39640000Y-99158072D01*
X41640000Y-99158072D01*
X41764482Y-99145812D01*
X41884180Y-99109502D01*
X41994494Y-99050537D01*
X42091185Y-98971185D01*
X42170537Y-98874494D01*
X42229502Y-98764180D01*
X42265812Y-98644482D01*
X42278072Y-98520000D01*
X42278072Y-97280000D01*
X42865199Y-97280000D01*
X51687312Y-106102114D01*
X51651000Y-106284665D01*
X51651000Y-106567335D01*
X51706147Y-106844574D01*
X51814320Y-107105727D01*
X51971363Y-107340759D01*
X52171241Y-107540637D01*
X52403759Y-107696000D01*
X52171241Y-107851363D01*
X51971363Y-108051241D01*
X51814320Y-108286273D01*
X51706147Y-108547426D01*
X51651000Y-108824665D01*
X51651000Y-109107335D01*
X51706147Y-109384574D01*
X51814320Y-109645727D01*
X51971363Y-109880759D01*
X52171241Y-110080637D01*
X52406273Y-110237680D01*
X52667426Y-110345853D01*
X52944665Y-110401000D01*
X53227335Y-110401000D01*
X53409886Y-110364688D01*
X55120001Y-112074803D01*
X55120000Y-113202225D01*
X55028987Y-113263038D01*
X54843038Y-113448987D01*
X54696939Y-113667641D01*
X54596304Y-113910595D01*
X54545000Y-114168514D01*
X54545000Y-114431486D01*
X54596304Y-114689405D01*
X54696939Y-114932359D01*
X54843038Y-115151013D01*
X55028987Y-115336962D01*
X55247641Y-115483061D01*
X55490595Y-115583696D01*
X55748514Y-115635000D01*
X56011486Y-115635000D01*
X56145001Y-115608442D01*
X56145001Y-118040197D01*
X56118843Y-118066355D01*
X56011486Y-118045000D01*
X55748514Y-118045000D01*
X55490595Y-118096304D01*
X55247641Y-118196939D01*
X55028987Y-118343038D01*
X54843038Y-118528987D01*
X54696939Y-118747641D01*
X54596304Y-118990595D01*
X54545000Y-119248514D01*
X54545000Y-119511486D01*
X54596304Y-119769405D01*
X54696939Y-120012359D01*
X54843038Y-120231013D01*
X55028987Y-120416962D01*
X55212929Y-120539867D01*
X55115149Y-120569528D01*
X54961613Y-120651595D01*
X54827038Y-120762038D01*
X54716595Y-120896613D01*
X54634528Y-121050149D01*
X54583992Y-121216745D01*
X54566928Y-121389999D01*
X54566928Y-122290001D01*
X54583992Y-122463255D01*
X54634528Y-122629851D01*
X54716595Y-122783387D01*
X54827038Y-122917962D01*
X54961613Y-123028405D01*
X55115149Y-123110472D01*
X55281745Y-123161008D01*
X55454999Y-123178072D01*
X56305001Y-123178072D01*
X56478255Y-123161008D01*
X56644851Y-123110472D01*
X56798387Y-123028405D01*
X56932962Y-122917962D01*
X57043405Y-122783387D01*
X57072117Y-122729670D01*
X106530278Y-122729670D01*
X106652799Y-122936000D01*
X107696000Y-122936000D01*
X107696000Y-121893626D01*
X107950000Y-121893626D01*
X107950000Y-122936000D01*
X108993201Y-122936000D01*
X109115722Y-122729670D01*
X109025853Y-122483877D01*
X108889759Y-122260340D01*
X108712670Y-122067649D01*
X108501392Y-121913208D01*
X108264044Y-121802953D01*
X108156329Y-121770284D01*
X107950000Y-121893626D01*
X107696000Y-121893626D01*
X107489671Y-121770284D01*
X107381956Y-121802953D01*
X107144608Y-121913208D01*
X106933330Y-122067649D01*
X106756241Y-122260340D01*
X106620147Y-122483877D01*
X106530278Y-122729670D01*
X57072117Y-122729670D01*
X57125472Y-122629851D01*
X57176008Y-122463255D01*
X57193072Y-122290001D01*
X57193072Y-121389999D01*
X57176008Y-121216745D01*
X57125472Y-121050149D01*
X57043405Y-120896613D01*
X56932962Y-120762038D01*
X56894000Y-120730063D01*
X56894000Y-120253975D01*
X56916962Y-120231013D01*
X57063061Y-120012359D01*
X57163696Y-119769405D01*
X57215000Y-119511486D01*
X57215000Y-119248514D01*
X57193645Y-119141157D01*
X57416005Y-118918797D01*
X57445002Y-118895000D01*
X57539975Y-118779275D01*
X57610547Y-118647246D01*
X57654004Y-118503985D01*
X57665001Y-118392332D01*
X57665001Y-118392323D01*
X57668677Y-118355000D01*
X57665001Y-118317677D01*
X57665001Y-115369721D01*
X71525000Y-115369721D01*
X71525000Y-115790279D01*
X71607047Y-116202756D01*
X71767988Y-116591302D01*
X72001637Y-116940983D01*
X72299017Y-117238363D01*
X72648698Y-117472012D01*
X73037244Y-117632953D01*
X73449721Y-117715000D01*
X73870279Y-117715000D01*
X74282756Y-117632953D01*
X74671302Y-117472012D01*
X75020983Y-117238363D01*
X75318363Y-116940983D01*
X75552012Y-116591302D01*
X75712953Y-116202756D01*
X75795000Y-115790279D01*
X75795000Y-115369721D01*
X75712953Y-114957244D01*
X75552012Y-114568698D01*
X75318363Y-114219017D01*
X75020983Y-113921637D01*
X74671302Y-113687988D01*
X74282756Y-113527047D01*
X73870279Y-113445000D01*
X73449721Y-113445000D01*
X73037244Y-113527047D01*
X72648698Y-113687988D01*
X72299017Y-113921637D01*
X72001637Y-114219017D01*
X71767988Y-114568698D01*
X71607047Y-114957244D01*
X71525000Y-115369721D01*
X57665001Y-115369721D01*
X57665001Y-108166000D01*
X59267928Y-108166000D01*
X59267928Y-109766000D01*
X59280188Y-109890482D01*
X59316498Y-110010180D01*
X59375463Y-110120494D01*
X59454815Y-110217185D01*
X59551506Y-110296537D01*
X59661820Y-110355502D01*
X59781518Y-110391812D01*
X59906000Y-110404072D01*
X61506000Y-110404072D01*
X61630482Y-110391812D01*
X61750180Y-110355502D01*
X61860494Y-110296537D01*
X61957185Y-110217185D01*
X62036537Y-110120494D01*
X62095502Y-110010180D01*
X62131812Y-109890482D01*
X62144072Y-109766000D01*
X62144072Y-108938873D01*
X65476200Y-112271002D01*
X65499999Y-112300001D01*
X65528997Y-112323799D01*
X65615723Y-112394974D01*
X65747753Y-112465546D01*
X65891014Y-112509003D01*
X66002667Y-112520000D01*
X66002676Y-112520000D01*
X66039999Y-112523676D01*
X66077322Y-112520000D01*
X78044199Y-112520000D01*
X85526211Y-120002013D01*
X85550009Y-120031011D01*
X85665734Y-120125984D01*
X85797763Y-120196556D01*
X85941024Y-120240013D01*
X86052677Y-120251010D01*
X86052686Y-120251010D01*
X86090009Y-120254686D01*
X86127332Y-120251010D01*
X97634668Y-120251010D01*
X97671990Y-120254686D01*
X97709312Y-120251010D01*
X97709323Y-120251010D01*
X97820976Y-120240013D01*
X97964237Y-120196556D01*
X98096266Y-120125984D01*
X98211991Y-120031011D01*
X98235794Y-120002007D01*
X98433729Y-119804072D01*
X98447001Y-119804072D01*
X98620255Y-119787008D01*
X98786851Y-119736472D01*
X98940387Y-119654405D01*
X99074962Y-119543962D01*
X99185405Y-119409387D01*
X99267472Y-119255851D01*
X99318008Y-119089255D01*
X99333791Y-118929011D01*
X99519802Y-118743000D01*
X103975667Y-118743000D01*
X104013000Y-118746677D01*
X104050333Y-118743000D01*
X106725225Y-118743000D01*
X106786038Y-118834013D01*
X106971987Y-119019962D01*
X107190641Y-119166061D01*
X107433595Y-119266696D01*
X107691514Y-119318000D01*
X107954486Y-119318000D01*
X108212405Y-119266696D01*
X108455359Y-119166061D01*
X108674013Y-119019962D01*
X108859962Y-118834013D01*
X109006061Y-118615359D01*
X109106696Y-118372405D01*
X109158000Y-118114486D01*
X109158000Y-117851514D01*
X109106696Y-117593595D01*
X109006061Y-117350641D01*
X108859962Y-117131987D01*
X108674013Y-116946038D01*
X108583000Y-116885225D01*
X108583000Y-116545852D01*
X111747439Y-113381414D01*
X111797987Y-113431962D01*
X112016641Y-113578061D01*
X112259595Y-113678696D01*
X112517514Y-113730000D01*
X112780486Y-113730000D01*
X113038405Y-113678696D01*
X113281359Y-113578061D01*
X113500013Y-113431962D01*
X113685962Y-113246013D01*
X113832061Y-113027359D01*
X113932696Y-112784405D01*
X113984000Y-112526486D01*
X113984000Y-112263514D01*
X116394000Y-112263514D01*
X116394000Y-112526486D01*
X116445304Y-112784405D01*
X116545939Y-113027359D01*
X116692038Y-113246013D01*
X116877987Y-113431962D01*
X117096641Y-113578061D01*
X117339595Y-113678696D01*
X117597514Y-113730000D01*
X117860486Y-113730000D01*
X118118405Y-113678696D01*
X118361359Y-113578061D01*
X118580013Y-113431962D01*
X118765962Y-113246013D01*
X118912061Y-113027359D01*
X118964401Y-112901000D01*
X122854056Y-112901000D01*
X122855528Y-112905851D01*
X122937595Y-113059387D01*
X123048038Y-113193962D01*
X123182613Y-113304405D01*
X123336149Y-113386472D01*
X123502745Y-113437008D01*
X123675999Y-113454072D01*
X124576001Y-113454072D01*
X124749255Y-113437008D01*
X124915851Y-113386472D01*
X125069387Y-113304405D01*
X125203962Y-113193962D01*
X125314405Y-113059387D01*
X125396472Y-112905851D01*
X125447008Y-112739255D01*
X125464072Y-112566001D01*
X125464072Y-112553874D01*
X125489209Y-112579011D01*
X125504992Y-112739255D01*
X125555528Y-112905851D01*
X125637595Y-113059387D01*
X125748038Y-113193962D01*
X125882613Y-113304405D01*
X126036149Y-113386472D01*
X126202745Y-113437008D01*
X126375999Y-113454072D01*
X127276001Y-113454072D01*
X127449255Y-113437008D01*
X127615851Y-113386472D01*
X127769387Y-113304405D01*
X127903962Y-113193962D01*
X128014405Y-113059387D01*
X128096472Y-112905851D01*
X128147008Y-112739255D01*
X128164072Y-112566001D01*
X128164072Y-111715999D01*
X128147008Y-111542745D01*
X128096472Y-111376149D01*
X128014405Y-111222613D01*
X127903962Y-111088038D01*
X127769387Y-110977595D01*
X127615851Y-110895528D01*
X127449255Y-110844992D01*
X127276001Y-110827928D01*
X126375999Y-110827928D01*
X126236000Y-110841717D01*
X126236000Y-110299373D01*
X126239676Y-110262050D01*
X126236000Y-110224727D01*
X126236000Y-110224718D01*
X126225003Y-110113065D01*
X126181546Y-109969804D01*
X126110975Y-109837776D01*
X126110974Y-109837774D01*
X126039799Y-109751048D01*
X126016001Y-109722050D01*
X125987004Y-109698253D01*
X123473753Y-107185003D01*
X123449950Y-107155999D01*
X123334225Y-107061026D01*
X123202196Y-106990454D01*
X123058935Y-106946997D01*
X123022740Y-106943432D01*
X122956962Y-106844987D01*
X122771013Y-106659038D01*
X122552359Y-106512939D01*
X122309405Y-106412304D01*
X122051486Y-106361000D01*
X121788514Y-106361000D01*
X121530595Y-106412304D01*
X121287641Y-106512939D01*
X121068987Y-106659038D01*
X120883038Y-106844987D01*
X120736939Y-107063641D01*
X120636304Y-107306595D01*
X120585000Y-107564514D01*
X120585000Y-107827486D01*
X120636304Y-108085405D01*
X120736939Y-108328359D01*
X120883038Y-108547013D01*
X121068987Y-108732962D01*
X121287641Y-108879061D01*
X121530595Y-108979696D01*
X121788514Y-109031000D01*
X122051486Y-109031000D01*
X122309405Y-108979696D01*
X122552359Y-108879061D01*
X122771013Y-108732962D01*
X122821561Y-108682414D01*
X124716000Y-110576853D01*
X124716000Y-110841717D01*
X124576001Y-110827928D01*
X123675999Y-110827928D01*
X123502745Y-110844992D01*
X123336149Y-110895528D01*
X123182613Y-110977595D01*
X123048038Y-111088038D01*
X122937595Y-111222613D01*
X122855528Y-111376149D01*
X122854056Y-111381000D01*
X118602975Y-111381000D01*
X118580013Y-111358038D01*
X118361359Y-111211939D01*
X118118405Y-111111304D01*
X117860486Y-111060000D01*
X117597514Y-111060000D01*
X117339595Y-111111304D01*
X117096641Y-111211939D01*
X116877987Y-111358038D01*
X116692038Y-111543987D01*
X116545939Y-111762641D01*
X116445304Y-112005595D01*
X116394000Y-112263514D01*
X113984000Y-112263514D01*
X113932696Y-112005595D01*
X113832061Y-111762641D01*
X113685962Y-111543987D01*
X113500013Y-111358038D01*
X113409000Y-111297225D01*
X113409000Y-111211852D01*
X115938439Y-108682414D01*
X115988987Y-108732962D01*
X116207641Y-108879061D01*
X116450595Y-108979696D01*
X116708514Y-109031000D01*
X116971486Y-109031000D01*
X117229405Y-108979696D01*
X117472359Y-108879061D01*
X117691013Y-108732962D01*
X117876962Y-108547013D01*
X118023061Y-108328359D01*
X118123696Y-108085405D01*
X118175000Y-107827486D01*
X118175000Y-107564514D01*
X118123696Y-107306595D01*
X118023061Y-107063641D01*
X117876962Y-106844987D01*
X117691013Y-106659038D01*
X117472359Y-106512939D01*
X117229405Y-106412304D01*
X116971486Y-106361000D01*
X116708514Y-106361000D01*
X116450595Y-106412304D01*
X116207641Y-106512939D01*
X115988987Y-106659038D01*
X115803038Y-106844987D01*
X115737260Y-106943432D01*
X115701065Y-106946997D01*
X115557804Y-106990454D01*
X115425775Y-107061026D01*
X115310050Y-107155999D01*
X115286252Y-107184997D01*
X112138003Y-110333247D01*
X112108999Y-110357050D01*
X112064694Y-110411036D01*
X112014026Y-110472775D01*
X111970451Y-110554297D01*
X111943454Y-110604805D01*
X111899997Y-110748066D01*
X111889000Y-110859719D01*
X111889000Y-110859729D01*
X111885324Y-110897051D01*
X111889000Y-110934373D01*
X111889000Y-111297225D01*
X111797987Y-111358038D01*
X111612038Y-111543987D01*
X111546260Y-111642432D01*
X111510065Y-111645997D01*
X111366804Y-111689454D01*
X111234775Y-111760026D01*
X111119050Y-111854999D01*
X111095252Y-111883997D01*
X107312003Y-115667247D01*
X107282999Y-115691050D01*
X107243913Y-115738677D01*
X107188026Y-115806775D01*
X107179888Y-115822000D01*
X107117454Y-115938805D01*
X107073997Y-116082066D01*
X107063000Y-116193719D01*
X107063000Y-116193729D01*
X107059324Y-116231051D01*
X107063000Y-116268373D01*
X107063000Y-116885225D01*
X106971987Y-116946038D01*
X106786038Y-117131987D01*
X106725225Y-117223000D01*
X104742888Y-117223000D01*
X104742331Y-117221164D01*
X104723879Y-117155977D01*
X104720624Y-117149605D01*
X104718546Y-117142753D01*
X104686590Y-117082968D01*
X104655784Y-117022653D01*
X104651349Y-117017039D01*
X104647974Y-117010724D01*
X104604984Y-116958340D01*
X104586241Y-116934612D01*
X104581308Y-116929492D01*
X104553001Y-116894999D01*
X104529504Y-116875715D01*
X102809753Y-115090516D01*
X102823472Y-115064851D01*
X102874008Y-114898255D01*
X102891072Y-114725001D01*
X102891072Y-113874999D01*
X102874008Y-113701745D01*
X102823472Y-113535149D01*
X102741405Y-113381613D01*
X102630962Y-113247038D01*
X102496387Y-113136595D01*
X102342851Y-113054528D01*
X102176255Y-113003992D01*
X102003001Y-112986928D01*
X101102999Y-112986928D01*
X100929745Y-113003992D01*
X100763149Y-113054528D01*
X100609613Y-113136595D01*
X100475038Y-113247038D01*
X100364595Y-113381613D01*
X100282528Y-113535149D01*
X100231992Y-113701745D01*
X100214928Y-113874999D01*
X100214928Y-114725001D01*
X100231992Y-114898255D01*
X100282528Y-115064851D01*
X100364595Y-115218387D01*
X100475038Y-115352962D01*
X100609613Y-115463405D01*
X100763149Y-115545472D01*
X100929745Y-115596008D01*
X101102999Y-115613072D01*
X101113489Y-115613072D01*
X101215724Y-115696974D01*
X101347753Y-115767546D01*
X101352901Y-115769107D01*
X102753489Y-117223000D01*
X99242322Y-117223000D01*
X99204999Y-117219324D01*
X99167676Y-117223000D01*
X99167667Y-117223000D01*
X99056014Y-117233997D01*
X98912753Y-117277454D01*
X98879667Y-117295139D01*
X98786851Y-117245528D01*
X98620255Y-117194992D01*
X98447001Y-117177928D01*
X97546999Y-117177928D01*
X97373745Y-117194992D01*
X97207149Y-117245528D01*
X97053613Y-117327595D01*
X96919038Y-117438038D01*
X96808595Y-117572613D01*
X96726528Y-117726149D01*
X96675992Y-117892745D01*
X96658928Y-118065999D01*
X96658928Y-118731010D01*
X96635072Y-118731010D01*
X96635072Y-118065999D01*
X96618008Y-117892745D01*
X96567472Y-117726149D01*
X96485405Y-117572613D01*
X96374962Y-117438038D01*
X96240387Y-117327595D01*
X96086851Y-117245528D01*
X95920255Y-117194992D01*
X95747001Y-117177928D01*
X94846999Y-117177928D01*
X94673745Y-117194992D01*
X94507149Y-117245528D01*
X94353613Y-117327595D01*
X94219038Y-117438038D01*
X94196411Y-117465609D01*
X90899316Y-114168514D01*
X92899000Y-114168514D01*
X92899000Y-114431486D01*
X92950304Y-114689405D01*
X93050939Y-114932359D01*
X93197038Y-115151013D01*
X93382987Y-115336962D01*
X93601641Y-115483061D01*
X93844595Y-115583696D01*
X94102514Y-115635000D01*
X94365486Y-115635000D01*
X94623405Y-115583696D01*
X94866359Y-115483061D01*
X95085013Y-115336962D01*
X95270962Y-115151013D01*
X95331775Y-115060000D01*
X97581056Y-115060000D01*
X97582528Y-115064851D01*
X97664595Y-115218387D01*
X97775038Y-115352962D01*
X97909613Y-115463405D01*
X98063149Y-115545472D01*
X98229745Y-115596008D01*
X98402999Y-115613072D01*
X99303001Y-115613072D01*
X99476255Y-115596008D01*
X99642851Y-115545472D01*
X99796387Y-115463405D01*
X99930962Y-115352962D01*
X100041405Y-115218387D01*
X100123472Y-115064851D01*
X100174008Y-114898255D01*
X100191072Y-114725001D01*
X100191072Y-113874999D01*
X100174008Y-113701745D01*
X100123472Y-113535149D01*
X100041405Y-113381613D01*
X99930962Y-113247038D01*
X99796387Y-113136595D01*
X99642851Y-113054528D01*
X99476255Y-113003992D01*
X99303001Y-112986928D01*
X98402999Y-112986928D01*
X98229745Y-113003992D01*
X98063149Y-113054528D01*
X97909613Y-113136595D01*
X97775038Y-113247038D01*
X97664595Y-113381613D01*
X97582528Y-113535149D01*
X97581056Y-113540000D01*
X95331775Y-113540000D01*
X95270962Y-113448987D01*
X95085013Y-113263038D01*
X94866359Y-113116939D01*
X94623405Y-113016304D01*
X94365486Y-112965000D01*
X94102514Y-112965000D01*
X93844595Y-113016304D01*
X93601641Y-113116939D01*
X93382987Y-113263038D01*
X93197038Y-113448987D01*
X93050939Y-113667641D01*
X92950304Y-113910595D01*
X92899000Y-114168514D01*
X90899316Y-114168514D01*
X90519804Y-113789003D01*
X90496001Y-113759999D01*
X90380276Y-113665026D01*
X90310334Y-113627641D01*
X90190962Y-113448987D01*
X90005013Y-113263038D01*
X89786359Y-113116939D01*
X89543405Y-113016304D01*
X89285486Y-112965000D01*
X89022514Y-112965000D01*
X88764595Y-113016304D01*
X88521641Y-113116939D01*
X88302987Y-113263038D01*
X88117038Y-113448987D01*
X87970939Y-113667641D01*
X87870304Y-113910595D01*
X87819000Y-114168514D01*
X87819000Y-114431486D01*
X87870304Y-114689405D01*
X87970939Y-114932359D01*
X88117038Y-115151013D01*
X88302987Y-115336962D01*
X88521641Y-115483061D01*
X88764595Y-115583696D01*
X89022514Y-115635000D01*
X89285486Y-115635000D01*
X89543405Y-115583696D01*
X89786359Y-115483061D01*
X89952949Y-115371750D01*
X93312208Y-118731010D01*
X86404812Y-118731010D01*
X78922804Y-111249003D01*
X78899001Y-111219999D01*
X78783276Y-111125026D01*
X78651247Y-111054454D01*
X78507986Y-111010997D01*
X78396333Y-111000000D01*
X78396322Y-111000000D01*
X78359000Y-110996324D01*
X78321678Y-111000000D01*
X66354802Y-111000000D01*
X63677782Y-108322980D01*
X72069437Y-108322980D01*
X72140429Y-108541094D01*
X72284031Y-108816923D01*
X72478685Y-109059437D01*
X72716911Y-109259316D01*
X72989554Y-109408879D01*
X73286137Y-109502378D01*
X73533000Y-109375570D01*
X73533000Y-108077000D01*
X73787000Y-108077000D01*
X73787000Y-109375570D01*
X74033863Y-109502378D01*
X74330446Y-109408879D01*
X74603089Y-109259316D01*
X74841315Y-109059437D01*
X75035969Y-108816923D01*
X75179571Y-108541094D01*
X75250563Y-108322980D01*
X75130594Y-108077000D01*
X73787000Y-108077000D01*
X73533000Y-108077000D01*
X72189406Y-108077000D01*
X72069437Y-108322980D01*
X63677782Y-108322980D01*
X62104688Y-106749887D01*
X62141000Y-106567335D01*
X62141000Y-106284665D01*
X62085853Y-106007426D01*
X61977680Y-105746273D01*
X61820637Y-105511241D01*
X61620759Y-105311363D01*
X61385727Y-105154320D01*
X61375135Y-105149933D01*
X61561131Y-105038385D01*
X61769519Y-104849414D01*
X61937037Y-104623420D01*
X62057246Y-104369087D01*
X62097904Y-104235039D01*
X61975915Y-104013000D01*
X60833000Y-104013000D01*
X60833000Y-104033000D01*
X60579000Y-104033000D01*
X60579000Y-104013000D01*
X59436085Y-104013000D01*
X59314096Y-104235039D01*
X59354754Y-104369087D01*
X59474963Y-104623420D01*
X59642481Y-104849414D01*
X59850869Y-105038385D01*
X60036865Y-105149933D01*
X60026273Y-105154320D01*
X59791241Y-105311363D01*
X59591363Y-105511241D01*
X59434320Y-105746273D01*
X59326147Y-106007426D01*
X59271000Y-106284665D01*
X59271000Y-106567335D01*
X59326147Y-106844574D01*
X59434320Y-107105727D01*
X59591363Y-107340759D01*
X59789961Y-107539357D01*
X59781518Y-107540188D01*
X59661820Y-107576498D01*
X59551506Y-107635463D01*
X59454815Y-107714815D01*
X59375463Y-107811506D01*
X59316498Y-107921820D01*
X59280188Y-108041518D01*
X59267928Y-108166000D01*
X57665001Y-108166000D01*
X57665001Y-105461800D01*
X59411872Y-103714929D01*
X59436085Y-103759000D01*
X60579000Y-103759000D01*
X60579000Y-103739000D01*
X60833000Y-103739000D01*
X60833000Y-103759000D01*
X61975915Y-103759000D01*
X62097904Y-103536961D01*
X62057246Y-103402913D01*
X61937037Y-103148580D01*
X61769519Y-102922586D01*
X61561131Y-102733615D01*
X61375135Y-102622067D01*
X61385727Y-102617680D01*
X61620759Y-102460637D01*
X61820637Y-102260759D01*
X61977680Y-102025727D01*
X62085853Y-101764574D01*
X62141000Y-101487335D01*
X62141000Y-101204665D01*
X62096509Y-100980999D01*
X69360842Y-100980999D01*
X71777658Y-103397816D01*
X71802236Y-103427764D01*
X71832184Y-103452342D01*
X71832187Y-103452345D01*
X71849753Y-103466761D01*
X71921767Y-103525862D01*
X72021928Y-103579399D01*
X72021928Y-103822500D01*
X72034188Y-103946982D01*
X72070498Y-104066680D01*
X72129463Y-104176994D01*
X72208815Y-104273685D01*
X72218595Y-104281712D01*
X72131049Y-104388387D01*
X71961120Y-104706301D01*
X71856479Y-105051257D01*
X71821146Y-105410000D01*
X71856479Y-105768743D01*
X71961120Y-106113699D01*
X72131049Y-106431613D01*
X72359734Y-106710266D01*
X72498373Y-106824044D01*
X72478685Y-106840563D01*
X72284031Y-107083077D01*
X72140429Y-107358906D01*
X72069437Y-107577020D01*
X72189406Y-107823000D01*
X73533000Y-107823000D01*
X73533000Y-107803000D01*
X73787000Y-107803000D01*
X73787000Y-107823000D01*
X75130594Y-107823000D01*
X75250563Y-107577020D01*
X75179571Y-107358906D01*
X75117666Y-107240000D01*
X76960111Y-107240000D01*
X77050000Y-107248853D01*
X77139889Y-107240000D01*
X77139896Y-107240000D01*
X77408743Y-107213521D01*
X77753699Y-107108880D01*
X78071613Y-106938951D01*
X78350266Y-106710266D01*
X78407574Y-106640436D01*
X81646841Y-103401170D01*
X81716666Y-103343866D01*
X81945351Y-103065213D01*
X82115280Y-102747299D01*
X82219921Y-102402343D01*
X82246400Y-102133496D01*
X82255254Y-102043600D01*
X82246400Y-101953704D01*
X82246400Y-90549596D01*
X157280009Y-90549596D01*
X157865724Y-91231816D01*
X158849304Y-91779445D01*
X159920823Y-92124665D01*
X161039101Y-92254208D01*
X162161165Y-92163097D01*
X163243894Y-91854833D01*
X164245679Y-91341263D01*
X164409476Y-91231816D01*
X164995191Y-90549596D01*
X161137600Y-86692005D01*
X157280009Y-90549596D01*
X82246400Y-90549596D01*
X82246400Y-86413901D01*
X155395792Y-86413901D01*
X155486903Y-87535965D01*
X155795167Y-88618694D01*
X156308737Y-89620479D01*
X156418184Y-89784276D01*
X157100404Y-90369991D01*
X160957995Y-86512400D01*
X161317205Y-86512400D01*
X165174796Y-90369991D01*
X165857016Y-89784276D01*
X166404645Y-88800696D01*
X166749865Y-87729177D01*
X166879408Y-86610899D01*
X166788297Y-85488835D01*
X166480033Y-84406106D01*
X165966463Y-83404321D01*
X165857016Y-83240524D01*
X165174796Y-82654809D01*
X161317205Y-86512400D01*
X160957995Y-86512400D01*
X157100404Y-82654809D01*
X156418184Y-83240524D01*
X155870555Y-84224104D01*
X155525335Y-85295623D01*
X155395792Y-86413901D01*
X82246400Y-86413901D01*
X82246400Y-82475204D01*
X157280009Y-82475204D01*
X161137600Y-86332795D01*
X164995191Y-82475204D01*
X164409476Y-81792984D01*
X163425896Y-81245355D01*
X162354377Y-80900135D01*
X161236099Y-80770592D01*
X160114035Y-80861703D01*
X159031306Y-81169967D01*
X158029521Y-81683537D01*
X157865724Y-81792984D01*
X157280009Y-82475204D01*
X82246400Y-82475204D01*
X82246400Y-78667980D01*
X142411626Y-78667980D01*
X142531514Y-78952836D01*
X142855210Y-79113699D01*
X143204069Y-79208322D01*
X143564684Y-79233067D01*
X143923198Y-79186985D01*
X144265833Y-79071846D01*
X144488486Y-78952836D01*
X144608374Y-78667980D01*
X143510000Y-77569605D01*
X142411626Y-78667980D01*
X82246400Y-78667980D01*
X82246400Y-76999307D01*
X82308411Y-76906501D01*
X82469352Y-76517956D01*
X82551399Y-76105479D01*
X82551399Y-75684921D01*
X108281400Y-75684921D01*
X108281400Y-76105479D01*
X108363447Y-76517956D01*
X108524388Y-76906502D01*
X108758037Y-77256183D01*
X109055417Y-77553563D01*
X109405098Y-77787212D01*
X109793644Y-77948153D01*
X110206121Y-78030200D01*
X110626679Y-78030200D01*
X111039156Y-77948153D01*
X111427702Y-77787212D01*
X111777383Y-77553563D01*
X111886262Y-77444684D01*
X141666933Y-77444684D01*
X141713015Y-77803198D01*
X141828154Y-78145833D01*
X141947164Y-78368486D01*
X142232020Y-78488374D01*
X143330395Y-77390000D01*
X143689605Y-77390000D01*
X144787980Y-78488374D01*
X145072836Y-78368486D01*
X145233699Y-78044790D01*
X145328322Y-77695931D01*
X145353067Y-77335316D01*
X145306985Y-76976802D01*
X145191846Y-76634167D01*
X145072836Y-76411514D01*
X144787980Y-76291626D01*
X143689605Y-77390000D01*
X143330395Y-77390000D01*
X142232020Y-76291626D01*
X141947164Y-76411514D01*
X141786301Y-76735210D01*
X141691678Y-77084069D01*
X141666933Y-77444684D01*
X111886262Y-77444684D01*
X112074763Y-77256183D01*
X112308412Y-76906502D01*
X112469353Y-76517956D01*
X112550098Y-76112020D01*
X142411626Y-76112020D01*
X143510000Y-77210395D01*
X144608374Y-76112020D01*
X144488486Y-75827164D01*
X144164790Y-75666301D01*
X143815931Y-75571678D01*
X143455316Y-75546933D01*
X143096802Y-75593015D01*
X142754167Y-75708154D01*
X142531514Y-75827164D01*
X142411626Y-76112020D01*
X112550098Y-76112020D01*
X112551400Y-76105479D01*
X112551400Y-75684921D01*
X112469353Y-75272444D01*
X112308412Y-74883898D01*
X112074763Y-74534217D01*
X111777383Y-74236837D01*
X111427702Y-74003188D01*
X111039156Y-73842247D01*
X110626679Y-73760200D01*
X110206121Y-73760200D01*
X109793644Y-73842247D01*
X109405098Y-74003188D01*
X109055417Y-74236837D01*
X108758037Y-74534217D01*
X108524388Y-74883898D01*
X108363447Y-75272444D01*
X108281400Y-75684921D01*
X82551399Y-75684921D01*
X82469352Y-75272444D01*
X82308411Y-74883899D01*
X82074762Y-74534218D01*
X81777382Y-74236838D01*
X81427701Y-74003189D01*
X81039156Y-73842248D01*
X80626679Y-73760201D01*
X80206121Y-73760201D01*
X79793644Y-73842248D01*
X79405099Y-74003189D01*
X79055418Y-74236838D01*
X78758038Y-74534218D01*
X78524389Y-74883899D01*
X78363448Y-75272444D01*
X78281401Y-75684921D01*
X78281401Y-76105479D01*
X78363448Y-76517956D01*
X78524389Y-76906501D01*
X78586400Y-76999307D01*
X78586401Y-101285588D01*
X76291990Y-103580000D01*
X75298072Y-103580000D01*
X75298072Y-101917500D01*
X75285812Y-101793018D01*
X75249502Y-101673320D01*
X75190537Y-101563006D01*
X75111185Y-101466315D01*
X75014494Y-101386963D01*
X74904180Y-101327998D01*
X74784482Y-101291688D01*
X74660000Y-101279428D01*
X72660000Y-101279428D01*
X72535518Y-101291688D01*
X72415820Y-101327998D01*
X72305506Y-101386963D01*
X72208815Y-101466315D01*
X72144654Y-101544496D01*
X70268346Y-99668189D01*
X70243763Y-99638235D01*
X70124232Y-99540137D01*
X69987859Y-99467245D01*
X69839886Y-99422358D01*
X69724560Y-99410999D01*
X69724552Y-99410999D01*
X69685999Y-99407202D01*
X69647446Y-99410999D01*
X56814553Y-99410999D01*
X56776000Y-99407202D01*
X56737447Y-99410999D01*
X56737440Y-99410999D01*
X56622114Y-99422358D01*
X56474141Y-99467245D01*
X56337768Y-99540137D01*
X56277560Y-99589549D01*
X56248188Y-99613654D01*
X56248185Y-99613657D01*
X56218237Y-99638235D01*
X56193659Y-99668183D01*
X54521000Y-101340843D01*
X54521000Y-101218998D01*
X54355916Y-101218998D01*
X54477904Y-100996961D01*
X54437246Y-100862913D01*
X54317037Y-100608580D01*
X54149519Y-100382586D01*
X53941131Y-100193615D01*
X53699881Y-100048930D01*
X53435040Y-99954091D01*
X53213000Y-100075376D01*
X53213000Y-101219000D01*
X53233000Y-101219000D01*
X53233000Y-101473000D01*
X53213000Y-101473000D01*
X53213000Y-101493000D01*
X52959000Y-101493000D01*
X52959000Y-101473000D01*
X51816085Y-101473000D01*
X51694096Y-101695039D01*
X51734754Y-101829087D01*
X51854963Y-102083420D01*
X52022481Y-102309414D01*
X52230869Y-102498385D01*
X52416865Y-102609933D01*
X52406273Y-102614320D01*
X52171241Y-102771363D01*
X51971363Y-102971241D01*
X51814320Y-103206273D01*
X51706147Y-103467426D01*
X51651000Y-103744665D01*
X51651000Y-103916198D01*
X48731763Y-100996961D01*
X51694096Y-100996961D01*
X51816085Y-101219000D01*
X52959000Y-101219000D01*
X52959000Y-100075376D01*
X52736960Y-99954091D01*
X52472119Y-100048930D01*
X52230869Y-100193615D01*
X52022481Y-100382586D01*
X51854963Y-100608580D01*
X51734754Y-100862913D01*
X51694096Y-100996961D01*
X48731763Y-100996961D01*
X45304523Y-97569721D01*
X71525000Y-97569721D01*
X71525000Y-97990279D01*
X71607047Y-98402756D01*
X71767988Y-98791302D01*
X72001637Y-99140983D01*
X72299017Y-99438363D01*
X72648698Y-99672012D01*
X73037244Y-99832953D01*
X73449721Y-99915000D01*
X73870279Y-99915000D01*
X74282756Y-99832953D01*
X74671302Y-99672012D01*
X75020983Y-99438363D01*
X75318363Y-99140983D01*
X75552012Y-98791302D01*
X75712953Y-98402756D01*
X75795000Y-97990279D01*
X75795000Y-97569721D01*
X75712953Y-97157244D01*
X75552012Y-96768698D01*
X75318363Y-96419017D01*
X75020983Y-96121637D01*
X74671302Y-95887988D01*
X74282756Y-95727047D01*
X73870279Y-95645000D01*
X73449721Y-95645000D01*
X73037244Y-95727047D01*
X72648698Y-95887988D01*
X72299017Y-96121637D01*
X72001637Y-96419017D01*
X71767988Y-96768698D01*
X71607047Y-97157244D01*
X71525000Y-97569721D01*
X45304523Y-97569721D01*
X43743804Y-96009003D01*
X43720001Y-95979999D01*
X43604276Y-95885026D01*
X43472247Y-95814454D01*
X43328986Y-95770997D01*
X43217333Y-95760000D01*
X43217322Y-95760000D01*
X43180000Y-95756324D01*
X43142678Y-95760000D01*
X42278072Y-95760000D01*
X42278072Y-94520000D01*
X42265812Y-94395518D01*
X42229502Y-94275820D01*
X42170537Y-94165506D01*
X42091185Y-94068815D01*
X41994494Y-93989463D01*
X41884180Y-93930498D01*
X41764482Y-93894188D01*
X41640000Y-93881928D01*
X39640000Y-93881928D01*
X39515518Y-93894188D01*
X39395820Y-93930498D01*
X39285506Y-93989463D01*
X39188815Y-94068815D01*
X39109463Y-94165506D01*
X39050498Y-94275820D01*
X39014188Y-94395518D01*
X39001928Y-94520000D01*
X35557311Y-94520000D01*
X35442761Y-94439990D01*
X35148355Y-94310856D01*
X35020434Y-94279876D01*
X34767000Y-94399223D01*
X34513000Y-94399223D01*
X34259566Y-94279876D01*
X34131645Y-94310856D01*
X33837239Y-94439990D01*
X33573683Y-94624078D01*
X33351105Y-94856046D01*
X33178058Y-95126980D01*
X33061193Y-95426468D01*
X33005000Y-95743000D01*
X33005000Y-96065568D01*
X32911680Y-95840273D01*
X32754637Y-95605241D01*
X32554759Y-95405363D01*
X32319727Y-95248320D01*
X32058574Y-95140147D01*
X31781335Y-95085000D01*
X31498665Y-95085000D01*
X31221426Y-95140147D01*
X30960273Y-95248320D01*
X30725241Y-95405363D01*
X30525363Y-95605241D01*
X30368320Y-95840273D01*
X30260147Y-96101426D01*
X30205000Y-96378665D01*
X26060000Y-96378665D01*
X26060000Y-92020000D01*
X31247089Y-92020000D01*
X31278657Y-92340516D01*
X31372148Y-92648715D01*
X31523969Y-92932752D01*
X31728286Y-93181714D01*
X31977248Y-93386031D01*
X32261285Y-93537852D01*
X32569484Y-93631343D01*
X32809678Y-93655000D01*
X34470322Y-93655000D01*
X34710516Y-93631343D01*
X35018715Y-93537852D01*
X35302752Y-93386031D01*
X35551714Y-93181714D01*
X35756031Y-92932752D01*
X35907852Y-92648715D01*
X36001343Y-92340516D01*
X36032911Y-92020000D01*
X36020937Y-91898416D01*
X59729800Y-91898416D01*
X59729800Y-92200784D01*
X59788789Y-92497343D01*
X59904501Y-92776695D01*
X60072488Y-93028105D01*
X60286295Y-93241912D01*
X60537705Y-93409899D01*
X60817057Y-93525611D01*
X61113616Y-93584600D01*
X61415984Y-93584600D01*
X61712543Y-93525611D01*
X61991895Y-93409899D01*
X62243305Y-93241912D01*
X62457112Y-93028105D01*
X62625099Y-92776695D01*
X62740811Y-92497343D01*
X62799800Y-92200784D01*
X62799800Y-91898416D01*
X62740811Y-91601857D01*
X62625099Y-91322505D01*
X62457112Y-91071095D01*
X62243305Y-90857288D01*
X61991895Y-90689301D01*
X61712543Y-90573589D01*
X61415984Y-90514600D01*
X61113616Y-90514600D01*
X60817057Y-90573589D01*
X60537705Y-90689301D01*
X60286295Y-90857288D01*
X60072488Y-91071095D01*
X59904501Y-91322505D01*
X59788789Y-91601857D01*
X59729800Y-91898416D01*
X36020937Y-91898416D01*
X36001343Y-91699484D01*
X35907852Y-91391285D01*
X35756031Y-91107248D01*
X35551714Y-90858286D01*
X35302752Y-90653969D01*
X35018715Y-90502148D01*
X34710516Y-90408657D01*
X34470322Y-90385000D01*
X32809678Y-90385000D01*
X32569484Y-90408657D01*
X32261285Y-90502148D01*
X31977248Y-90653969D01*
X31728286Y-90858286D01*
X31523969Y-91107248D01*
X31372148Y-91391285D01*
X31278657Y-91699484D01*
X31247089Y-92020000D01*
X26060000Y-92020000D01*
X26060000Y-69270000D01*
X31247089Y-69270000D01*
X31278657Y-69590516D01*
X31372148Y-69898715D01*
X31523969Y-70182752D01*
X31728286Y-70431714D01*
X31977248Y-70636031D01*
X32261285Y-70787852D01*
X32569484Y-70881343D01*
X32809678Y-70905000D01*
X34470322Y-70905000D01*
X34710516Y-70881343D01*
X35018715Y-70787852D01*
X35302752Y-70636031D01*
X35551714Y-70431714D01*
X35756031Y-70182752D01*
X35907852Y-69898715D01*
X36001343Y-69590516D01*
X36032911Y-69270000D01*
X36001343Y-68949484D01*
X35907852Y-68641285D01*
X35756031Y-68357248D01*
X35551714Y-68108286D01*
X35302752Y-67903969D01*
X35018715Y-67752148D01*
X34710516Y-67658657D01*
X34470322Y-67635000D01*
X32809678Y-67635000D01*
X32569484Y-67658657D01*
X32261285Y-67752148D01*
X31977248Y-67903969D01*
X31728286Y-68108286D01*
X31523969Y-68357248D01*
X31372148Y-68641285D01*
X31278657Y-68949484D01*
X31247089Y-69270000D01*
X26060000Y-69270000D01*
X26060000Y-64628665D01*
X30205000Y-64628665D01*
X30205000Y-64911335D01*
X30260147Y-65188574D01*
X30368320Y-65449727D01*
X30525363Y-65684759D01*
X30725241Y-65884637D01*
X30960273Y-66041680D01*
X31221426Y-66149853D01*
X31498665Y-66205000D01*
X31781335Y-66205000D01*
X32058574Y-66149853D01*
X32319727Y-66041680D01*
X32554759Y-65884637D01*
X32754637Y-65684759D01*
X32911680Y-65449727D01*
X33005000Y-65224432D01*
X33005000Y-65547000D01*
X33061193Y-65863532D01*
X33178058Y-66163020D01*
X33351105Y-66433954D01*
X33573683Y-66665922D01*
X33837239Y-66850010D01*
X34131645Y-66979144D01*
X34259566Y-67010124D01*
X34513000Y-66890777D01*
X34513000Y-64897000D01*
X34767000Y-64897000D01*
X34767000Y-66890777D01*
X35020434Y-67010124D01*
X35148355Y-66979144D01*
X35442761Y-66850010D01*
X35706317Y-66665922D01*
X35928895Y-66433954D01*
X36101942Y-66163020D01*
X36218807Y-65863532D01*
X36275000Y-65547000D01*
X36275000Y-64897000D01*
X34767000Y-64897000D01*
X34513000Y-64897000D01*
X34493000Y-64897000D01*
X34493000Y-64643000D01*
X34513000Y-64643000D01*
X34513000Y-62649223D01*
X34767000Y-62649223D01*
X34767000Y-64643000D01*
X36275000Y-64643000D01*
X36275000Y-63993000D01*
X36218807Y-63676468D01*
X36101942Y-63376980D01*
X35928895Y-63106046D01*
X35706317Y-62874078D01*
X35442761Y-62689990D01*
X35148355Y-62560856D01*
X35020434Y-62529876D01*
X34767000Y-62649223D01*
X34513000Y-62649223D01*
X34259566Y-62529876D01*
X34131645Y-62560856D01*
X33837239Y-62689990D01*
X33573683Y-62874078D01*
X33351105Y-63106046D01*
X33178058Y-63376980D01*
X33061193Y-63676468D01*
X33005000Y-63993000D01*
X33005000Y-64315568D01*
X32911680Y-64090273D01*
X32754637Y-63855241D01*
X32554759Y-63655363D01*
X32319727Y-63498320D01*
X32058574Y-63390147D01*
X31781335Y-63335000D01*
X31498665Y-63335000D01*
X31221426Y-63390147D01*
X30960273Y-63498320D01*
X30725241Y-63655363D01*
X30525363Y-63855241D01*
X30368320Y-64090273D01*
X30260147Y-64351426D01*
X30205000Y-64628665D01*
X26060000Y-64628665D01*
X26060000Y-60270000D01*
X31247089Y-60270000D01*
X31278657Y-60590516D01*
X31372148Y-60898715D01*
X31523969Y-61182752D01*
X31728286Y-61431714D01*
X31977248Y-61636031D01*
X32261285Y-61787852D01*
X32569484Y-61881343D01*
X32809678Y-61905000D01*
X34470322Y-61905000D01*
X34710516Y-61881343D01*
X35018715Y-61787852D01*
X35302752Y-61636031D01*
X35551714Y-61431714D01*
X35756031Y-61182752D01*
X35907852Y-60898715D01*
X36001343Y-60590516D01*
X36029891Y-60300654D01*
X38802859Y-60300654D01*
X38810001Y-60430352D01*
X38810000Y-64859895D01*
X38836479Y-65128742D01*
X38941120Y-65473698D01*
X39001928Y-65587461D01*
X39001928Y-66770000D01*
X39014188Y-66894482D01*
X39050498Y-67014180D01*
X39109463Y-67124494D01*
X39188815Y-67221185D01*
X39285506Y-67300537D01*
X39395820Y-67359502D01*
X39515518Y-67395812D01*
X39640000Y-67408072D01*
X41640000Y-67408072D01*
X41764482Y-67395812D01*
X41884180Y-67359502D01*
X41994494Y-67300537D01*
X42091185Y-67221185D01*
X42170537Y-67124494D01*
X42229502Y-67014180D01*
X42265812Y-66894482D01*
X42278072Y-66770000D01*
X42278072Y-65587462D01*
X42338880Y-65473699D01*
X42443521Y-65128743D01*
X42470000Y-64859896D01*
X42470000Y-61184706D01*
X45311601Y-58578402D01*
X56136001Y-69402803D01*
X56136000Y-72900000D01*
X54640975Y-72900000D01*
X54580162Y-72808987D01*
X54394213Y-72623038D01*
X54175559Y-72476939D01*
X53932605Y-72376304D01*
X53674686Y-72325000D01*
X53411714Y-72325000D01*
X53153795Y-72376304D01*
X52910841Y-72476939D01*
X52692187Y-72623038D01*
X52506238Y-72808987D01*
X52360139Y-73027641D01*
X52259504Y-73270595D01*
X52208200Y-73528514D01*
X52208200Y-73791486D01*
X52259504Y-74049405D01*
X52360139Y-74292359D01*
X52506238Y-74511013D01*
X52692187Y-74696962D01*
X52910841Y-74843061D01*
X53153795Y-74943696D01*
X53411714Y-74995000D01*
X53674686Y-74995000D01*
X53932605Y-74943696D01*
X54175559Y-74843061D01*
X54394213Y-74696962D01*
X54580162Y-74511013D01*
X54640975Y-74420000D01*
X56858667Y-74420000D01*
X56896000Y-74423677D01*
X56933333Y-74420000D01*
X61401528Y-74420000D01*
X61401528Y-75272800D01*
X61413788Y-75397282D01*
X61450098Y-75516980D01*
X61509063Y-75627294D01*
X61588415Y-75723985D01*
X61685106Y-75803337D01*
X61795420Y-75862302D01*
X61891543Y-75891461D01*
X61724963Y-76058041D01*
X61567920Y-76293073D01*
X61459747Y-76554226D01*
X61404600Y-76831465D01*
X61404600Y-77114135D01*
X61440912Y-77296686D01*
X60757599Y-77980000D01*
X54640975Y-77980000D01*
X54580162Y-77888987D01*
X54394213Y-77703038D01*
X54175559Y-77556939D01*
X53932605Y-77456304D01*
X53674686Y-77405000D01*
X53411714Y-77405000D01*
X53153795Y-77456304D01*
X52910841Y-77556939D01*
X52692187Y-77703038D01*
X52506238Y-77888987D01*
X52360139Y-78107641D01*
X52259504Y-78350595D01*
X52208200Y-78608514D01*
X52208200Y-78871486D01*
X52259504Y-79129405D01*
X52360139Y-79372359D01*
X52506238Y-79591013D01*
X52692187Y-79776962D01*
X52910841Y-79923061D01*
X53153795Y-80023696D01*
X53411714Y-80075000D01*
X53674686Y-80075000D01*
X53932605Y-80023696D01*
X54175559Y-79923061D01*
X54394213Y-79776962D01*
X54580162Y-79591013D01*
X54640975Y-79500000D01*
X60504801Y-79500000D01*
X60504800Y-82891528D01*
X60364800Y-82891528D01*
X60240318Y-82903788D01*
X60120620Y-82940098D01*
X60010306Y-82999063D01*
X59913615Y-83078415D01*
X59834263Y-83175106D01*
X59775298Y-83285420D01*
X59738988Y-83405118D01*
X59726728Y-83529600D01*
X59726728Y-85329600D01*
X59738988Y-85454082D01*
X59775298Y-85573780D01*
X59834263Y-85684094D01*
X59913615Y-85780785D01*
X60010306Y-85860137D01*
X60120620Y-85919102D01*
X60240318Y-85955412D01*
X60364800Y-85967672D01*
X62164800Y-85967672D01*
X62289282Y-85955412D01*
X62408980Y-85919102D01*
X62519294Y-85860137D01*
X62615985Y-85780785D01*
X62695337Y-85684094D01*
X62754302Y-85573780D01*
X62790612Y-85454082D01*
X62802872Y-85329600D01*
X62802872Y-83529600D01*
X62790612Y-83405118D01*
X62754302Y-83285420D01*
X62695337Y-83175106D01*
X62615985Y-83078415D01*
X62519294Y-82999063D01*
X62408980Y-82940098D01*
X62289282Y-82903788D01*
X62164800Y-82891528D01*
X62024800Y-82891528D01*
X62024800Y-78862401D01*
X62515714Y-78371488D01*
X62698265Y-78407800D01*
X62980935Y-78407800D01*
X63258174Y-78352653D01*
X63519327Y-78244480D01*
X63754359Y-78087437D01*
X63954237Y-77887559D01*
X64111280Y-77652527D01*
X64219453Y-77391374D01*
X64274600Y-77114135D01*
X64274600Y-76831465D01*
X64219453Y-76554226D01*
X64111280Y-76293073D01*
X63954237Y-76058041D01*
X63787657Y-75891461D01*
X63883780Y-75862302D01*
X63994094Y-75803337D01*
X64090785Y-75723985D01*
X64170137Y-75627294D01*
X64229102Y-75516980D01*
X64265412Y-75397282D01*
X64277672Y-75272800D01*
X64277672Y-73672800D01*
X64265412Y-73548318D01*
X64229102Y-73428620D01*
X64170137Y-73318306D01*
X64090785Y-73221615D01*
X63994094Y-73142263D01*
X63883780Y-73083298D01*
X63764082Y-73046988D01*
X63639600Y-73034728D01*
X62462898Y-73034728D01*
X62451076Y-73025026D01*
X62319047Y-72954454D01*
X62175786Y-72910997D01*
X62064133Y-72900000D01*
X62064122Y-72900000D01*
X62026800Y-72896324D01*
X61989478Y-72900000D01*
X57656000Y-72900000D01*
X57656000Y-70684921D01*
X78281400Y-70684921D01*
X78281400Y-71105479D01*
X78363447Y-71517956D01*
X78524388Y-71906502D01*
X78758037Y-72256183D01*
X79055417Y-72553563D01*
X79405098Y-72787212D01*
X79793644Y-72948153D01*
X80206121Y-73030200D01*
X80626679Y-73030200D01*
X81039156Y-72948153D01*
X81427702Y-72787212D01*
X81777383Y-72553563D01*
X81944094Y-72386852D01*
X109104353Y-72386852D01*
X109260363Y-72702413D01*
X109635146Y-72893219D01*
X110039952Y-73007243D01*
X110459225Y-73040102D01*
X110876852Y-72990533D01*
X111276783Y-72860442D01*
X111572437Y-72702413D01*
X111728447Y-72386852D01*
X110416400Y-71074805D01*
X109104353Y-72386852D01*
X81944094Y-72386852D01*
X82074763Y-72256183D01*
X82308412Y-71906502D01*
X82469353Y-71517956D01*
X82551400Y-71105479D01*
X82551400Y-70938025D01*
X108271498Y-70938025D01*
X108321067Y-71355652D01*
X108451158Y-71755583D01*
X108609187Y-72051237D01*
X108924748Y-72207247D01*
X110236795Y-70895200D01*
X110596005Y-70895200D01*
X111908052Y-72207247D01*
X112223613Y-72051237D01*
X112414419Y-71676454D01*
X112528443Y-71271648D01*
X112540327Y-71120000D01*
X139813316Y-71120000D01*
X139859943Y-71593422D01*
X139998036Y-72048652D01*
X140222285Y-72468193D01*
X140448446Y-72743771D01*
X140448451Y-72743776D01*
X140524076Y-72835925D01*
X140616225Y-72911550D01*
X141718442Y-74013766D01*
X141794075Y-74105925D01*
X142161806Y-74407715D01*
X142581348Y-74631965D01*
X143036577Y-74770057D01*
X143391360Y-74805000D01*
X143391369Y-74805000D01*
X143509999Y-74816684D01*
X143628629Y-74805000D01*
X153348168Y-74805000D01*
X153466800Y-74816684D01*
X153585432Y-74805000D01*
X153585440Y-74805000D01*
X153940223Y-74770057D01*
X154395452Y-74631965D01*
X154814994Y-74407715D01*
X155182725Y-74105925D01*
X155258354Y-74013771D01*
X158772129Y-70499997D01*
X159064196Y-70620975D01*
X160168322Y-70840600D01*
X161294078Y-70840600D01*
X162398204Y-70620975D01*
X163438267Y-70190167D01*
X164374300Y-69564730D01*
X165170330Y-68768700D01*
X165795767Y-67832667D01*
X166226575Y-66792604D01*
X166446200Y-65688478D01*
X166446200Y-64562722D01*
X166226575Y-63458596D01*
X165795767Y-62418533D01*
X165170330Y-61482500D01*
X164374300Y-60686470D01*
X163438267Y-60061033D01*
X162398204Y-59630225D01*
X161294078Y-59410600D01*
X160168322Y-59410600D01*
X159064196Y-59630225D01*
X158024133Y-60061033D01*
X157088100Y-60686470D01*
X156292070Y-61482500D01*
X155666633Y-62418533D01*
X155235825Y-63458596D01*
X155016200Y-64562722D01*
X155016200Y-65688478D01*
X155235825Y-66792604D01*
X155356803Y-67084671D01*
X152466475Y-69975000D01*
X144655000Y-69975000D01*
X144655000Y-46871360D01*
X144645975Y-46779721D01*
X146465000Y-46779721D01*
X146465000Y-47200279D01*
X146547047Y-47612756D01*
X146707988Y-48001302D01*
X146941637Y-48350983D01*
X147239017Y-48648363D01*
X147588698Y-48882012D01*
X147977244Y-49042953D01*
X148389721Y-49125000D01*
X148810279Y-49125000D01*
X149222756Y-49042953D01*
X149611302Y-48882012D01*
X149960983Y-48648363D01*
X150258363Y-48350983D01*
X150492012Y-48001302D01*
X150652953Y-47612756D01*
X150735000Y-47200279D01*
X150735000Y-46779721D01*
X150652953Y-46367244D01*
X150492012Y-45978698D01*
X150258363Y-45629017D01*
X149960983Y-45331637D01*
X149611302Y-45097988D01*
X149222756Y-44937047D01*
X148810279Y-44855000D01*
X148389721Y-44855000D01*
X147977244Y-44937047D01*
X147588698Y-45097988D01*
X147239017Y-45331637D01*
X146941637Y-45629017D01*
X146707988Y-45978698D01*
X146547047Y-46367244D01*
X146465000Y-46779721D01*
X144645975Y-46779721D01*
X144620057Y-46516577D01*
X144481965Y-46061348D01*
X144257715Y-45641806D01*
X143955925Y-45274075D01*
X143588193Y-44972285D01*
X143168651Y-44748035D01*
X142713422Y-44609943D01*
X142240000Y-44563315D01*
X141766577Y-44609943D01*
X141311348Y-44748035D01*
X140891806Y-44972285D01*
X140524075Y-45274075D01*
X140222285Y-45641807D01*
X139998035Y-46061349D01*
X139859943Y-46516578D01*
X139825000Y-46871361D01*
X139825001Y-71001358D01*
X139813316Y-71120000D01*
X112540327Y-71120000D01*
X112561302Y-70852375D01*
X112511733Y-70434748D01*
X112381642Y-70034817D01*
X112223613Y-69739163D01*
X111908052Y-69583153D01*
X110596005Y-70895200D01*
X110236795Y-70895200D01*
X108924748Y-69583153D01*
X108609187Y-69739163D01*
X108418381Y-70113946D01*
X108304357Y-70518752D01*
X108271498Y-70938025D01*
X82551400Y-70938025D01*
X82551400Y-70684921D01*
X82469353Y-70272444D01*
X82308412Y-69883898D01*
X82074763Y-69534217D01*
X81944094Y-69403548D01*
X109104353Y-69403548D01*
X110416400Y-70715595D01*
X111728447Y-69403548D01*
X111572437Y-69087987D01*
X111197654Y-68897181D01*
X110792848Y-68783157D01*
X110373575Y-68750298D01*
X109955948Y-68799867D01*
X109556017Y-68929958D01*
X109260363Y-69087987D01*
X109104353Y-69403548D01*
X81944094Y-69403548D01*
X81777383Y-69236837D01*
X81427702Y-69003188D01*
X81039156Y-68842247D01*
X80626679Y-68760200D01*
X80206121Y-68760200D01*
X79793644Y-68842247D01*
X79405098Y-69003188D01*
X79055417Y-69236837D01*
X78758037Y-69534217D01*
X78524388Y-69883898D01*
X78363447Y-70272444D01*
X78281400Y-70684921D01*
X57656000Y-70684921D01*
X57656000Y-69125323D01*
X57659676Y-69088000D01*
X57656000Y-69050677D01*
X57656000Y-69050667D01*
X57645003Y-68939014D01*
X57601546Y-68795753D01*
X57582542Y-68760200D01*
X57530974Y-68663723D01*
X57459799Y-68576997D01*
X57436001Y-68547999D01*
X57407003Y-68524201D01*
X54567723Y-65684921D01*
X78281400Y-65684921D01*
X78281400Y-66105479D01*
X78363447Y-66517956D01*
X78524388Y-66906502D01*
X78758037Y-67256183D01*
X79055417Y-67553563D01*
X79405098Y-67787212D01*
X79793644Y-67948153D01*
X80206121Y-68030200D01*
X80626679Y-68030200D01*
X81039156Y-67948153D01*
X81427702Y-67787212D01*
X81777383Y-67553563D01*
X82074763Y-67256183D01*
X82308412Y-66906502D01*
X82469353Y-66517956D01*
X82551400Y-66105479D01*
X82551400Y-65684921D01*
X108281400Y-65684921D01*
X108281400Y-66105479D01*
X108363447Y-66517956D01*
X108524388Y-66906502D01*
X108758037Y-67256183D01*
X109055417Y-67553563D01*
X109405098Y-67787212D01*
X109793644Y-67948153D01*
X110206121Y-68030200D01*
X110626679Y-68030200D01*
X111039156Y-67948153D01*
X111427702Y-67787212D01*
X111777383Y-67553563D01*
X112074763Y-67256183D01*
X112308412Y-66906502D01*
X112469353Y-66517956D01*
X112551400Y-66105479D01*
X112551400Y-65684921D01*
X112469353Y-65272444D01*
X112308412Y-64883898D01*
X112074763Y-64534217D01*
X111777383Y-64236837D01*
X111427702Y-64003188D01*
X111039156Y-63842247D01*
X110626679Y-63760200D01*
X110206121Y-63760200D01*
X109793644Y-63842247D01*
X109405098Y-64003188D01*
X109055417Y-64236837D01*
X108758037Y-64534217D01*
X108524388Y-64883898D01*
X108363447Y-65272444D01*
X108281400Y-65684921D01*
X82551400Y-65684921D01*
X82469353Y-65272444D01*
X82308412Y-64883898D01*
X82074763Y-64534217D01*
X81777383Y-64236837D01*
X81427702Y-64003188D01*
X81039156Y-63842247D01*
X80626679Y-63760200D01*
X80206121Y-63760200D01*
X79793644Y-63842247D01*
X79405098Y-64003188D01*
X79055417Y-64236837D01*
X78758037Y-64534217D01*
X78524388Y-64883898D01*
X78363447Y-65272444D01*
X78281400Y-65684921D01*
X54567723Y-65684921D01*
X49567723Y-60684921D01*
X78281401Y-60684921D01*
X78281401Y-61105479D01*
X78363448Y-61517956D01*
X78524389Y-61906501D01*
X78758038Y-62256182D01*
X79055418Y-62553562D01*
X79405099Y-62787211D01*
X79793644Y-62948152D01*
X80206121Y-63030199D01*
X80626679Y-63030199D01*
X81039156Y-62948152D01*
X81427701Y-62787211D01*
X81777382Y-62553562D01*
X82074762Y-62256182D01*
X82308411Y-61906501D01*
X82469352Y-61517956D01*
X82551399Y-61105479D01*
X82551399Y-60684921D01*
X108281400Y-60684921D01*
X108281400Y-61105479D01*
X108363447Y-61517956D01*
X108524388Y-61906502D01*
X108758037Y-62256183D01*
X109055417Y-62553563D01*
X109405098Y-62787212D01*
X109793644Y-62948153D01*
X110206121Y-63030200D01*
X110626679Y-63030200D01*
X111039156Y-62948153D01*
X111427702Y-62787212D01*
X111777383Y-62553563D01*
X112074763Y-62256183D01*
X112308412Y-61906502D01*
X112469353Y-61517956D01*
X112551400Y-61105479D01*
X112551400Y-60684921D01*
X112469353Y-60272444D01*
X112308412Y-59883898D01*
X112074763Y-59534217D01*
X111777383Y-59236837D01*
X111427702Y-59003188D01*
X111039156Y-58842247D01*
X110626679Y-58760200D01*
X110206121Y-58760200D01*
X109793644Y-58842247D01*
X109405098Y-59003188D01*
X109055417Y-59236837D01*
X108758037Y-59534217D01*
X108524388Y-59883898D01*
X108363447Y-60272444D01*
X108281400Y-60684921D01*
X82551399Y-60684921D01*
X82469352Y-60272444D01*
X82308411Y-59883899D01*
X82074762Y-59534218D01*
X81777382Y-59236838D01*
X81427701Y-59003189D01*
X81039156Y-58842248D01*
X80626679Y-58760201D01*
X80206121Y-58760201D01*
X79793644Y-58842248D01*
X79405099Y-59003189D01*
X79055418Y-59236838D01*
X78758038Y-59534218D01*
X78524389Y-59883899D01*
X78363448Y-60272444D01*
X78281401Y-60684921D01*
X49567723Y-60684921D01*
X46428423Y-57545622D01*
X48426954Y-55684921D01*
X78281401Y-55684921D01*
X78281401Y-56105479D01*
X78363448Y-56517956D01*
X78524389Y-56906501D01*
X78758038Y-57256182D01*
X79055418Y-57553562D01*
X79405099Y-57787211D01*
X79793644Y-57948152D01*
X80206121Y-58030199D01*
X80626679Y-58030199D01*
X81039156Y-57948152D01*
X81427701Y-57787211D01*
X81777382Y-57553562D01*
X82074762Y-57256182D01*
X82308411Y-56906501D01*
X82469352Y-56517956D01*
X82551399Y-56105479D01*
X82551399Y-55684921D01*
X108281400Y-55684921D01*
X108281400Y-56105479D01*
X108363447Y-56517956D01*
X108524388Y-56906502D01*
X108758037Y-57256183D01*
X109055417Y-57553563D01*
X109405098Y-57787212D01*
X109793644Y-57948153D01*
X110206121Y-58030200D01*
X110626679Y-58030200D01*
X111039156Y-57948153D01*
X111427702Y-57787212D01*
X111777383Y-57553563D01*
X112074763Y-57256183D01*
X112308412Y-56906502D01*
X112469353Y-56517956D01*
X112551400Y-56105479D01*
X112551400Y-55684921D01*
X112469353Y-55272444D01*
X112308412Y-54883898D01*
X112074763Y-54534217D01*
X111777383Y-54236837D01*
X111427702Y-54003188D01*
X111039156Y-53842247D01*
X110626679Y-53760200D01*
X110206121Y-53760200D01*
X109793644Y-53842247D01*
X109405098Y-54003188D01*
X109055417Y-54236837D01*
X108758037Y-54534217D01*
X108524388Y-54883898D01*
X108363447Y-55272444D01*
X108281400Y-55684921D01*
X82551399Y-55684921D01*
X82469352Y-55272444D01*
X82308411Y-54883899D01*
X82074762Y-54534218D01*
X81777382Y-54236838D01*
X81427701Y-54003189D01*
X81039156Y-53842248D01*
X80626679Y-53760201D01*
X80206121Y-53760201D01*
X79793644Y-53842248D01*
X79405099Y-54003189D01*
X79055418Y-54236838D01*
X78758038Y-54534218D01*
X78524389Y-54883899D01*
X78363448Y-55272444D01*
X78281401Y-55684921D01*
X48426954Y-55684921D01*
X49492305Y-54693043D01*
X49544410Y-54646626D01*
X49558057Y-54631826D01*
X49572790Y-54618109D01*
X49618954Y-54565784D01*
X53197471Y-50684921D01*
X78281400Y-50684921D01*
X78281400Y-51105479D01*
X78363447Y-51517956D01*
X78524388Y-51906502D01*
X78758037Y-52256183D01*
X79055417Y-52553563D01*
X79405098Y-52787212D01*
X79793644Y-52948153D01*
X80206121Y-53030200D01*
X80626679Y-53030200D01*
X81039156Y-52948153D01*
X81427702Y-52787212D01*
X81777383Y-52553563D01*
X82074763Y-52256183D01*
X82308412Y-51906502D01*
X82469353Y-51517956D01*
X82551400Y-51105479D01*
X82551400Y-50895200D01*
X107989715Y-50895200D01*
X108036343Y-51368623D01*
X108174435Y-51823852D01*
X108398685Y-52243394D01*
X108700475Y-52611125D01*
X109068206Y-52912915D01*
X109487748Y-53137165D01*
X109942977Y-53275257D01*
X110297760Y-53310200D01*
X133136168Y-53310200D01*
X133254800Y-53321884D01*
X133373432Y-53310200D01*
X133373440Y-53310200D01*
X133728223Y-53275257D01*
X134183452Y-53137165D01*
X134602994Y-52912915D01*
X134970725Y-52611125D01*
X135046354Y-52518971D01*
X138951554Y-48613772D01*
X139177715Y-48338194D01*
X139401964Y-47918653D01*
X139540057Y-47463423D01*
X139586684Y-46990000D01*
X139540057Y-46516578D01*
X139401964Y-46061348D01*
X139177715Y-45641807D01*
X138875925Y-45274075D01*
X138508193Y-44972285D01*
X138088652Y-44748036D01*
X137633422Y-44609943D01*
X137160000Y-44563316D01*
X136686577Y-44609943D01*
X136231347Y-44748036D01*
X135811806Y-44972285D01*
X135536228Y-45198446D01*
X132608726Y-48125949D01*
X132692012Y-48001302D01*
X132852953Y-47612756D01*
X132935000Y-47200279D01*
X132935000Y-46779721D01*
X132852953Y-46367244D01*
X132692012Y-45978698D01*
X132458363Y-45629017D01*
X132160983Y-45331637D01*
X131811302Y-45097988D01*
X131422756Y-44937047D01*
X131010279Y-44855000D01*
X130589721Y-44855000D01*
X130177244Y-44937047D01*
X129788698Y-45097988D01*
X129439017Y-45331637D01*
X129141637Y-45629017D01*
X128907988Y-45978698D01*
X128747047Y-46367244D01*
X128665000Y-46779721D01*
X128665000Y-47200279D01*
X128747047Y-47612756D01*
X128907988Y-48001302D01*
X129141637Y-48350983D01*
X129270854Y-48480200D01*
X110297760Y-48480200D01*
X109942977Y-48515143D01*
X109487748Y-48653235D01*
X109068206Y-48877485D01*
X108700475Y-49179275D01*
X108398685Y-49547006D01*
X108174435Y-49966548D01*
X108036343Y-50421777D01*
X107989715Y-50895200D01*
X82551400Y-50895200D01*
X82551400Y-50684921D01*
X82469353Y-50272444D01*
X82308412Y-49883898D01*
X82074763Y-49534217D01*
X81777383Y-49236837D01*
X81427702Y-49003188D01*
X81039156Y-48842247D01*
X80626679Y-48760200D01*
X80206121Y-48760200D01*
X79793644Y-48842247D01*
X79405098Y-49003188D01*
X79055417Y-49236837D01*
X78758037Y-49534217D01*
X78524388Y-49883898D01*
X78363447Y-50272444D01*
X78281400Y-50684921D01*
X53197471Y-50684921D01*
X55926610Y-47725200D01*
X79312293Y-47725200D01*
X79405099Y-47787211D01*
X79793644Y-47948152D01*
X80206121Y-48030199D01*
X80626679Y-48030199D01*
X81039156Y-47948152D01*
X81427701Y-47787211D01*
X81777382Y-47553562D01*
X82074762Y-47256182D01*
X82308411Y-46906501D01*
X82469352Y-46517956D01*
X82551399Y-46105479D01*
X82551399Y-45684921D01*
X108281401Y-45684921D01*
X108281401Y-46105479D01*
X108363448Y-46517956D01*
X108524389Y-46906501D01*
X108758038Y-47256182D01*
X109055418Y-47553562D01*
X109405099Y-47787211D01*
X109793644Y-47948152D01*
X110206121Y-48030199D01*
X110626679Y-48030199D01*
X111039156Y-47948152D01*
X111427701Y-47787211D01*
X111777382Y-47553562D01*
X112074762Y-47256182D01*
X112308411Y-46906501D01*
X112469352Y-46517956D01*
X112551399Y-46105479D01*
X112551399Y-45684921D01*
X112469352Y-45272444D01*
X112308411Y-44883899D01*
X112074762Y-44534218D01*
X111777382Y-44236838D01*
X111427701Y-44003189D01*
X111039156Y-43842248D01*
X110626679Y-43760201D01*
X110206121Y-43760201D01*
X109793644Y-43842248D01*
X109405099Y-44003189D01*
X109055418Y-44236838D01*
X108758038Y-44534218D01*
X108524389Y-44883899D01*
X108363448Y-45272444D01*
X108281401Y-45684921D01*
X82551399Y-45684921D01*
X82469352Y-45272444D01*
X82308411Y-44883899D01*
X82074762Y-44534218D01*
X81777382Y-44236838D01*
X81427701Y-44003189D01*
X81039156Y-43842248D01*
X80626679Y-43760201D01*
X80206121Y-43760201D01*
X79793644Y-43842248D01*
X79405099Y-44003189D01*
X79312293Y-44065200D01*
X55177546Y-44065200D01*
X55050328Y-44057856D01*
X54908562Y-44077644D01*
X54766057Y-44091679D01*
X54730304Y-44102525D01*
X54693311Y-44107688D01*
X54558121Y-44154756D01*
X54421101Y-44196320D01*
X54388152Y-44213932D01*
X54352874Y-44226214D01*
X54229453Y-44298758D01*
X54103187Y-44366249D01*
X54074309Y-44389949D01*
X54042104Y-44408878D01*
X53935206Y-44504108D01*
X53824534Y-44594934D01*
X53743679Y-44693456D01*
X46961953Y-52048164D01*
X43334987Y-55424995D01*
X39440134Y-58997338D01*
X39339735Y-59079734D01*
X39250453Y-59188524D01*
X39156556Y-59293365D01*
X39136297Y-59327623D01*
X39111050Y-59358387D01*
X39044707Y-59482507D01*
X38973068Y-59603650D01*
X38959883Y-59641201D01*
X38941121Y-59676301D01*
X38900266Y-59810983D01*
X38853639Y-59943771D01*
X38848033Y-59983173D01*
X38836480Y-60021257D01*
X38822686Y-60161307D01*
X38802859Y-60300654D01*
X36029891Y-60300654D01*
X36032911Y-60270000D01*
X36001343Y-59949484D01*
X35907852Y-59641285D01*
X35756031Y-59357248D01*
X35551714Y-59108286D01*
X35302752Y-58903969D01*
X35018715Y-58752148D01*
X34710516Y-58658657D01*
X34470322Y-58635000D01*
X32809678Y-58635000D01*
X32569484Y-58658657D01*
X32261285Y-58752148D01*
X31977248Y-58903969D01*
X31728286Y-59108286D01*
X31523969Y-59357248D01*
X31372148Y-59641285D01*
X31278657Y-59949484D01*
X31247089Y-60270000D01*
X26060000Y-60270000D01*
X26060000Y-26060000D01*
X177140000Y-26060000D01*
X177140001Y-139040000D01*
M02*
