G04 #@! TF.GenerationSoftware,KiCad,Pcbnew,(5.1.5)-3*
G04 #@! TF.CreationDate,2020-06-24T22:18:20+03:00*
G04 #@! TF.ProjectId,Hardwareproject,48617264-7761-4726-9570-726f6a656374,rev?*
G04 #@! TF.SameCoordinates,Original*
G04 #@! TF.FileFunction,Soldermask,Top*
G04 #@! TF.FilePolarity,Negative*
%FSLAX46Y46*%
G04 Gerber Fmt 4.6, Leading zero omitted, Abs format (unit mm)*
G04 Created by KiCad (PCBNEW (5.1.5)-3) date 2020-06-24 22:18:20*
%MOMM*%
%LPD*%
G04 APERTURE LIST*
%ADD10C,0.100000*%
G04 APERTURE END LIST*
D10*
G36*
X56452798Y-123793247D02*
G01*
X56488367Y-123804037D01*
X56521139Y-123821554D01*
X56549869Y-123845131D01*
X56573446Y-123873861D01*
X56590963Y-123906633D01*
X56601753Y-123942202D01*
X56606000Y-123985325D01*
X56606000Y-125094675D01*
X56601753Y-125137798D01*
X56590963Y-125173367D01*
X56573446Y-125206139D01*
X56549869Y-125234869D01*
X56521139Y-125258446D01*
X56488367Y-125275963D01*
X56452798Y-125286753D01*
X56409675Y-125291000D01*
X55350325Y-125291000D01*
X55307202Y-125286753D01*
X55271633Y-125275963D01*
X55238861Y-125258446D01*
X55210131Y-125234869D01*
X55186554Y-125206139D01*
X55169037Y-125173367D01*
X55158247Y-125137798D01*
X55154000Y-125094675D01*
X55154000Y-123985325D01*
X55158247Y-123942202D01*
X55169037Y-123906633D01*
X55186554Y-123873861D01*
X55210131Y-123845131D01*
X55238861Y-123821554D01*
X55271633Y-123804037D01*
X55307202Y-123793247D01*
X55350325Y-123789000D01*
X56409675Y-123789000D01*
X56452798Y-123793247D01*
G37*
G36*
X108042059Y-122340860D02*
G01*
X108171980Y-122394675D01*
X108178732Y-122397472D01*
X108301735Y-122479660D01*
X108406340Y-122584265D01*
X108488528Y-122707268D01*
X108545140Y-122843941D01*
X108574000Y-122989033D01*
X108574000Y-123136967D01*
X108545140Y-123282059D01*
X108488528Y-123418732D01*
X108406340Y-123541735D01*
X108301735Y-123646340D01*
X108178732Y-123728528D01*
X108178731Y-123728529D01*
X108178730Y-123728529D01*
X108042059Y-123785140D01*
X107896968Y-123814000D01*
X107749032Y-123814000D01*
X107603941Y-123785140D01*
X107467270Y-123728529D01*
X107467269Y-123728529D01*
X107467268Y-123728528D01*
X107344265Y-123646340D01*
X107239660Y-123541735D01*
X107157472Y-123418732D01*
X107100860Y-123282059D01*
X107072000Y-123136967D01*
X107072000Y-122989033D01*
X107100860Y-122843941D01*
X107157472Y-122707268D01*
X107239660Y-122584265D01*
X107344265Y-122479660D01*
X107467268Y-122397472D01*
X107474021Y-122394675D01*
X107603941Y-122340860D01*
X107749032Y-122312000D01*
X107896968Y-122312000D01*
X108042059Y-122340860D01*
G37*
G36*
X56452798Y-121093247D02*
G01*
X56488367Y-121104037D01*
X56521139Y-121121554D01*
X56549869Y-121145131D01*
X56573446Y-121173861D01*
X56590963Y-121206633D01*
X56601753Y-121242202D01*
X56606000Y-121285325D01*
X56606000Y-122394675D01*
X56601753Y-122437798D01*
X56590963Y-122473367D01*
X56573446Y-122506139D01*
X56549869Y-122534869D01*
X56521139Y-122558446D01*
X56488367Y-122575963D01*
X56452798Y-122586753D01*
X56409675Y-122591000D01*
X55350325Y-122591000D01*
X55307202Y-122586753D01*
X55271633Y-122575963D01*
X55238861Y-122558446D01*
X55210131Y-122534869D01*
X55186554Y-122506139D01*
X55169037Y-122473367D01*
X55158247Y-122437798D01*
X55154000Y-122394675D01*
X55154000Y-121285325D01*
X55158247Y-121242202D01*
X55169037Y-121206633D01*
X55186554Y-121173861D01*
X55210131Y-121145131D01*
X55238861Y-121121554D01*
X55271633Y-121104037D01*
X55307202Y-121093247D01*
X55350325Y-121089000D01*
X56409675Y-121089000D01*
X56452798Y-121093247D01*
G37*
G36*
X56052143Y-118648528D02*
G01*
X56099059Y-118657860D01*
X56235732Y-118714472D01*
X56358735Y-118796660D01*
X56463340Y-118901265D01*
X56545528Y-119024268D01*
X56602140Y-119160941D01*
X56631000Y-119306033D01*
X56631000Y-119453967D01*
X56602140Y-119599059D01*
X56545528Y-119735732D01*
X56463340Y-119858735D01*
X56358735Y-119963340D01*
X56235732Y-120045528D01*
X56235731Y-120045529D01*
X56235730Y-120045529D01*
X56099059Y-120102140D01*
X55953968Y-120131000D01*
X55806032Y-120131000D01*
X55660941Y-120102140D01*
X55524270Y-120045529D01*
X55524269Y-120045529D01*
X55524268Y-120045528D01*
X55401265Y-119963340D01*
X55296660Y-119858735D01*
X55214472Y-119735732D01*
X55157860Y-119599059D01*
X55129000Y-119453967D01*
X55129000Y-119306033D01*
X55157860Y-119160941D01*
X55214472Y-119024268D01*
X55296660Y-118901265D01*
X55401265Y-118796660D01*
X55524268Y-118714472D01*
X55660941Y-118657860D01*
X55707857Y-118648528D01*
X55806032Y-118629000D01*
X55953968Y-118629000D01*
X56052143Y-118648528D01*
G37*
G36*
X98594798Y-117769247D02*
G01*
X98630367Y-117780037D01*
X98663139Y-117797554D01*
X98691869Y-117821131D01*
X98715446Y-117849861D01*
X98732963Y-117882633D01*
X98743753Y-117918202D01*
X98748000Y-117961325D01*
X98748000Y-119020675D01*
X98743753Y-119063798D01*
X98732963Y-119099367D01*
X98715446Y-119132139D01*
X98691869Y-119160869D01*
X98663139Y-119184446D01*
X98630367Y-119201963D01*
X98594798Y-119212753D01*
X98551675Y-119217000D01*
X97442325Y-119217000D01*
X97399202Y-119212753D01*
X97363633Y-119201963D01*
X97330861Y-119184446D01*
X97302131Y-119160869D01*
X97278554Y-119132139D01*
X97261037Y-119099367D01*
X97250247Y-119063798D01*
X97246000Y-119020675D01*
X97246000Y-117961325D01*
X97250247Y-117918202D01*
X97261037Y-117882633D01*
X97278554Y-117849861D01*
X97302131Y-117821131D01*
X97330861Y-117797554D01*
X97363633Y-117780037D01*
X97399202Y-117769247D01*
X97442325Y-117765000D01*
X98551675Y-117765000D01*
X98594798Y-117769247D01*
G37*
G36*
X95894798Y-117769247D02*
G01*
X95930367Y-117780037D01*
X95963139Y-117797554D01*
X95991869Y-117821131D01*
X96015446Y-117849861D01*
X96032963Y-117882633D01*
X96043753Y-117918202D01*
X96048000Y-117961325D01*
X96048000Y-119020675D01*
X96043753Y-119063798D01*
X96032963Y-119099367D01*
X96015446Y-119132139D01*
X95991869Y-119160869D01*
X95963139Y-119184446D01*
X95930367Y-119201963D01*
X95894798Y-119212753D01*
X95851675Y-119217000D01*
X94742325Y-119217000D01*
X94699202Y-119212753D01*
X94663633Y-119201963D01*
X94630861Y-119184446D01*
X94602131Y-119160869D01*
X94578554Y-119132139D01*
X94561037Y-119099367D01*
X94550247Y-119063798D01*
X94546000Y-119020675D01*
X94546000Y-117961325D01*
X94550247Y-117918202D01*
X94561037Y-117882633D01*
X94578554Y-117849861D01*
X94602131Y-117821131D01*
X94630861Y-117797554D01*
X94663633Y-117780037D01*
X94699202Y-117769247D01*
X94742325Y-117765000D01*
X95851675Y-117765000D01*
X95894798Y-117769247D01*
G37*
G36*
X108042059Y-117260860D02*
G01*
X108178732Y-117317472D01*
X108301735Y-117399660D01*
X108406340Y-117504265D01*
X108488528Y-117627268D01*
X108545140Y-117763941D01*
X108574000Y-117909033D01*
X108574000Y-118056967D01*
X108545140Y-118202059D01*
X108488528Y-118338732D01*
X108406340Y-118461735D01*
X108301735Y-118566340D01*
X108178732Y-118648528D01*
X108178731Y-118648529D01*
X108178730Y-118648529D01*
X108042059Y-118705140D01*
X107896968Y-118734000D01*
X107749032Y-118734000D01*
X107603941Y-118705140D01*
X107467270Y-118648529D01*
X107467269Y-118648529D01*
X107467268Y-118648528D01*
X107344265Y-118566340D01*
X107239660Y-118461735D01*
X107157472Y-118338732D01*
X107100860Y-118202059D01*
X107072000Y-118056967D01*
X107072000Y-117909033D01*
X107100860Y-117763941D01*
X107157472Y-117627268D01*
X107239660Y-117504265D01*
X107344265Y-117399660D01*
X107467268Y-117317472D01*
X107603941Y-117260860D01*
X107749032Y-117232000D01*
X107896968Y-117232000D01*
X108042059Y-117260860D01*
G37*
G36*
X73962585Y-114058802D02*
G01*
X74112410Y-114088604D01*
X74394674Y-114205521D01*
X74648705Y-114375259D01*
X74864741Y-114591295D01*
X75034479Y-114845326D01*
X75151396Y-115127590D01*
X75211000Y-115427240D01*
X75211000Y-115732760D01*
X75151396Y-116032410D01*
X75034479Y-116314674D01*
X74864741Y-116568705D01*
X74648705Y-116784741D01*
X74394674Y-116954479D01*
X74112410Y-117071396D01*
X73962585Y-117101198D01*
X73812761Y-117131000D01*
X73507239Y-117131000D01*
X73357415Y-117101198D01*
X73207590Y-117071396D01*
X72925326Y-116954479D01*
X72671295Y-116784741D01*
X72455259Y-116568705D01*
X72285521Y-116314674D01*
X72168604Y-116032410D01*
X72109000Y-115732760D01*
X72109000Y-115427240D01*
X72168604Y-115127590D01*
X72285521Y-114845326D01*
X72455259Y-114591295D01*
X72671295Y-114375259D01*
X72925326Y-114205521D01*
X73207590Y-114088604D01*
X73357415Y-114058802D01*
X73507239Y-114029000D01*
X73812761Y-114029000D01*
X73962585Y-114058802D01*
G37*
G36*
X56099059Y-113577860D02*
G01*
X56199143Y-113619316D01*
X56235732Y-113634472D01*
X56358735Y-113716660D01*
X56463340Y-113821265D01*
X56545528Y-113944268D01*
X56602140Y-114080941D01*
X56631000Y-114226033D01*
X56631000Y-114373967D01*
X56602140Y-114519059D01*
X56545528Y-114655732D01*
X56463340Y-114778735D01*
X56358735Y-114883340D01*
X56235732Y-114965528D01*
X56235731Y-114965529D01*
X56235730Y-114965529D01*
X56099059Y-115022140D01*
X55953968Y-115051000D01*
X55806032Y-115051000D01*
X55660941Y-115022140D01*
X55524270Y-114965529D01*
X55524269Y-114965529D01*
X55524268Y-114965528D01*
X55401265Y-114883340D01*
X55296660Y-114778735D01*
X55214472Y-114655732D01*
X55157860Y-114519059D01*
X55129000Y-114373967D01*
X55129000Y-114226033D01*
X55157860Y-114080941D01*
X55214472Y-113944268D01*
X55296660Y-113821265D01*
X55401265Y-113716660D01*
X55524268Y-113634472D01*
X55560858Y-113619316D01*
X55660941Y-113577860D01*
X55806032Y-113549000D01*
X55953968Y-113549000D01*
X56099059Y-113577860D01*
G37*
G36*
X89373059Y-113577860D02*
G01*
X89473143Y-113619316D01*
X89509732Y-113634472D01*
X89632735Y-113716660D01*
X89737340Y-113821265D01*
X89819528Y-113944268D01*
X89876140Y-114080941D01*
X89905000Y-114226033D01*
X89905000Y-114373967D01*
X89876140Y-114519059D01*
X89819528Y-114655732D01*
X89737340Y-114778735D01*
X89632735Y-114883340D01*
X89509732Y-114965528D01*
X89509731Y-114965529D01*
X89509730Y-114965529D01*
X89373059Y-115022140D01*
X89227968Y-115051000D01*
X89080032Y-115051000D01*
X88934941Y-115022140D01*
X88798270Y-114965529D01*
X88798269Y-114965529D01*
X88798268Y-114965528D01*
X88675265Y-114883340D01*
X88570660Y-114778735D01*
X88488472Y-114655732D01*
X88431860Y-114519059D01*
X88403000Y-114373967D01*
X88403000Y-114226033D01*
X88431860Y-114080941D01*
X88488472Y-113944268D01*
X88570660Y-113821265D01*
X88675265Y-113716660D01*
X88798268Y-113634472D01*
X88834858Y-113619316D01*
X88934941Y-113577860D01*
X89080032Y-113549000D01*
X89227968Y-113549000D01*
X89373059Y-113577860D01*
G37*
G36*
X94453059Y-113577860D02*
G01*
X94553143Y-113619316D01*
X94589732Y-113634472D01*
X94712735Y-113716660D01*
X94817340Y-113821265D01*
X94899528Y-113944268D01*
X94956140Y-114080941D01*
X94985000Y-114226033D01*
X94985000Y-114373967D01*
X94956140Y-114519059D01*
X94899528Y-114655732D01*
X94817340Y-114778735D01*
X94712735Y-114883340D01*
X94589732Y-114965528D01*
X94589731Y-114965529D01*
X94589730Y-114965529D01*
X94453059Y-115022140D01*
X94307968Y-115051000D01*
X94160032Y-115051000D01*
X94014941Y-115022140D01*
X93878270Y-114965529D01*
X93878269Y-114965529D01*
X93878268Y-114965528D01*
X93755265Y-114883340D01*
X93650660Y-114778735D01*
X93568472Y-114655732D01*
X93511860Y-114519059D01*
X93483000Y-114373967D01*
X93483000Y-114226033D01*
X93511860Y-114080941D01*
X93568472Y-113944268D01*
X93650660Y-113821265D01*
X93755265Y-113716660D01*
X93878268Y-113634472D01*
X93914858Y-113619316D01*
X94014941Y-113577860D01*
X94160032Y-113549000D01*
X94307968Y-113549000D01*
X94453059Y-113577860D01*
G37*
G36*
X102150798Y-113578247D02*
G01*
X102186367Y-113589037D01*
X102219139Y-113606554D01*
X102247869Y-113630131D01*
X102271446Y-113658861D01*
X102288963Y-113691633D01*
X102299753Y-113727202D01*
X102304000Y-113770325D01*
X102304000Y-114829675D01*
X102299753Y-114872798D01*
X102288963Y-114908367D01*
X102271446Y-114941139D01*
X102247869Y-114969869D01*
X102219139Y-114993446D01*
X102186367Y-115010963D01*
X102150798Y-115021753D01*
X102107675Y-115026000D01*
X100998325Y-115026000D01*
X100955202Y-115021753D01*
X100919633Y-115010963D01*
X100886861Y-114993446D01*
X100858131Y-114969869D01*
X100834554Y-114941139D01*
X100817037Y-114908367D01*
X100806247Y-114872798D01*
X100802000Y-114829675D01*
X100802000Y-113770325D01*
X100806247Y-113727202D01*
X100817037Y-113691633D01*
X100834554Y-113658861D01*
X100858131Y-113630131D01*
X100886861Y-113606554D01*
X100919633Y-113589037D01*
X100955202Y-113578247D01*
X100998325Y-113574000D01*
X102107675Y-113574000D01*
X102150798Y-113578247D01*
G37*
G36*
X99450798Y-113578247D02*
G01*
X99486367Y-113589037D01*
X99519139Y-113606554D01*
X99547869Y-113630131D01*
X99571446Y-113658861D01*
X99588963Y-113691633D01*
X99599753Y-113727202D01*
X99604000Y-113770325D01*
X99604000Y-114829675D01*
X99599753Y-114872798D01*
X99588963Y-114908367D01*
X99571446Y-114941139D01*
X99547869Y-114969869D01*
X99519139Y-114993446D01*
X99486367Y-115010963D01*
X99450798Y-115021753D01*
X99407675Y-115026000D01*
X98298325Y-115026000D01*
X98255202Y-115021753D01*
X98219633Y-115010963D01*
X98186861Y-114993446D01*
X98158131Y-114969869D01*
X98134554Y-114941139D01*
X98117037Y-114908367D01*
X98106247Y-114872798D01*
X98102000Y-114829675D01*
X98102000Y-113770325D01*
X98106247Y-113727202D01*
X98117037Y-113691633D01*
X98134554Y-113658861D01*
X98158131Y-113630131D01*
X98186861Y-113606554D01*
X98219633Y-113589037D01*
X98255202Y-113578247D01*
X98298325Y-113574000D01*
X99407675Y-113574000D01*
X99450798Y-113578247D01*
G37*
G36*
X117948059Y-111672860D02*
G01*
X118084732Y-111729472D01*
X118207735Y-111811660D01*
X118312340Y-111916265D01*
X118312341Y-111916267D01*
X118394529Y-112039270D01*
X118451140Y-112175941D01*
X118480000Y-112321032D01*
X118480000Y-112468968D01*
X118451140Y-112614059D01*
X118395094Y-112749367D01*
X118394528Y-112750732D01*
X118312340Y-112873735D01*
X118207735Y-112978340D01*
X118084732Y-113060528D01*
X118084731Y-113060529D01*
X118084730Y-113060529D01*
X117948059Y-113117140D01*
X117802968Y-113146000D01*
X117655032Y-113146000D01*
X117509941Y-113117140D01*
X117373270Y-113060529D01*
X117373269Y-113060529D01*
X117373268Y-113060528D01*
X117250265Y-112978340D01*
X117145660Y-112873735D01*
X117063472Y-112750732D01*
X117062907Y-112749367D01*
X117006860Y-112614059D01*
X116978000Y-112468968D01*
X116978000Y-112321032D01*
X117006860Y-112175941D01*
X117063471Y-112039270D01*
X117145659Y-111916267D01*
X117145660Y-111916265D01*
X117250265Y-111811660D01*
X117373268Y-111729472D01*
X117509941Y-111672860D01*
X117655032Y-111644000D01*
X117802968Y-111644000D01*
X117948059Y-111672860D01*
G37*
G36*
X112868059Y-111672860D02*
G01*
X113004732Y-111729472D01*
X113127735Y-111811660D01*
X113232340Y-111916265D01*
X113232341Y-111916267D01*
X113314529Y-112039270D01*
X113371140Y-112175941D01*
X113400000Y-112321032D01*
X113400000Y-112468968D01*
X113371140Y-112614059D01*
X113315094Y-112749367D01*
X113314528Y-112750732D01*
X113232340Y-112873735D01*
X113127735Y-112978340D01*
X113004732Y-113060528D01*
X113004731Y-113060529D01*
X113004730Y-113060529D01*
X112868059Y-113117140D01*
X112722968Y-113146000D01*
X112575032Y-113146000D01*
X112429941Y-113117140D01*
X112293270Y-113060529D01*
X112293269Y-113060529D01*
X112293268Y-113060528D01*
X112170265Y-112978340D01*
X112065660Y-112873735D01*
X111983472Y-112750732D01*
X111982907Y-112749367D01*
X111926860Y-112614059D01*
X111898000Y-112468968D01*
X111898000Y-112321032D01*
X111926860Y-112175941D01*
X111983471Y-112039270D01*
X112065659Y-111916267D01*
X112065660Y-111916265D01*
X112170265Y-111811660D01*
X112293268Y-111729472D01*
X112429941Y-111672860D01*
X112575032Y-111644000D01*
X112722968Y-111644000D01*
X112868059Y-111672860D01*
G37*
G36*
X127423798Y-111419247D02*
G01*
X127459367Y-111430037D01*
X127492139Y-111447554D01*
X127520869Y-111471131D01*
X127544446Y-111499861D01*
X127561963Y-111532633D01*
X127572753Y-111568202D01*
X127577000Y-111611325D01*
X127577000Y-112670675D01*
X127572753Y-112713798D01*
X127561963Y-112749367D01*
X127544446Y-112782139D01*
X127520869Y-112810869D01*
X127492139Y-112834446D01*
X127459367Y-112851963D01*
X127423798Y-112862753D01*
X127380675Y-112867000D01*
X126271325Y-112867000D01*
X126228202Y-112862753D01*
X126192633Y-112851963D01*
X126159861Y-112834446D01*
X126131131Y-112810869D01*
X126107554Y-112782139D01*
X126090037Y-112749367D01*
X126079247Y-112713798D01*
X126075000Y-112670675D01*
X126075000Y-111611325D01*
X126079247Y-111568202D01*
X126090037Y-111532633D01*
X126107554Y-111499861D01*
X126131131Y-111471131D01*
X126159861Y-111447554D01*
X126192633Y-111430037D01*
X126228202Y-111419247D01*
X126271325Y-111415000D01*
X127380675Y-111415000D01*
X127423798Y-111419247D01*
G37*
G36*
X124723798Y-111419247D02*
G01*
X124759367Y-111430037D01*
X124792139Y-111447554D01*
X124820869Y-111471131D01*
X124844446Y-111499861D01*
X124861963Y-111532633D01*
X124872753Y-111568202D01*
X124877000Y-111611325D01*
X124877000Y-112670675D01*
X124872753Y-112713798D01*
X124861963Y-112749367D01*
X124844446Y-112782139D01*
X124820869Y-112810869D01*
X124792139Y-112834446D01*
X124759367Y-112851963D01*
X124723798Y-112862753D01*
X124680675Y-112867000D01*
X123571325Y-112867000D01*
X123528202Y-112862753D01*
X123492633Y-112851963D01*
X123459861Y-112834446D01*
X123431131Y-112810869D01*
X123407554Y-112782139D01*
X123390037Y-112749367D01*
X123379247Y-112713798D01*
X123375000Y-112670675D01*
X123375000Y-111611325D01*
X123379247Y-111568202D01*
X123390037Y-111532633D01*
X123407554Y-111499861D01*
X123431131Y-111471131D01*
X123459861Y-111447554D01*
X123492633Y-111430037D01*
X123528202Y-111419247D01*
X123571325Y-111415000D01*
X124680675Y-111415000D01*
X124723798Y-111419247D01*
G37*
G36*
X61557000Y-109817000D02*
G01*
X59855000Y-109817000D01*
X59855000Y-108115000D01*
X61557000Y-108115000D01*
X61557000Y-109817000D01*
G37*
G36*
X53334228Y-108147703D02*
G01*
X53489100Y-108211853D01*
X53628481Y-108304985D01*
X53747015Y-108423519D01*
X53840147Y-108562900D01*
X53904297Y-108717772D01*
X53937000Y-108882184D01*
X53937000Y-109049816D01*
X53904297Y-109214228D01*
X53840147Y-109369100D01*
X53747015Y-109508481D01*
X53628481Y-109627015D01*
X53489100Y-109720147D01*
X53334228Y-109784297D01*
X53169816Y-109817000D01*
X53002184Y-109817000D01*
X52837772Y-109784297D01*
X52682900Y-109720147D01*
X52543519Y-109627015D01*
X52424985Y-109508481D01*
X52331853Y-109369100D01*
X52267703Y-109214228D01*
X52235000Y-109049816D01*
X52235000Y-108882184D01*
X52267703Y-108717772D01*
X52331853Y-108562900D01*
X52424985Y-108423519D01*
X52543519Y-108304985D01*
X52682900Y-108211853D01*
X52837772Y-108147703D01*
X53002184Y-108115000D01*
X53169816Y-108115000D01*
X53334228Y-108147703D01*
G37*
G36*
X73805936Y-106951340D02*
G01*
X73904220Y-106961020D01*
X74093381Y-107018401D01*
X74267712Y-107111583D01*
X74420515Y-107236985D01*
X74545917Y-107389788D01*
X74639099Y-107564119D01*
X74696480Y-107753280D01*
X74715855Y-107950000D01*
X74696480Y-108146720D01*
X74639099Y-108335881D01*
X74545917Y-108510212D01*
X74420515Y-108663015D01*
X74267712Y-108788417D01*
X74093381Y-108881599D01*
X73904220Y-108938980D01*
X73805936Y-108948660D01*
X73756795Y-108953500D01*
X73563205Y-108953500D01*
X73514064Y-108948660D01*
X73415780Y-108938980D01*
X73226619Y-108881599D01*
X73052288Y-108788417D01*
X72899485Y-108663015D01*
X72774083Y-108510212D01*
X72680901Y-108335881D01*
X72623520Y-108146720D01*
X72604145Y-107950000D01*
X72623520Y-107753280D01*
X72680901Y-107564119D01*
X72774083Y-107389788D01*
X72899485Y-107236985D01*
X73052288Y-107111583D01*
X73226619Y-107018401D01*
X73415780Y-106961020D01*
X73514064Y-106951340D01*
X73563205Y-106946500D01*
X73756795Y-106946500D01*
X73805936Y-106951340D01*
G37*
G36*
X122139059Y-106973860D02*
G01*
X122275732Y-107030472D01*
X122398735Y-107112660D01*
X122503340Y-107217265D01*
X122585528Y-107340268D01*
X122585529Y-107340270D01*
X122642140Y-107476941D01*
X122659481Y-107564119D01*
X122671000Y-107622033D01*
X122671000Y-107769967D01*
X122642140Y-107915059D01*
X122585528Y-108051732D01*
X122503340Y-108174735D01*
X122398735Y-108279340D01*
X122275732Y-108361528D01*
X122275731Y-108361529D01*
X122275730Y-108361529D01*
X122139059Y-108418140D01*
X121993968Y-108447000D01*
X121846032Y-108447000D01*
X121700941Y-108418140D01*
X121564270Y-108361529D01*
X121564269Y-108361529D01*
X121564268Y-108361528D01*
X121441265Y-108279340D01*
X121336660Y-108174735D01*
X121254472Y-108051732D01*
X121197860Y-107915059D01*
X121169000Y-107769967D01*
X121169000Y-107622033D01*
X121180520Y-107564119D01*
X121197860Y-107476941D01*
X121254471Y-107340270D01*
X121254472Y-107340268D01*
X121336660Y-107217265D01*
X121441265Y-107112660D01*
X121564268Y-107030472D01*
X121700941Y-106973860D01*
X121846032Y-106945000D01*
X121993968Y-106945000D01*
X122139059Y-106973860D01*
G37*
G36*
X117059059Y-106973860D02*
G01*
X117195732Y-107030472D01*
X117318735Y-107112660D01*
X117423340Y-107217265D01*
X117505528Y-107340268D01*
X117505529Y-107340270D01*
X117562140Y-107476941D01*
X117579481Y-107564119D01*
X117591000Y-107622033D01*
X117591000Y-107769967D01*
X117562140Y-107915059D01*
X117505528Y-108051732D01*
X117423340Y-108174735D01*
X117318735Y-108279340D01*
X117195732Y-108361528D01*
X117195731Y-108361529D01*
X117195730Y-108361529D01*
X117059059Y-108418140D01*
X116913968Y-108447000D01*
X116766032Y-108447000D01*
X116620941Y-108418140D01*
X116484270Y-108361529D01*
X116484269Y-108361529D01*
X116484268Y-108361528D01*
X116361265Y-108279340D01*
X116256660Y-108174735D01*
X116174472Y-108051732D01*
X116117860Y-107915059D01*
X116089000Y-107769967D01*
X116089000Y-107622033D01*
X116100520Y-107564119D01*
X116117860Y-107476941D01*
X116174471Y-107340270D01*
X116174472Y-107340268D01*
X116256660Y-107217265D01*
X116361265Y-107112660D01*
X116484268Y-107030472D01*
X116620941Y-106973860D01*
X116766032Y-106945000D01*
X116913968Y-106945000D01*
X117059059Y-106973860D01*
G37*
G36*
X60954228Y-105607703D02*
G01*
X61109100Y-105671853D01*
X61248481Y-105764985D01*
X61367015Y-105883519D01*
X61460147Y-106022900D01*
X61524297Y-106177772D01*
X61557000Y-106342184D01*
X61557000Y-106509816D01*
X61524297Y-106674228D01*
X61460147Y-106829100D01*
X61367015Y-106968481D01*
X61248481Y-107087015D01*
X61109100Y-107180147D01*
X60954228Y-107244297D01*
X60789816Y-107277000D01*
X60622184Y-107277000D01*
X60457772Y-107244297D01*
X60302900Y-107180147D01*
X60163519Y-107087015D01*
X60044985Y-106968481D01*
X59951853Y-106829100D01*
X59887703Y-106674228D01*
X59855000Y-106509816D01*
X59855000Y-106342184D01*
X59887703Y-106177772D01*
X59951853Y-106022900D01*
X60044985Y-105883519D01*
X60163519Y-105764985D01*
X60302900Y-105671853D01*
X60457772Y-105607703D01*
X60622184Y-105575000D01*
X60789816Y-105575000D01*
X60954228Y-105607703D01*
G37*
G36*
X53334228Y-105607703D02*
G01*
X53489100Y-105671853D01*
X53628481Y-105764985D01*
X53747015Y-105883519D01*
X53840147Y-106022900D01*
X53904297Y-106177772D01*
X53937000Y-106342184D01*
X53937000Y-106509816D01*
X53904297Y-106674228D01*
X53840147Y-106829100D01*
X53747015Y-106968481D01*
X53628481Y-107087015D01*
X53489100Y-107180147D01*
X53334228Y-107244297D01*
X53169816Y-107277000D01*
X53002184Y-107277000D01*
X52837772Y-107244297D01*
X52682900Y-107180147D01*
X52543519Y-107087015D01*
X52424985Y-106968481D01*
X52331853Y-106829100D01*
X52267703Y-106674228D01*
X52235000Y-106509816D01*
X52235000Y-106342184D01*
X52267703Y-106177772D01*
X52331853Y-106022900D01*
X52424985Y-105883519D01*
X52543519Y-105764985D01*
X52682900Y-105671853D01*
X52837772Y-105607703D01*
X53002184Y-105575000D01*
X53169816Y-105575000D01*
X53334228Y-105607703D01*
G37*
G36*
X73805936Y-104411340D02*
G01*
X73904220Y-104421020D01*
X74093381Y-104478401D01*
X74267712Y-104571583D01*
X74420515Y-104696985D01*
X74545917Y-104849788D01*
X74639099Y-105024119D01*
X74696480Y-105213280D01*
X74715855Y-105410000D01*
X74696480Y-105606720D01*
X74639099Y-105795881D01*
X74545917Y-105970212D01*
X74420515Y-106123015D01*
X74267712Y-106248417D01*
X74093381Y-106341599D01*
X73904220Y-106398980D01*
X73805936Y-106408660D01*
X73756795Y-106413500D01*
X73563205Y-106413500D01*
X73514064Y-106408660D01*
X73415780Y-106398980D01*
X73226619Y-106341599D01*
X73052288Y-106248417D01*
X72899485Y-106123015D01*
X72774083Y-105970212D01*
X72680901Y-105795881D01*
X72623520Y-105606720D01*
X72604145Y-105410000D01*
X72623520Y-105213280D01*
X72680901Y-105024119D01*
X72774083Y-104849788D01*
X72899485Y-104696985D01*
X73052288Y-104571583D01*
X73226619Y-104478401D01*
X73415780Y-104421020D01*
X73514064Y-104411340D01*
X73563205Y-104406500D01*
X73756795Y-104406500D01*
X73805936Y-104411340D01*
G37*
G36*
X60954228Y-103067703D02*
G01*
X61109100Y-103131853D01*
X61248481Y-103224985D01*
X61367015Y-103343519D01*
X61460147Y-103482900D01*
X61524297Y-103637772D01*
X61557000Y-103802184D01*
X61557000Y-103969816D01*
X61524297Y-104134228D01*
X61460147Y-104289100D01*
X61367015Y-104428481D01*
X61248481Y-104547015D01*
X61109100Y-104640147D01*
X60954228Y-104704297D01*
X60789816Y-104737000D01*
X60622184Y-104737000D01*
X60457772Y-104704297D01*
X60302900Y-104640147D01*
X60163519Y-104547015D01*
X60044985Y-104428481D01*
X59951853Y-104289100D01*
X59887703Y-104134228D01*
X59855000Y-103969816D01*
X59855000Y-103802184D01*
X59887703Y-103637772D01*
X59951853Y-103482900D01*
X60044985Y-103343519D01*
X60163519Y-103224985D01*
X60302900Y-103131853D01*
X60457772Y-103067703D01*
X60622184Y-103035000D01*
X60789816Y-103035000D01*
X60954228Y-103067703D01*
G37*
G36*
X53334228Y-103067703D02*
G01*
X53489100Y-103131853D01*
X53628481Y-103224985D01*
X53747015Y-103343519D01*
X53840147Y-103482900D01*
X53904297Y-103637772D01*
X53937000Y-103802184D01*
X53937000Y-103969816D01*
X53904297Y-104134228D01*
X53840147Y-104289100D01*
X53747015Y-104428481D01*
X53628481Y-104547015D01*
X53489100Y-104640147D01*
X53334228Y-104704297D01*
X53169816Y-104737000D01*
X53002184Y-104737000D01*
X52837772Y-104704297D01*
X52682900Y-104640147D01*
X52543519Y-104547015D01*
X52424985Y-104428481D01*
X52331853Y-104289100D01*
X52267703Y-104134228D01*
X52235000Y-103969816D01*
X52235000Y-103802184D01*
X52267703Y-103637772D01*
X52331853Y-103482900D01*
X52424985Y-103343519D01*
X52543519Y-103224985D01*
X52682900Y-103131853D01*
X52837772Y-103067703D01*
X53002184Y-103035000D01*
X53169816Y-103035000D01*
X53334228Y-103067703D01*
G37*
G36*
X74711000Y-103873500D02*
G01*
X72609000Y-103873500D01*
X72609000Y-101866500D01*
X74711000Y-101866500D01*
X74711000Y-103873500D01*
G37*
G36*
X53334228Y-100527703D02*
G01*
X53489100Y-100591853D01*
X53628481Y-100684985D01*
X53747015Y-100803519D01*
X53840147Y-100942900D01*
X53904297Y-101097772D01*
X53937000Y-101262184D01*
X53937000Y-101429816D01*
X53904297Y-101594228D01*
X53840147Y-101749100D01*
X53747015Y-101888481D01*
X53628481Y-102007015D01*
X53489100Y-102100147D01*
X53334228Y-102164297D01*
X53169816Y-102197000D01*
X53002184Y-102197000D01*
X52837772Y-102164297D01*
X52682900Y-102100147D01*
X52543519Y-102007015D01*
X52424985Y-101888481D01*
X52331853Y-101749100D01*
X52267703Y-101594228D01*
X52235000Y-101429816D01*
X52235000Y-101262184D01*
X52267703Y-101097772D01*
X52331853Y-100942900D01*
X52424985Y-100803519D01*
X52543519Y-100684985D01*
X52682900Y-100591853D01*
X52837772Y-100527703D01*
X53002184Y-100495000D01*
X53169816Y-100495000D01*
X53334228Y-100527703D01*
G37*
G36*
X60954228Y-100527703D02*
G01*
X61109100Y-100591853D01*
X61248481Y-100684985D01*
X61367015Y-100803519D01*
X61460147Y-100942900D01*
X61524297Y-101097772D01*
X61557000Y-101262184D01*
X61557000Y-101429816D01*
X61524297Y-101594228D01*
X61460147Y-101749100D01*
X61367015Y-101888481D01*
X61248481Y-102007015D01*
X61109100Y-102100147D01*
X60954228Y-102164297D01*
X60789816Y-102197000D01*
X60622184Y-102197000D01*
X60457772Y-102164297D01*
X60302900Y-102100147D01*
X60163519Y-102007015D01*
X60044985Y-101888481D01*
X59951853Y-101749100D01*
X59887703Y-101594228D01*
X59855000Y-101429816D01*
X59855000Y-101262184D01*
X59887703Y-101097772D01*
X59951853Y-100942900D01*
X60044985Y-100803519D01*
X60163519Y-100684985D01*
X60302900Y-100591853D01*
X60457772Y-100527703D01*
X60622184Y-100495000D01*
X60789816Y-100495000D01*
X60954228Y-100527703D01*
G37*
G36*
X34493097Y-99974069D02*
G01*
X34596032Y-99984207D01*
X34794146Y-100044305D01*
X34794149Y-100044306D01*
X34890975Y-100096061D01*
X34976729Y-100141897D01*
X35136765Y-100273235D01*
X35268103Y-100433271D01*
X35313939Y-100519025D01*
X35365694Y-100615851D01*
X35365695Y-100615854D01*
X35425793Y-100813968D01*
X35446085Y-101020000D01*
X35425793Y-101226032D01*
X35365695Y-101424146D01*
X35365694Y-101424149D01*
X35313939Y-101520975D01*
X35268103Y-101606729D01*
X35136765Y-101766765D01*
X34976729Y-101898103D01*
X34890975Y-101943939D01*
X34794149Y-101995694D01*
X34794146Y-101995695D01*
X34596032Y-102055793D01*
X34493097Y-102065931D01*
X34441631Y-102071000D01*
X32838369Y-102071000D01*
X32786903Y-102065931D01*
X32683968Y-102055793D01*
X32485854Y-101995695D01*
X32485851Y-101995694D01*
X32389025Y-101943939D01*
X32303271Y-101898103D01*
X32143235Y-101766765D01*
X32011897Y-101606729D01*
X31966061Y-101520975D01*
X31914306Y-101424149D01*
X31914305Y-101424146D01*
X31854207Y-101226032D01*
X31833915Y-101020000D01*
X31854207Y-100813968D01*
X31914305Y-100615854D01*
X31914306Y-100615851D01*
X31966061Y-100519025D01*
X32011897Y-100433271D01*
X32143235Y-100273235D01*
X32303271Y-100141897D01*
X32389025Y-100096061D01*
X32485851Y-100044306D01*
X32485854Y-100044305D01*
X32683968Y-99984207D01*
X32786903Y-99974069D01*
X32838369Y-99969000D01*
X34441631Y-99969000D01*
X34493097Y-99974069D01*
G37*
G36*
X73962585Y-96258802D02*
G01*
X74112410Y-96288604D01*
X74394674Y-96405521D01*
X74648705Y-96575259D01*
X74864741Y-96791295D01*
X75034479Y-97045326D01*
X75151396Y-97327590D01*
X75211000Y-97627240D01*
X75211000Y-97932760D01*
X75151396Y-98232410D01*
X75034479Y-98514674D01*
X74864741Y-98768705D01*
X74648705Y-98984741D01*
X74394674Y-99154479D01*
X74112410Y-99271396D01*
X73962585Y-99301198D01*
X73812761Y-99331000D01*
X73507239Y-99331000D01*
X73357415Y-99301198D01*
X73207590Y-99271396D01*
X72925326Y-99154479D01*
X72671295Y-98984741D01*
X72455259Y-98768705D01*
X72285521Y-98514674D01*
X72168604Y-98232410D01*
X72109000Y-97932760D01*
X72109000Y-97627240D01*
X72168604Y-97327590D01*
X72285521Y-97045326D01*
X72455259Y-96791295D01*
X72671295Y-96575259D01*
X72925326Y-96405521D01*
X73207590Y-96288604D01*
X73357415Y-96258802D01*
X73507239Y-96229000D01*
X73812761Y-96229000D01*
X73962585Y-96258802D01*
G37*
G36*
X41691000Y-98571000D02*
G01*
X39589000Y-98571000D01*
X39589000Y-94469000D01*
X41691000Y-94469000D01*
X41691000Y-98571000D01*
G37*
G36*
X34846032Y-94834207D02*
G01*
X35044146Y-94894305D01*
X35044149Y-94894306D01*
X35140975Y-94946061D01*
X35226729Y-94991897D01*
X35386765Y-95123235D01*
X35518103Y-95283271D01*
X35563939Y-95369025D01*
X35615694Y-95465851D01*
X35615695Y-95465854D01*
X35675793Y-95663968D01*
X35691000Y-95818370D01*
X35691000Y-97221630D01*
X35675793Y-97376032D01*
X35615695Y-97574145D01*
X35615694Y-97574149D01*
X35587316Y-97627240D01*
X35518103Y-97756729D01*
X35386765Y-97916765D01*
X35226729Y-98048103D01*
X35110030Y-98110479D01*
X35044148Y-98145694D01*
X35044145Y-98145695D01*
X34846031Y-98205793D01*
X34640000Y-98226085D01*
X34433968Y-98205793D01*
X34235854Y-98145695D01*
X34235851Y-98145694D01*
X34139025Y-98093939D01*
X34053271Y-98048103D01*
X33893235Y-97916765D01*
X33761897Y-97756729D01*
X33699521Y-97640030D01*
X33664306Y-97574148D01*
X33664305Y-97574145D01*
X33604207Y-97376031D01*
X33589000Y-97221629D01*
X33589000Y-95818369D01*
X33604207Y-95663970D01*
X33664305Y-95465853D01*
X33739184Y-95325766D01*
X33761898Y-95283271D01*
X33893236Y-95123235D01*
X34053272Y-94991897D01*
X34139026Y-94946061D01*
X34235852Y-94894306D01*
X34235855Y-94894305D01*
X34433969Y-94834207D01*
X34640000Y-94813915D01*
X34846032Y-94834207D01*
G37*
G36*
X31888228Y-95701703D02*
G01*
X32043100Y-95765853D01*
X32182481Y-95858985D01*
X32301015Y-95977519D01*
X32394147Y-96116900D01*
X32458297Y-96271772D01*
X32491000Y-96436184D01*
X32491000Y-96603816D01*
X32458297Y-96768228D01*
X32394147Y-96923100D01*
X32301015Y-97062481D01*
X32182481Y-97181015D01*
X32043100Y-97274147D01*
X31888228Y-97338297D01*
X31723816Y-97371000D01*
X31556184Y-97371000D01*
X31391772Y-97338297D01*
X31236900Y-97274147D01*
X31097519Y-97181015D01*
X30978985Y-97062481D01*
X30885853Y-96923100D01*
X30821703Y-96768228D01*
X30789000Y-96603816D01*
X30789000Y-96436184D01*
X30821703Y-96271772D01*
X30885853Y-96116900D01*
X30978985Y-95977519D01*
X31097519Y-95858985D01*
X31236900Y-95765853D01*
X31391772Y-95701703D01*
X31556184Y-95669000D01*
X31723816Y-95669000D01*
X31888228Y-95701703D01*
G37*
G36*
X34493097Y-90974069D02*
G01*
X34596032Y-90984207D01*
X34794146Y-91044305D01*
X34794149Y-91044306D01*
X34822449Y-91059433D01*
X34976729Y-91141897D01*
X35136765Y-91273235D01*
X35268103Y-91433271D01*
X35313939Y-91519025D01*
X35365694Y-91615851D01*
X35365695Y-91615854D01*
X35425793Y-91813968D01*
X35446085Y-92020000D01*
X35425793Y-92226032D01*
X35365695Y-92424146D01*
X35365694Y-92424149D01*
X35325115Y-92500066D01*
X35268103Y-92606729D01*
X35136765Y-92766765D01*
X34976729Y-92898103D01*
X34890975Y-92943939D01*
X34794149Y-92995694D01*
X34794146Y-92995695D01*
X34596032Y-93055793D01*
X34493097Y-93065931D01*
X34441631Y-93071000D01*
X32838369Y-93071000D01*
X32786903Y-93065931D01*
X32683968Y-93055793D01*
X32485854Y-92995695D01*
X32485851Y-92995694D01*
X32389025Y-92943939D01*
X32303271Y-92898103D01*
X32143235Y-92766765D01*
X32011897Y-92606729D01*
X31954885Y-92500066D01*
X31914306Y-92424149D01*
X31914305Y-92424146D01*
X31854207Y-92226032D01*
X31833915Y-92020000D01*
X31854207Y-91813968D01*
X31914305Y-91615854D01*
X31914306Y-91615851D01*
X31966061Y-91519025D01*
X32011897Y-91433271D01*
X32143235Y-91273235D01*
X32303271Y-91141897D01*
X32457551Y-91059433D01*
X32485851Y-91044306D01*
X32485854Y-91044305D01*
X32683968Y-90984207D01*
X32786903Y-90974069D01*
X32838369Y-90969000D01*
X34441631Y-90969000D01*
X34493097Y-90974069D01*
G37*
G36*
X61542195Y-91135146D02*
G01*
X61715266Y-91206834D01*
X61715267Y-91206835D01*
X61871027Y-91310910D01*
X62003490Y-91443373D01*
X62055881Y-91521782D01*
X62107566Y-91599134D01*
X62179254Y-91772205D01*
X62215800Y-91955933D01*
X62215800Y-92143267D01*
X62179254Y-92326995D01*
X62107566Y-92500066D01*
X62107565Y-92500067D01*
X62003490Y-92655827D01*
X61871027Y-92788290D01*
X61792618Y-92840681D01*
X61715266Y-92892366D01*
X61542195Y-92964054D01*
X61358467Y-93000600D01*
X61171133Y-93000600D01*
X60987405Y-92964054D01*
X60814334Y-92892366D01*
X60736982Y-92840681D01*
X60658573Y-92788290D01*
X60526110Y-92655827D01*
X60422035Y-92500067D01*
X60422034Y-92500066D01*
X60350346Y-92326995D01*
X60313800Y-92143267D01*
X60313800Y-91955933D01*
X60350346Y-91772205D01*
X60422034Y-91599134D01*
X60473719Y-91521782D01*
X60526110Y-91443373D01*
X60658573Y-91310910D01*
X60814333Y-91206835D01*
X60814334Y-91206834D01*
X60987405Y-91135146D01*
X61171133Y-91098600D01*
X61358467Y-91098600D01*
X61542195Y-91135146D01*
G37*
G36*
X162138608Y-81479990D02*
G01*
X162634258Y-81578581D01*
X163568040Y-81965367D01*
X164408422Y-82526892D01*
X165123108Y-83241578D01*
X165684633Y-84081960D01*
X166071419Y-85015742D01*
X166268600Y-86007041D01*
X166268600Y-87017759D01*
X166071419Y-88009058D01*
X165684633Y-88942840D01*
X165123108Y-89783222D01*
X164408422Y-90497908D01*
X163568040Y-91059433D01*
X162634258Y-91446219D01*
X162138608Y-91544810D01*
X161642961Y-91643400D01*
X160632239Y-91643400D01*
X160136592Y-91544810D01*
X159640942Y-91446219D01*
X158707160Y-91059433D01*
X157866778Y-90497908D01*
X157152092Y-89783222D01*
X156590567Y-88942840D01*
X156203781Y-88009058D01*
X156006600Y-87017759D01*
X156006600Y-86007041D01*
X156203781Y-85015742D01*
X156590567Y-84081960D01*
X157152092Y-83241578D01*
X157866778Y-82526892D01*
X158707160Y-81965367D01*
X159640942Y-81578581D01*
X160136592Y-81479990D01*
X160632239Y-81381400D01*
X161642961Y-81381400D01*
X162138608Y-81479990D01*
G37*
G36*
X62215800Y-85380600D02*
G01*
X60313800Y-85380600D01*
X60313800Y-83478600D01*
X62215800Y-83478600D01*
X62215800Y-85380600D01*
G37*
G36*
X53762259Y-78017860D02*
G01*
X53898932Y-78074472D01*
X54021935Y-78156660D01*
X54126540Y-78261265D01*
X54208728Y-78384268D01*
X54265340Y-78520941D01*
X54294200Y-78666033D01*
X54294200Y-78813967D01*
X54265340Y-78959059D01*
X54208728Y-79095732D01*
X54126540Y-79218735D01*
X54021935Y-79323340D01*
X53898932Y-79405528D01*
X53898931Y-79405529D01*
X53898930Y-79405529D01*
X53762259Y-79462140D01*
X53617168Y-79491000D01*
X53469232Y-79491000D01*
X53324141Y-79462140D01*
X53187470Y-79405529D01*
X53187469Y-79405529D01*
X53187468Y-79405528D01*
X53064465Y-79323340D01*
X52959860Y-79218735D01*
X52877672Y-79095732D01*
X52821060Y-78959059D01*
X52792200Y-78813967D01*
X52792200Y-78666033D01*
X52821060Y-78520941D01*
X52877672Y-78384268D01*
X52959860Y-78261265D01*
X53064465Y-78156660D01*
X53187468Y-78074472D01*
X53324141Y-78017860D01*
X53469232Y-77989000D01*
X53617168Y-77989000D01*
X53762259Y-78017860D01*
G37*
G36*
X143874903Y-76187075D02*
G01*
X144102571Y-76281378D01*
X144307466Y-76418285D01*
X144481715Y-76592534D01*
X144569940Y-76724572D01*
X144618623Y-76797431D01*
X144656545Y-76888984D01*
X144712925Y-77025097D01*
X144761000Y-77266787D01*
X144761000Y-77513213D01*
X144712925Y-77754903D01*
X144618622Y-77982571D01*
X144481715Y-78187466D01*
X144307466Y-78361715D01*
X144102571Y-78498622D01*
X144102570Y-78498623D01*
X144102569Y-78498623D01*
X143874903Y-78592925D01*
X143633214Y-78641000D01*
X143386786Y-78641000D01*
X143145097Y-78592925D01*
X142917431Y-78498623D01*
X142917430Y-78498623D01*
X142917429Y-78498622D01*
X142712534Y-78361715D01*
X142538285Y-78187466D01*
X142401378Y-77982571D01*
X142307075Y-77754903D01*
X142259000Y-77513213D01*
X142259000Y-77266787D01*
X142307075Y-77025097D01*
X142363455Y-76888984D01*
X142401377Y-76797431D01*
X142450060Y-76724572D01*
X142538285Y-76592534D01*
X142712534Y-76418285D01*
X142917429Y-76281378D01*
X143145097Y-76187075D01*
X143386786Y-76139000D01*
X143633214Y-76139000D01*
X143874903Y-76187075D01*
G37*
G36*
X63087828Y-76154503D02*
G01*
X63242700Y-76218653D01*
X63382081Y-76311785D01*
X63500615Y-76430319D01*
X63593747Y-76569700D01*
X63657897Y-76724572D01*
X63690600Y-76888984D01*
X63690600Y-77056616D01*
X63657897Y-77221028D01*
X63593747Y-77375900D01*
X63500615Y-77515281D01*
X63382081Y-77633815D01*
X63242700Y-77726947D01*
X63087828Y-77791097D01*
X62923416Y-77823800D01*
X62755784Y-77823800D01*
X62591372Y-77791097D01*
X62436500Y-77726947D01*
X62297119Y-77633815D01*
X62178585Y-77515281D01*
X62085453Y-77375900D01*
X62021303Y-77221028D01*
X61988600Y-77056616D01*
X61988600Y-76888984D01*
X62021303Y-76724572D01*
X62085453Y-76569700D01*
X62178585Y-76430319D01*
X62297119Y-76311785D01*
X62436500Y-76218653D01*
X62591372Y-76154503D01*
X62755784Y-76121800D01*
X62923416Y-76121800D01*
X63087828Y-76154503D01*
G37*
G36*
X110718985Y-74374002D02*
G01*
X110868810Y-74403804D01*
X111151074Y-74520721D01*
X111405105Y-74690459D01*
X111621141Y-74906495D01*
X111790879Y-75160526D01*
X111907796Y-75442790D01*
X111967400Y-75742440D01*
X111967400Y-76047960D01*
X111907796Y-76347610D01*
X111790879Y-76629874D01*
X111621141Y-76883905D01*
X111405105Y-77099941D01*
X111151074Y-77269679D01*
X110868810Y-77386596D01*
X110718985Y-77416398D01*
X110569161Y-77446200D01*
X110263639Y-77446200D01*
X110113815Y-77416398D01*
X109963990Y-77386596D01*
X109681726Y-77269679D01*
X109427695Y-77099941D01*
X109211659Y-76883905D01*
X109041921Y-76629874D01*
X108925004Y-76347610D01*
X108865400Y-76047960D01*
X108865400Y-75742440D01*
X108925004Y-75442790D01*
X109041921Y-75160526D01*
X109211659Y-74906495D01*
X109427695Y-74690459D01*
X109681726Y-74520721D01*
X109963990Y-74403804D01*
X110113815Y-74374002D01*
X110263639Y-74344200D01*
X110569161Y-74344200D01*
X110718985Y-74374002D01*
G37*
G36*
X80669043Y-74364069D02*
G01*
X80868810Y-74403805D01*
X81151074Y-74520722D01*
X81405104Y-74690460D01*
X81621140Y-74906496D01*
X81790878Y-75160526D01*
X81907795Y-75442790D01*
X81967399Y-75742440D01*
X81967399Y-76047960D01*
X81907795Y-76347610D01*
X81790878Y-76629874D01*
X81621140Y-76883904D01*
X81405104Y-77099940D01*
X81151074Y-77269678D01*
X80868810Y-77386595D01*
X80669043Y-77426331D01*
X80569161Y-77446199D01*
X80263639Y-77446199D01*
X80163757Y-77426331D01*
X79963990Y-77386595D01*
X79681726Y-77269678D01*
X79427696Y-77099940D01*
X79211660Y-76883904D01*
X79041922Y-76629874D01*
X78925005Y-76347610D01*
X78865401Y-76047960D01*
X78865401Y-75742440D01*
X78925005Y-75442790D01*
X79041922Y-75160526D01*
X79211660Y-74906496D01*
X79427696Y-74690460D01*
X79681726Y-74520722D01*
X79963990Y-74403805D01*
X80163757Y-74364069D01*
X80263639Y-74344201D01*
X80569161Y-74344201D01*
X80669043Y-74364069D01*
G37*
G36*
X63690600Y-75323800D02*
G01*
X61988600Y-75323800D01*
X61988600Y-73621800D01*
X63690600Y-73621800D01*
X63690600Y-75323800D01*
G37*
G36*
X53762259Y-72937860D02*
G01*
X53898932Y-72994472D01*
X54021935Y-73076660D01*
X54126540Y-73181265D01*
X54208728Y-73304268D01*
X54265340Y-73440941D01*
X54294200Y-73586033D01*
X54294200Y-73733967D01*
X54265340Y-73879059D01*
X54208728Y-74015732D01*
X54126540Y-74138735D01*
X54021935Y-74243340D01*
X53898932Y-74325528D01*
X53898931Y-74325529D01*
X53898930Y-74325529D01*
X53762259Y-74382140D01*
X53617168Y-74411000D01*
X53469232Y-74411000D01*
X53324141Y-74382140D01*
X53187470Y-74325529D01*
X53187469Y-74325529D01*
X53187468Y-74325528D01*
X53064465Y-74243340D01*
X52959860Y-74138735D01*
X52877672Y-74015732D01*
X52821060Y-73879059D01*
X52792200Y-73733967D01*
X52792200Y-73586033D01*
X52821060Y-73440941D01*
X52877672Y-73304268D01*
X52959860Y-73181265D01*
X53064465Y-73076660D01*
X53187468Y-72994472D01*
X53324141Y-72937860D01*
X53469232Y-72909000D01*
X53617168Y-72909000D01*
X53762259Y-72937860D01*
G37*
G36*
X144761000Y-73641000D02*
G01*
X142259000Y-73641000D01*
X142259000Y-71139000D01*
X144761000Y-71139000D01*
X144761000Y-73641000D01*
G37*
G36*
X80718985Y-69374002D02*
G01*
X80868810Y-69403804D01*
X81151074Y-69520721D01*
X81405105Y-69690459D01*
X81621141Y-69906495D01*
X81790879Y-70160526D01*
X81907796Y-70442790D01*
X81967400Y-70742440D01*
X81967400Y-71047960D01*
X81907796Y-71347610D01*
X81790879Y-71629874D01*
X81621141Y-71883905D01*
X81405105Y-72099941D01*
X81151074Y-72269679D01*
X80868810Y-72386596D01*
X80718985Y-72416398D01*
X80569161Y-72446200D01*
X80263639Y-72446200D01*
X80113815Y-72416398D01*
X79963990Y-72386596D01*
X79681726Y-72269679D01*
X79427695Y-72099941D01*
X79211659Y-71883905D01*
X79041921Y-71629874D01*
X78925004Y-71347610D01*
X78865400Y-71047960D01*
X78865400Y-70742440D01*
X78925004Y-70442790D01*
X79041921Y-70160526D01*
X79211659Y-69906495D01*
X79427695Y-69690459D01*
X79681726Y-69520721D01*
X79963990Y-69403804D01*
X80113815Y-69374002D01*
X80263639Y-69344200D01*
X80569161Y-69344200D01*
X80718985Y-69374002D01*
G37*
G36*
X110669043Y-69364069D02*
G01*
X110868810Y-69403805D01*
X111151074Y-69520722D01*
X111405104Y-69690460D01*
X111621140Y-69906496D01*
X111790878Y-70160526D01*
X111907795Y-70442790D01*
X111967399Y-70742440D01*
X111967399Y-71047960D01*
X111907795Y-71347610D01*
X111790878Y-71629874D01*
X111621140Y-71883904D01*
X111405104Y-72099940D01*
X111151074Y-72269678D01*
X110868810Y-72386595D01*
X110669043Y-72426331D01*
X110569161Y-72446199D01*
X110263639Y-72446199D01*
X110163757Y-72426331D01*
X109963990Y-72386595D01*
X109681726Y-72269678D01*
X109427696Y-72099940D01*
X109211660Y-71883904D01*
X109041922Y-71629874D01*
X108925005Y-71347610D01*
X108865401Y-71047960D01*
X108865401Y-70742440D01*
X108925005Y-70442790D01*
X109041922Y-70160526D01*
X109211660Y-69906496D01*
X109427696Y-69690460D01*
X109681726Y-69520722D01*
X109963990Y-69403805D01*
X110163757Y-69364069D01*
X110263639Y-69344201D01*
X110569161Y-69344201D01*
X110669043Y-69364069D01*
G37*
G36*
X34493097Y-68224069D02*
G01*
X34596032Y-68234207D01*
X34794146Y-68294305D01*
X34794149Y-68294306D01*
X34890975Y-68346061D01*
X34976729Y-68391897D01*
X35136765Y-68523235D01*
X35268103Y-68683271D01*
X35313939Y-68769025D01*
X35365694Y-68865851D01*
X35365695Y-68865854D01*
X35425793Y-69063968D01*
X35446085Y-69270000D01*
X35425793Y-69476032D01*
X35412236Y-69520722D01*
X35365694Y-69674149D01*
X35313939Y-69770975D01*
X35268103Y-69856729D01*
X35136765Y-70016765D01*
X34976729Y-70148103D01*
X34953483Y-70160528D01*
X34794149Y-70245694D01*
X34794146Y-70245695D01*
X34596032Y-70305793D01*
X34493097Y-70315931D01*
X34441631Y-70321000D01*
X32838369Y-70321000D01*
X32786903Y-70315931D01*
X32683968Y-70305793D01*
X32485854Y-70245695D01*
X32485851Y-70245694D01*
X32326517Y-70160528D01*
X32303271Y-70148103D01*
X32143235Y-70016765D01*
X32011897Y-69856729D01*
X31966061Y-69770975D01*
X31914306Y-69674149D01*
X31867764Y-69520722D01*
X31854207Y-69476032D01*
X31833915Y-69270000D01*
X31854207Y-69063968D01*
X31914305Y-68865854D01*
X31914306Y-68865851D01*
X31966061Y-68769025D01*
X32011897Y-68683271D01*
X32143235Y-68523235D01*
X32303271Y-68391897D01*
X32389025Y-68346061D01*
X32485851Y-68294306D01*
X32485854Y-68294305D01*
X32683968Y-68234207D01*
X32786903Y-68224069D01*
X32838369Y-68219000D01*
X34441631Y-68219000D01*
X34493097Y-68224069D01*
G37*
G36*
X161585297Y-60063968D02*
G01*
X162227858Y-60191781D01*
X163161640Y-60578567D01*
X164002022Y-61140092D01*
X164716708Y-61854778D01*
X165278233Y-62695160D01*
X165665019Y-63628942D01*
X165721714Y-63913968D01*
X165862200Y-64620239D01*
X165862200Y-65630961D01*
X165823772Y-65824149D01*
X165665019Y-66622258D01*
X165278233Y-67556040D01*
X164716708Y-68396422D01*
X164002022Y-69111108D01*
X163161640Y-69672633D01*
X163161639Y-69672634D01*
X163161638Y-69672634D01*
X163118602Y-69690460D01*
X162227858Y-70059419D01*
X161782012Y-70148103D01*
X161236561Y-70256600D01*
X160225839Y-70256600D01*
X159680388Y-70148103D01*
X159234542Y-70059419D01*
X158343798Y-69690460D01*
X158300762Y-69672634D01*
X158300761Y-69672634D01*
X158300760Y-69672633D01*
X157460378Y-69111108D01*
X156745692Y-68396422D01*
X156184167Y-67556040D01*
X155797381Y-66622258D01*
X155638628Y-65824149D01*
X155600200Y-65630961D01*
X155600200Y-64620239D01*
X155740686Y-63913968D01*
X155797381Y-63628942D01*
X156184167Y-62695160D01*
X156745692Y-61854778D01*
X157460378Y-61140092D01*
X158300760Y-60578567D01*
X159234542Y-60191781D01*
X159877103Y-60063968D01*
X160225839Y-59994600D01*
X161236561Y-59994600D01*
X161585297Y-60063968D01*
G37*
G36*
X80683281Y-64366900D02*
G01*
X80868810Y-64403804D01*
X81151074Y-64520721D01*
X81405105Y-64690459D01*
X81621141Y-64906495D01*
X81790879Y-65160526D01*
X81907796Y-65442790D01*
X81913533Y-65471631D01*
X81945226Y-65630961D01*
X81967400Y-65742440D01*
X81967400Y-66047960D01*
X81907796Y-66347610D01*
X81790879Y-66629874D01*
X81621141Y-66883905D01*
X81405105Y-67099941D01*
X81151074Y-67269679D01*
X80868810Y-67386596D01*
X80718985Y-67416398D01*
X80569161Y-67446200D01*
X80263639Y-67446200D01*
X80113815Y-67416398D01*
X79963990Y-67386596D01*
X79681726Y-67269679D01*
X79427695Y-67099941D01*
X79211659Y-66883905D01*
X79041921Y-66629874D01*
X78925004Y-66347610D01*
X78865400Y-66047960D01*
X78865400Y-65742440D01*
X78887575Y-65630961D01*
X78919267Y-65471631D01*
X78925004Y-65442790D01*
X79041921Y-65160526D01*
X79211659Y-64906495D01*
X79427695Y-64690459D01*
X79681726Y-64520721D01*
X79963990Y-64403804D01*
X80149519Y-64366900D01*
X80263639Y-64344200D01*
X80569161Y-64344200D01*
X80683281Y-64366900D01*
G37*
G36*
X110683281Y-64366900D02*
G01*
X110868810Y-64403804D01*
X111151074Y-64520721D01*
X111405105Y-64690459D01*
X111621141Y-64906495D01*
X111790879Y-65160526D01*
X111907796Y-65442790D01*
X111913533Y-65471631D01*
X111945226Y-65630961D01*
X111967400Y-65742440D01*
X111967400Y-66047960D01*
X111907796Y-66347610D01*
X111790879Y-66629874D01*
X111621141Y-66883905D01*
X111405105Y-67099941D01*
X111151074Y-67269679D01*
X110868810Y-67386596D01*
X110718985Y-67416398D01*
X110569161Y-67446200D01*
X110263639Y-67446200D01*
X110113815Y-67416398D01*
X109963990Y-67386596D01*
X109681726Y-67269679D01*
X109427695Y-67099941D01*
X109211659Y-66883905D01*
X109041921Y-66629874D01*
X108925004Y-66347610D01*
X108865400Y-66047960D01*
X108865400Y-65742440D01*
X108887575Y-65630961D01*
X108919267Y-65471631D01*
X108925004Y-65442790D01*
X109041921Y-65160526D01*
X109211659Y-64906495D01*
X109427695Y-64690459D01*
X109681726Y-64520721D01*
X109963990Y-64403804D01*
X110149519Y-64366900D01*
X110263639Y-64344200D01*
X110569161Y-64344200D01*
X110683281Y-64366900D01*
G37*
G36*
X41691000Y-66821000D02*
G01*
X39589000Y-66821000D01*
X39589000Y-62719000D01*
X41691000Y-62719000D01*
X41691000Y-66821000D01*
G37*
G36*
X34846032Y-63084207D02*
G01*
X35044146Y-63144305D01*
X35044149Y-63144306D01*
X35140975Y-63196061D01*
X35226729Y-63241897D01*
X35386765Y-63373235D01*
X35518103Y-63533271D01*
X35563939Y-63619025D01*
X35615694Y-63715851D01*
X35615695Y-63715854D01*
X35675793Y-63913968D01*
X35691000Y-64068370D01*
X35691000Y-65471630D01*
X35675793Y-65626032D01*
X35615695Y-65824145D01*
X35615694Y-65824149D01*
X35563939Y-65920975D01*
X35518103Y-66006729D01*
X35386765Y-66166765D01*
X35226729Y-66298103D01*
X35110030Y-66360479D01*
X35044148Y-66395694D01*
X35044145Y-66395695D01*
X34846031Y-66455793D01*
X34640000Y-66476085D01*
X34433968Y-66455793D01*
X34235854Y-66395695D01*
X34235851Y-66395694D01*
X34139025Y-66343939D01*
X34053271Y-66298103D01*
X33893235Y-66166765D01*
X33761897Y-66006729D01*
X33664307Y-65824149D01*
X33664306Y-65824148D01*
X33639520Y-65742440D01*
X33604207Y-65626031D01*
X33589000Y-65471629D01*
X33589000Y-64068369D01*
X33604207Y-63913970D01*
X33664305Y-63715853D01*
X33739184Y-63575765D01*
X33761898Y-63533271D01*
X33893236Y-63373235D01*
X34053272Y-63241897D01*
X34139026Y-63196061D01*
X34235852Y-63144306D01*
X34235855Y-63144305D01*
X34433969Y-63084207D01*
X34640000Y-63063915D01*
X34846032Y-63084207D01*
G37*
G36*
X31888228Y-63951703D02*
G01*
X32043100Y-64015853D01*
X32182481Y-64108985D01*
X32301015Y-64227519D01*
X32394147Y-64366900D01*
X32458297Y-64521772D01*
X32491000Y-64686184D01*
X32491000Y-64853816D01*
X32458297Y-65018228D01*
X32394147Y-65173100D01*
X32301015Y-65312481D01*
X32182481Y-65431015D01*
X32043100Y-65524147D01*
X31888228Y-65588297D01*
X31723816Y-65621000D01*
X31556184Y-65621000D01*
X31391772Y-65588297D01*
X31236900Y-65524147D01*
X31097519Y-65431015D01*
X30978985Y-65312481D01*
X30885853Y-65173100D01*
X30821703Y-65018228D01*
X30789000Y-64853816D01*
X30789000Y-64686184D01*
X30821703Y-64521772D01*
X30885853Y-64366900D01*
X30978985Y-64227519D01*
X31097519Y-64108985D01*
X31236900Y-64015853D01*
X31391772Y-63951703D01*
X31556184Y-63919000D01*
X31723816Y-63919000D01*
X31888228Y-63951703D01*
G37*
G36*
X110718985Y-59374002D02*
G01*
X110868810Y-59403804D01*
X111151074Y-59520721D01*
X111405105Y-59690459D01*
X111621141Y-59906495D01*
X111790879Y-60160526D01*
X111836224Y-60270000D01*
X111907796Y-60442791D01*
X111953816Y-60674146D01*
X111967400Y-60742440D01*
X111967400Y-61047960D01*
X111907796Y-61347610D01*
X111790879Y-61629874D01*
X111621141Y-61883905D01*
X111405105Y-62099941D01*
X111151074Y-62269679D01*
X110868810Y-62386596D01*
X110718985Y-62416398D01*
X110569161Y-62446200D01*
X110263639Y-62446200D01*
X110113815Y-62416398D01*
X109963990Y-62386596D01*
X109681726Y-62269679D01*
X109427695Y-62099941D01*
X109211659Y-61883905D01*
X109041921Y-61629874D01*
X108925004Y-61347610D01*
X108865400Y-61047960D01*
X108865400Y-60742440D01*
X108878985Y-60674146D01*
X108925004Y-60442791D01*
X108996576Y-60270000D01*
X109041921Y-60160526D01*
X109211659Y-59906495D01*
X109427695Y-59690459D01*
X109681726Y-59520721D01*
X109963990Y-59403804D01*
X110113815Y-59374002D01*
X110263639Y-59344200D01*
X110569161Y-59344200D01*
X110718985Y-59374002D01*
G37*
G36*
X80669043Y-59364069D02*
G01*
X80868810Y-59403805D01*
X81151074Y-59520722D01*
X81405104Y-59690460D01*
X81621140Y-59906496D01*
X81790878Y-60160526D01*
X81907795Y-60442790D01*
X81907795Y-60442792D01*
X81953815Y-60674146D01*
X81967399Y-60742440D01*
X81967399Y-61047960D01*
X81907795Y-61347610D01*
X81790878Y-61629874D01*
X81621140Y-61883904D01*
X81405104Y-62099940D01*
X81151074Y-62269678D01*
X80868810Y-62386595D01*
X80669043Y-62426331D01*
X80569161Y-62446199D01*
X80263639Y-62446199D01*
X80163757Y-62426331D01*
X79963990Y-62386595D01*
X79681726Y-62269678D01*
X79427696Y-62099940D01*
X79211660Y-61883904D01*
X79041922Y-61629874D01*
X78925005Y-61347610D01*
X78865401Y-61047960D01*
X78865401Y-60742440D01*
X78878986Y-60674146D01*
X78925005Y-60442792D01*
X78925005Y-60442790D01*
X79041922Y-60160526D01*
X79211660Y-59906496D01*
X79427696Y-59690460D01*
X79681726Y-59520722D01*
X79963990Y-59403805D01*
X80163757Y-59364069D01*
X80263639Y-59344201D01*
X80569161Y-59344201D01*
X80669043Y-59364069D01*
G37*
G36*
X34493097Y-59224069D02*
G01*
X34596032Y-59234207D01*
X34794146Y-59294305D01*
X34794149Y-59294306D01*
X34890975Y-59346061D01*
X34976729Y-59391897D01*
X35136765Y-59523235D01*
X35268103Y-59683271D01*
X35313939Y-59769025D01*
X35365694Y-59865851D01*
X35365695Y-59865854D01*
X35425793Y-60063968D01*
X35446085Y-60270000D01*
X35425793Y-60476032D01*
X35394689Y-60578566D01*
X35365694Y-60674149D01*
X35313939Y-60770975D01*
X35268103Y-60856729D01*
X35136765Y-61016765D01*
X34976729Y-61148103D01*
X34890975Y-61193939D01*
X34794149Y-61245694D01*
X34794146Y-61245695D01*
X34596032Y-61305793D01*
X34493097Y-61315931D01*
X34441631Y-61321000D01*
X32838369Y-61321000D01*
X32786903Y-61315931D01*
X32683968Y-61305793D01*
X32485854Y-61245695D01*
X32485851Y-61245694D01*
X32389025Y-61193939D01*
X32303271Y-61148103D01*
X32143235Y-61016765D01*
X32011897Y-60856729D01*
X31966061Y-60770975D01*
X31914306Y-60674149D01*
X31885311Y-60578566D01*
X31854207Y-60476032D01*
X31833915Y-60270000D01*
X31854207Y-60063968D01*
X31914305Y-59865854D01*
X31914306Y-59865851D01*
X31966061Y-59769025D01*
X32011897Y-59683271D01*
X32143235Y-59523235D01*
X32303271Y-59391897D01*
X32389025Y-59346061D01*
X32485851Y-59294306D01*
X32485854Y-59294305D01*
X32683968Y-59234207D01*
X32786903Y-59224069D01*
X32838369Y-59219000D01*
X34441631Y-59219000D01*
X34493097Y-59224069D01*
G37*
G36*
X110718985Y-54374002D02*
G01*
X110868810Y-54403804D01*
X111151074Y-54520721D01*
X111405105Y-54690459D01*
X111621141Y-54906495D01*
X111790879Y-55160526D01*
X111907796Y-55442790D01*
X111967400Y-55742440D01*
X111967400Y-56047960D01*
X111907796Y-56347610D01*
X111790879Y-56629874D01*
X111621141Y-56883905D01*
X111405105Y-57099941D01*
X111151074Y-57269679D01*
X110868810Y-57386596D01*
X110718985Y-57416398D01*
X110569161Y-57446200D01*
X110263639Y-57446200D01*
X110113815Y-57416398D01*
X109963990Y-57386596D01*
X109681726Y-57269679D01*
X109427695Y-57099941D01*
X109211659Y-56883905D01*
X109041921Y-56629874D01*
X108925004Y-56347610D01*
X108865400Y-56047960D01*
X108865400Y-55742440D01*
X108925004Y-55442790D01*
X109041921Y-55160526D01*
X109211659Y-54906495D01*
X109427695Y-54690459D01*
X109681726Y-54520721D01*
X109963990Y-54403804D01*
X110113815Y-54374002D01*
X110263639Y-54344200D01*
X110569161Y-54344200D01*
X110718985Y-54374002D01*
G37*
G36*
X80669043Y-54364069D02*
G01*
X80868810Y-54403805D01*
X81151074Y-54520722D01*
X81405104Y-54690460D01*
X81621140Y-54906496D01*
X81790878Y-55160526D01*
X81907795Y-55442790D01*
X81967399Y-55742440D01*
X81967399Y-56047960D01*
X81907795Y-56347610D01*
X81790878Y-56629874D01*
X81621140Y-56883904D01*
X81405104Y-57099940D01*
X81151074Y-57269678D01*
X80868810Y-57386595D01*
X80669043Y-57426331D01*
X80569161Y-57446199D01*
X80263639Y-57446199D01*
X80163757Y-57426331D01*
X79963990Y-57386595D01*
X79681726Y-57269678D01*
X79427696Y-57099940D01*
X79211660Y-56883904D01*
X79041922Y-56629874D01*
X78925005Y-56347610D01*
X78865401Y-56047960D01*
X78865401Y-55742440D01*
X78925005Y-55442790D01*
X79041922Y-55160526D01*
X79211660Y-54906496D01*
X79427696Y-54690460D01*
X79681726Y-54520722D01*
X79963990Y-54403805D01*
X80163757Y-54364069D01*
X80263639Y-54344201D01*
X80569161Y-54344201D01*
X80669043Y-54364069D01*
G37*
G36*
X80718985Y-49374002D02*
G01*
X80868810Y-49403804D01*
X81151074Y-49520721D01*
X81405105Y-49690459D01*
X81621141Y-49906495D01*
X81790879Y-50160526D01*
X81907796Y-50442790D01*
X81967400Y-50742440D01*
X81967400Y-51047960D01*
X81907796Y-51347610D01*
X81790879Y-51629874D01*
X81621141Y-51883905D01*
X81405105Y-52099941D01*
X81151074Y-52269679D01*
X80868810Y-52386596D01*
X80718985Y-52416398D01*
X80569161Y-52446200D01*
X80263639Y-52446200D01*
X80113815Y-52416398D01*
X79963990Y-52386596D01*
X79681726Y-52269679D01*
X79427695Y-52099941D01*
X79211659Y-51883905D01*
X79041921Y-51629874D01*
X78925004Y-51347610D01*
X78865400Y-51047960D01*
X78865400Y-50742440D01*
X78925004Y-50442790D01*
X79041921Y-50160526D01*
X79211659Y-49906495D01*
X79427695Y-49690459D01*
X79681726Y-49520721D01*
X79963990Y-49403804D01*
X80113815Y-49374002D01*
X80263639Y-49344200D01*
X80569161Y-49344200D01*
X80718985Y-49374002D01*
G37*
G36*
X110669043Y-49364069D02*
G01*
X110868810Y-49403805D01*
X111151074Y-49520722D01*
X111405104Y-49690460D01*
X111621140Y-49906496D01*
X111790878Y-50160526D01*
X111907795Y-50442790D01*
X111967399Y-50742440D01*
X111967399Y-51047960D01*
X111907795Y-51347610D01*
X111790878Y-51629874D01*
X111621140Y-51883904D01*
X111405104Y-52099940D01*
X111151074Y-52269678D01*
X110868810Y-52386595D01*
X110669043Y-52426331D01*
X110569161Y-52446199D01*
X110263639Y-52446199D01*
X110163757Y-52426331D01*
X109963990Y-52386595D01*
X109681726Y-52269678D01*
X109427696Y-52099940D01*
X109211660Y-51883904D01*
X109041922Y-51629874D01*
X108925005Y-51347610D01*
X108865401Y-51047960D01*
X108865401Y-50742440D01*
X108925005Y-50442790D01*
X109041922Y-50160526D01*
X109211660Y-49906496D01*
X109427696Y-49690460D01*
X109681726Y-49520722D01*
X109963990Y-49403805D01*
X110163757Y-49364069D01*
X110263639Y-49344201D01*
X110569161Y-49344201D01*
X110669043Y-49364069D01*
G37*
G36*
X131102585Y-45468802D02*
G01*
X131252410Y-45498604D01*
X131534674Y-45615521D01*
X131788705Y-45785259D01*
X132004741Y-46001295D01*
X132174479Y-46255326D01*
X132272580Y-46492165D01*
X132291396Y-46537591D01*
X132351000Y-46837239D01*
X132351000Y-47142761D01*
X132321198Y-47292585D01*
X132291396Y-47442410D01*
X132174479Y-47724674D01*
X132004741Y-47978705D01*
X131788705Y-48194741D01*
X131534674Y-48364479D01*
X131252410Y-48481396D01*
X131102585Y-48511198D01*
X130952761Y-48541000D01*
X130647239Y-48541000D01*
X130497415Y-48511198D01*
X130347590Y-48481396D01*
X130065326Y-48364479D01*
X129811295Y-48194741D01*
X129595259Y-47978705D01*
X129425521Y-47724674D01*
X129308604Y-47442410D01*
X129278802Y-47292585D01*
X129249000Y-47142761D01*
X129249000Y-46837239D01*
X129308604Y-46537591D01*
X129327420Y-46492165D01*
X129425521Y-46255326D01*
X129595259Y-46001295D01*
X129811295Y-45785259D01*
X130065326Y-45615521D01*
X130347590Y-45498604D01*
X130497415Y-45468802D01*
X130647239Y-45439000D01*
X130952761Y-45439000D01*
X131102585Y-45468802D01*
G37*
G36*
X148902585Y-45468802D02*
G01*
X149052410Y-45498604D01*
X149334674Y-45615521D01*
X149588705Y-45785259D01*
X149804741Y-46001295D01*
X149974479Y-46255326D01*
X150072580Y-46492165D01*
X150091396Y-46537591D01*
X150151000Y-46837239D01*
X150151000Y-47142761D01*
X150121198Y-47292585D01*
X150091396Y-47442410D01*
X149974479Y-47724674D01*
X149804741Y-47978705D01*
X149588705Y-48194741D01*
X149334674Y-48364479D01*
X149052410Y-48481396D01*
X148902585Y-48511198D01*
X148752761Y-48541000D01*
X148447239Y-48541000D01*
X148297415Y-48511198D01*
X148147590Y-48481396D01*
X147865326Y-48364479D01*
X147611295Y-48194741D01*
X147395259Y-47978705D01*
X147225521Y-47724674D01*
X147108604Y-47442410D01*
X147078802Y-47292585D01*
X147049000Y-47142761D01*
X147049000Y-46837239D01*
X147108604Y-46537591D01*
X147127420Y-46492165D01*
X147225521Y-46255326D01*
X147395259Y-46001295D01*
X147611295Y-45785259D01*
X147865326Y-45615521D01*
X148147590Y-45498604D01*
X148297415Y-45468802D01*
X148447239Y-45439000D01*
X148752761Y-45439000D01*
X148902585Y-45468802D01*
G37*
G36*
X143291000Y-48041000D02*
G01*
X141189000Y-48041000D01*
X141189000Y-45939000D01*
X143291000Y-45939000D01*
X143291000Y-48041000D01*
G37*
G36*
X137466564Y-45979389D02*
G01*
X137657833Y-46058615D01*
X137657835Y-46058616D01*
X137829973Y-46173635D01*
X137976365Y-46320027D01*
X138091385Y-46492167D01*
X138170611Y-46683436D01*
X138211000Y-46886484D01*
X138211000Y-47093516D01*
X138170611Y-47296564D01*
X138133319Y-47386595D01*
X138091384Y-47487835D01*
X137976365Y-47659973D01*
X137829973Y-47806365D01*
X137657835Y-47921384D01*
X137657834Y-47921385D01*
X137657833Y-47921385D01*
X137466564Y-48000611D01*
X137263516Y-48041000D01*
X137056484Y-48041000D01*
X136853436Y-48000611D01*
X136662167Y-47921385D01*
X136662166Y-47921385D01*
X136662165Y-47921384D01*
X136490027Y-47806365D01*
X136343635Y-47659973D01*
X136228616Y-47487835D01*
X136186681Y-47386595D01*
X136149389Y-47296564D01*
X136109000Y-47093516D01*
X136109000Y-46886484D01*
X136149389Y-46683436D01*
X136228615Y-46492167D01*
X136343635Y-46320027D01*
X136490027Y-46173635D01*
X136662165Y-46058616D01*
X136662167Y-46058615D01*
X136853436Y-45979389D01*
X137056484Y-45939000D01*
X137263516Y-45939000D01*
X137466564Y-45979389D01*
G37*
G36*
X110669043Y-44364069D02*
G01*
X110868810Y-44403805D01*
X111151074Y-44520722D01*
X111405104Y-44690460D01*
X111621140Y-44906496D01*
X111790878Y-45160526D01*
X111907795Y-45442790D01*
X111907795Y-45442792D01*
X111967399Y-45742439D01*
X111967399Y-46047961D01*
X111947531Y-46147843D01*
X111907795Y-46347610D01*
X111790878Y-46629874D01*
X111621140Y-46883904D01*
X111405104Y-47099940D01*
X111151074Y-47269678D01*
X110868810Y-47386595D01*
X110669043Y-47426331D01*
X110569161Y-47446199D01*
X110263639Y-47446199D01*
X110163757Y-47426331D01*
X109963990Y-47386595D01*
X109681726Y-47269678D01*
X109427696Y-47099940D01*
X109211660Y-46883904D01*
X109041922Y-46629874D01*
X108925005Y-46347610D01*
X108885269Y-46147843D01*
X108865401Y-46047961D01*
X108865401Y-45742439D01*
X108925005Y-45442792D01*
X108925005Y-45442790D01*
X109041922Y-45160526D01*
X109211660Y-44906496D01*
X109427696Y-44690460D01*
X109681726Y-44520722D01*
X109963990Y-44403805D01*
X110163757Y-44364069D01*
X110263639Y-44344201D01*
X110569161Y-44344201D01*
X110669043Y-44364069D01*
G37*
G36*
X80669043Y-44364069D02*
G01*
X80868810Y-44403805D01*
X81151074Y-44520722D01*
X81405104Y-44690460D01*
X81621140Y-44906496D01*
X81790878Y-45160526D01*
X81907795Y-45442790D01*
X81907795Y-45442792D01*
X81967399Y-45742439D01*
X81967399Y-46047961D01*
X81947531Y-46147843D01*
X81907795Y-46347610D01*
X81790878Y-46629874D01*
X81621140Y-46883904D01*
X81405104Y-47099940D01*
X81151074Y-47269678D01*
X80868810Y-47386595D01*
X80669043Y-47426331D01*
X80569161Y-47446199D01*
X80263639Y-47446199D01*
X80163757Y-47426331D01*
X79963990Y-47386595D01*
X79681726Y-47269678D01*
X79427696Y-47099940D01*
X79211660Y-46883904D01*
X79041922Y-46629874D01*
X78925005Y-46347610D01*
X78885269Y-46147843D01*
X78865401Y-46047961D01*
X78865401Y-45742439D01*
X78925005Y-45442792D01*
X78925005Y-45442790D01*
X79041922Y-45160526D01*
X79211660Y-44906496D01*
X79427696Y-44690460D01*
X79681726Y-44520722D01*
X79963990Y-44403805D01*
X80163757Y-44364069D01*
X80263639Y-44344201D01*
X80569161Y-44344201D01*
X80669043Y-44364069D01*
G37*
M02*
