M48
; DRILL file {KiCad (5.1.5)-3} date 24.06.2020 22:18:34
; FORMAT={-:-/ absolute / inch / decimal}
; #@! TF.CreationDate,2020-06-24T22:18:34+03:00
; #@! TF.GenerationSoftware,Kicad,Pcbnew,(5.1.5)-3
; #@! TF.FileFunction,Plated,1,2,PTH
FMAT,2
INCH
T1C0.0276
T2C0.0315
T3C0.0354
T4C0.0394
T5C0.0433
T6C0.0472
T7C0.0591
T8C0.2402
%
G90
G05
T1
X4.6Y-4.24
X4.8Y-4.24
X4.245Y-4.645
X4.245Y-4.845
X4.435Y-4.425
X4.635Y-4.425
X2.2Y-4.5
X2.2Y-4.7
X2.108Y-2.9
X2.108Y-3.1
X3.51Y-4.5
X3.71Y-4.5
T2
X2.09Y-3.99
X2.09Y-4.09
X2.09Y-4.19
X2.09Y-4.29
X2.39Y-3.99
X2.39Y-4.09
X2.39Y-4.19
X2.39Y-4.29
X2.474Y-2.932
X2.474Y-3.0304
T3
X2.412Y-3.324
X2.412Y-3.624
T5
X2.9Y-4.05
X2.9Y-4.15
X2.9Y-4.25
X5.4Y-1.85
X5.6Y-1.85
T6
X3.166Y-1.8069
X3.166Y-2.0037
X3.166Y-2.2006
X3.166Y-2.3974
X3.166Y-2.5943
X3.166Y-2.7911
X3.166Y-2.988
X4.3471Y-1.8069
X4.3471Y-2.0037
X4.3471Y-2.2006
X4.3471Y-2.3974
X4.3471Y-2.5943
X4.3471Y-2.7911
X4.3471Y-2.988
X5.65Y-2.85
X5.65Y-3.0469
T7
X5.1496Y-1.85
X5.8504Y-1.85
X2.9Y-3.8496
X2.9Y-4.5504
T8
X6.344Y-3.406
X6.328Y-2.564
T4
G00X1.3539Y-2.3728
M15
G01X1.2949Y-2.3728
M16
G05
G00X1.3539Y-2.7272
M15
G01X1.2949Y-2.7272
M16
G05
G00X1.3638Y-2.5244
M15
G01X1.3638Y-2.5756
M16
G05
G00X1.6Y-2.5106
M15
G01X1.6Y-2.5894
M16
G05
G00X1.3539Y-3.6228
M15
G01X1.2949Y-3.6228
M16
G05
G00X1.3539Y-3.9772
M15
G01X1.2949Y-3.9772
M16
G05
G00X1.3638Y-3.7744
M15
G01X1.3638Y-3.8256
M16
G05
G00X1.6Y-3.7606
M15
G01X1.6Y-3.8394
M16
G05
T0
M30
